STARTFONT 2.1
FONT -FontForge-Everson Mono-Bold-R-Normal--32-310-75-75-M-280-ISO10646-1
SIZE 31 75 75
FONTBOUNDINGBOX 73 46 -20 -13
COMMENT "Generated by fontforge, http://fontforge.sourceforge.net"
COMMENT "Copyright (c) 2015 by Michael Everson. All rights reserved."
STARTPROPERTIES 41
FOUNDRY "FontForge"
FAMILY_NAME "Everson Mono"
WEIGHT_NAME "Bold"
SLANT "R"
SETWIDTH_NAME "Normal"
ADD_STYLE_NAME ""
PIXEL_SIZE 32
POINT_SIZE 310
RESOLUTION_X 75
RESOLUTION_Y 75
SPACING "M"
AVERAGE_WIDTH 280
CHARSET_REGISTRY "ISO10646"
CHARSET_ENCODING "1"
FONTNAME_REGISTRY ""
CHARSET_COLLECTIONS "ASCII ISOLatin1Encoding ISO8859-2 ISO8859-5 ISO8859-7 ISO8859-9 ISO8859-8 ISO8859-4 ISO8859-11 ISO10646-1"
FONT_NAME "EversonMono-Bold"
FACE_NAME "EversonMono-Bold"
COPYRIGHT "Copyright (c) 2015 by Michael Everson. All rights reserved."
FONT_VERSION "7.001b"
FONT_ASCENT 26
FONT_DESCENT 6
UNDERLINE_POSITION -5
UNDERLINE_THICKNESS 1
X_HEIGHT 14
CAP_HEIGHT 19
DEFAULT_CHAR 1
RAW_ASCENT 800
RAW_DESCENT 200
NORM_SPACE 28
RELATIVE_WEIGHT 70
RELATIVE_SETWIDTH 50
SUPERSCRIPT_X 0
SUPERSCRIPT_Y 14
SUPERSCRIPT_SIZE 20
SUBSCRIPT_X 0
SUBSCRIPT_Y 4
SUBSCRIPT_SIZE 20
FIGURE_WIDTH 28
AVG_LOWERCASE_WIDTH 280
AVG_UPPERCASE_WIDTH 280
ENDPROPERTIES
CHARS 9756
STARTCHAR NULL
ENCODING 0
SWIDTH 870 0
DWIDTH 28 0
BBX 1 1 0 0
BITMAP
00
ENDCHAR
STARTCHAR uni0002
ENCODING 2
SWIDTH 870 0
DWIDTH 28 0
BBX 1 1 0 0
BITMAP
00
ENDCHAR
STARTCHAR uni0009
ENCODING 9
SWIDTH 870 0
DWIDTH 28 0
BBX 1 1 0 0
BITMAP
00
ENDCHAR
STARTCHAR uni000A
ENCODING 10
SWIDTH 870 0
DWIDTH 28 0
BBX 1 1 0 0
BITMAP
00
ENDCHAR
STARTCHAR nonmarkingreturn
ENCODING 13
SWIDTH 870 0
DWIDTH 28 0
BBX 1 1 0 0
BITMAP
00
ENDCHAR
STARTCHAR space
ENCODING 32
SWIDTH 870 0
DWIDTH 28 0
BBX 1 1 0 0
BITMAP
00
ENDCHAR
STARTCHAR exclam
ENCODING 33
SWIDTH 870 0
DWIDTH 28 0
BBX 4 21 7 0
BITMAP
60
70
70
70
70
70
70
60
60
60
60
60
60
60
00
00
00
60
F0
F0
60
ENDCHAR
STARTCHAR quotedbl
ENCODING 34
SWIDTH 870 0
DWIDTH 28 0
BBX 10 9 4 11
BITMAP
F1C0
F1C0
E1C0
E1C0
61C0
61C0
61C0
61C0
6080
ENDCHAR
STARTCHAR numbersign
ENCODING 35
SWIDTH 870 0
DWIDTH 28 0
BBX 15 24 2 -2
BITMAP
0430
0C30
0C30
0C30
0C20
0C20
0C20
0C60
7FFE
7FFE
0C60
0C60
0C60
0C60
FFFC
FFFC
1860
1860
1860
1860
1840
1840
1840
1840
ENDCHAR
STARTCHAR dollar
ENCODING 36
SWIDTH 870 0
DWIDTH 28 0
BBX 12 25 3 -3
BITMAP
0600
0600
0600
1F80
3FE0
70E0
6030
6030
6000
7000
3C00
07C0
00E0
0030
0030
C030
C070
60E0
3FE0
1F80
0600
0600
0600
0600
0600
ENDCHAR
STARTCHAR percent
ENCODING 37
SWIDTH 870 0
DWIDTH 28 0
BBX 14 21 2 0
BITMAP
1F00
3F80
71C0
60C0
60C0
60C0
71C0
3F80
1E0C
007C
03E0
1F00
79F0
C3F8
071C
060C
060C
060C
071C
03F8
01F0
ENDCHAR
STARTCHAR ampersand
ENCODING 38
SWIDTH 870 0
DWIDTH 28 0
BBX 12 18 3 0
BITMAP
1E00
3F80
7380
6000
6000
6000
3000
3800
3C10
7E30
6630
E370
C1E0
C1E0
C0E0
E1E0
7F70
3E30
ENDCHAR
STARTCHAR quotesingle
ENCODING 39
SWIDTH 870 0
DWIDTH 28 0
BBX 4 11 7 10
BITMAP
F0
F0
70
70
70
70
60
60
60
60
60
ENDCHAR
STARTCHAR parenleft
ENCODING 40
SWIDTH 870 0
DWIDTH 28 0
BBX 9 24 5 -4
BITMAP
0300
0F80
1E00
1800
3000
7000
6000
6000
C000
C000
C000
C000
C000
C000
C000
C000
6000
6000
7000
3000
3800
1E00
0F00
0380
ENDCHAR
STARTCHAR parenright
ENCODING 41
SWIDTH 870 0
DWIDTH 28 0
BBX 9 24 4 -4
BITMAP
6000
F800
3C00
0C00
0600
0700
0300
0300
0180
0180
0180
0180
0180
0180
0180
0180
0300
0300
0700
0600
0C00
3C00
7800
E000
ENDCHAR
STARTCHAR asterisk
ENCODING 42
SWIDTH 870 0
DWIDTH 28 0
BBX 14 15 2 7
BITMAP
0300
0300
3330
3B70
1FE0
0FC0
1FC0
FFFC
0FE0
1FC0
1FE0
3B70
3330
0300
0300
ENDCHAR
STARTCHAR plus
ENCODING 43
SWIDTH 870 0
DWIDTH 28 0
BBX 16 17 1 1
BITMAP
0180
0180
0180
0180
0180
0180
0180
0180
7FFE
FFFF
0180
0180
0180
0180
0180
0180
0180
ENDCHAR
STARTCHAR comma
ENCODING 44
SWIDTH 870 0
DWIDTH 28 0
BBX 5 9 7 -5
BITMAP
70
F8
F8
78
18
10
30
60
C0
ENDCHAR
STARTCHAR hyphen
ENCODING 45
SWIDTH 870 0
DWIDTH 28 0
BBX 11 2 4 9
BITMAP
FFE0
FFE0
ENDCHAR
STARTCHAR period
ENCODING 46
SWIDTH 870 0
DWIDTH 28 0
BBX 4 4 7 0
BITMAP
60
F0
F0
60
ENDCHAR
STARTCHAR slash
ENCODING 47
SWIDTH 870 0
DWIDTH 28 0
BBX 12 26 3 -3
BITMAP
0010
0030
0030
0060
0060
00E0
00C0
00C0
0180
0180
0300
0300
0600
0600
0600
0C00
0C00
1800
1800
3000
3000
3000
6000
6000
C000
C000
ENDCHAR
STARTCHAR zero
ENCODING 48
SWIDTH 870 0
DWIDTH 28 0
BBX 13 21 3 0
BITMAP
0F80
1FC0
38E0
7070
6030
E038
C018
C018
C018
C018
C018
C018
C018
C018
C018
E038
6030
6070
38E0
1FC0
0F80
ENDCHAR
STARTCHAR one
ENCODING 49
SWIDTH 870 0
DWIDTH 28 0
BBX 12 21 3 0
BITMAP
0200
0600
0E00
0E00
1E00
3600
6600
C600
0600
0600
0600
0600
0600
0600
0600
0600
0600
0600
0600
FFF0
FFF0
ENDCHAR
STARTCHAR two
ENCODING 50
SWIDTH 870 0
DWIDTH 28 0
BBX 13 21 3 0
BITMAP
0F80
1FE0
3870
6030
6018
C018
0018
0018
0030
0070
00E0
01C0
0380
0700
0E00
1C00
3800
7000
E018
FFF8
FFF8
ENDCHAR
STARTCHAR three
ENCODING 51
SWIDTH 870 0
DWIDTH 28 0
BBX 13 21 2 0
BITMAP
0FC0
1FE0
7870
6038
0018
0018
0018
0038
0070
07E0
07E0
00F0
0030
0018
0018
0018
0018
C030
F0F0
7FE0
1F80
ENDCHAR
STARTCHAR four
ENCODING 52
SWIDTH 870 0
DWIDTH 28 0
BBX 13 21 2 0
BITMAP
00E0
01E0
03E0
0360
0760
0660
0E60
0C60
1C60
1860
3860
3060
7060
6060
FFF8
FFF8
0060
0060
0060
03F8
03F8
ENDCHAR
STARTCHAR five
ENCODING 53
SWIDTH 870 0
DWIDTH 28 0
BBX 13 21 3 0
BITMAP
7FE0
7FE0
6000
6000
6000
6000
6000
6F80
7FE0
7070
0030
0018
0018
0018
0018
0018
8030
C030
F0E0
7FC0
1F80
ENDCHAR
STARTCHAR six
ENCODING 54
SWIDTH 870 0
DWIDTH 28 0
BBX 13 21 3 0
BITMAP
01F0
07F8
0E10
1C00
3000
6000
6000
C000
C7C0
DFE0
FC70
F030
F018
E018
E018
6018
7018
3030
3870
1FE0
0780
ENDCHAR
STARTCHAR seven
ENCODING 55
SWIDTH 870 0
DWIDTH 28 0
BBX 12 21 3 0
BITMAP
FFF0
FFF0
C030
C030
0030
0070
0060
0060
0060
00C0
00C0
00C0
01C0
0180
0180
0380
0300
0300
0300
0700
0E00
ENDCHAR
STARTCHAR eight
ENCODING 56
SWIDTH 870 0
DWIDTH 28 0
BBX 13 21 3 0
BITMAP
0F80
3FC0
70E0
E070
C030
C030
C030
E070
70F0
3FE0
3FE0
7070
E030
C018
C018
C018
C018
E030
7070
3FE0
0F80
ENDCHAR
STARTCHAR nine
ENCODING 57
SWIDTH 870 0
DWIDTH 28 0
BBX 12 21 3 0
BITMAP
1F00
3F80
70C0
6040
E060
C020
C030
C030
C030
C070
60F0
71F0
3FB0
1E30
0030
0060
00E0
01C0
0380
FF00
7800
ENDCHAR
STARTCHAR colon
ENCODING 58
SWIDTH 870 0
DWIDTH 28 0
BBX 4 14 7 0
BITMAP
E0
F0
F0
60
00
00
00
00
00
00
60
F0
F0
60
ENDCHAR
STARTCHAR semicolon
ENCODING 59
SWIDTH 870 0
DWIDTH 28 0
BBX 5 19 7 -5
BITMAP
60
F0
F0
60
00
00
00
00
00
00
70
F8
F8
78
18
10
30
60
C0
ENDCHAR
STARTCHAR less
ENCODING 60
SWIDTH 870 0
DWIDTH 28 0
BBX 16 17 1 1
BITMAP
0003
000F
001C
0078
01E0
0780
0E00
3C00
F000
3C00
1E00
0780
01E0
0078
003C
000F
0003
ENDCHAR
STARTCHAR equal
ENCODING 61
SWIDTH 870 0
DWIDTH 28 0
BBX 16 7 1 6
BITMAP
FFFF
FFFF
0000
0000
0000
FFFF
FFFF
ENDCHAR
STARTCHAR greater
ENCODING 62
SWIDTH 870 0
DWIDTH 28 0
BBX 16 17 1 1
BITMAP
E000
7000
3C00
0F00
03C0
01E0
0078
001E
000F
001E
0078
01E0
03C0
0F00
3C00
7000
C000
ENDCHAR
STARTCHAR question
ENCODING 63
SWIDTH 870 0
DWIDTH 28 0
BBX 12 19 3 0
BITMAP
1F00
3FC0
70E0
C070
C030
0030
0030
0030
0060
01C0
0780
0600
0600
0600
0000
0600
0F00
0F00
0600
ENDCHAR
STARTCHAR at
ENCODING 64
SWIDTH 870 0
DWIDTH 28 0
BBX 18 20 0 0
BITMAP
03F000
0FFC00
1E1E00
380700
700300
61C180
63F980
C338C0
C618C0
C618C0
C618C0
C618C0
C738C0
63F8C0
61DDC0
700F80
380700
1E1800
0FF800
03E000
ENDCHAR
STARTCHAR A
ENCODING 65
SWIDTH 870 0
DWIDTH 28 0
BBX 17 20 1 0
BITMAP
018000
03C000
03C000
036000
066000
066000
063000
0C3000
0C3800
1C1800
181800
180C00
3FFC00
3FFC00
700600
600600
600700
E00300
C00300
C00180
ENDCHAR
STARTCHAR B
ENCODING 66
SWIDTH 870 0
DWIDTH 28 0
BBX 14 19 2 0
BITMAP
FFC0
FFE0
C070
C038
C018
C018
C018
C070
DFE0
DFF0
C038
C01C
C00C
C00C
C00C
C01C
C038
FFF0
FFE0
ENDCHAR
STARTCHAR C
ENCODING 67
SWIDTH 870 0
DWIDTH 28 0
BBX 16 20 1 0
BITMAP
03F3
0FFB
1C1F
3807
7003
6003
6000
C000
C000
C000
C000
C000
C000
E000
6000
7003
3807
1E0E
0FFC
03F0
ENDCHAR
STARTCHAR D
ENCODING 68
SWIDTH 870 0
DWIDTH 28 0
BBX 15 19 2 0
BITMAP
FF80
FFE0
C070
C018
C00C
C00C
C006
C006
C006
C006
C006
C006
C006
C00C
C00C
C018
C070
FFE0
FF80
ENDCHAR
STARTCHAR E
ENCODING 69
SWIDTH 870 0
DWIDTH 28 0
BBX 13 19 2 0
BITMAP
FFF8
FFF8
C000
C000
C000
C000
C000
C000
FF80
FF80
C000
C000
C000
C000
C000
C000
C000
FFF8
FFF8
ENDCHAR
STARTCHAR F
ENCODING 70
SWIDTH 870 0
DWIDTH 28 0
BBX 13 19 3 0
BITMAP
FFF8
FFF8
C000
C000
C000
C000
C000
C000
FF80
FF80
C000
C000
C000
C000
C000
C000
C000
C000
C000
ENDCHAR
STARTCHAR G
ENCODING 71
SWIDTH 870 0
DWIDTH 28 0
BBX 16 20 1 0
BITMAP
07E6
0FFE
1C3E
300E
7006
6006
6000
C000
C000
C000
C000
C07F
C07F
E003
6002
7006
380C
1C1C
0FF8
03E0
ENDCHAR
STARTCHAR H
ENCODING 72
SWIDTH 870 0
DWIDTH 28 0
BBX 12 20 3 0
BITMAP
C030
C030
C030
C030
C030
C030
C030
C030
C030
FFF0
FFF0
C030
C030
C030
C030
C030
C030
C030
C030
C030
ENDCHAR
STARTCHAR I
ENCODING 73
SWIDTH 870 0
DWIDTH 28 0
BBX 12 19 3 0
BITMAP
FFF0
FFF0
0600
0600
0600
0600
0600
0600
0600
0600
0600
0600
0600
0600
0600
0600
0600
FFF0
FFF0
ENDCHAR
STARTCHAR J
ENCODING 74
SWIDTH 870 0
DWIDTH 28 0
BBX 13 19 3 0
BITMAP
07F8
07F8
0018
0018
0018
0018
0018
0018
0018
0018
C018
C018
C018
C018
C018
E030
7070
3FE0
1F80
ENDCHAR
STARTCHAR K
ENCODING 75
SWIDTH 870 0
DWIDTH 28 0
BBX 15 20 2 0
BITMAP
C01C
C03C
C070
C0E0
C1C0
C380
C700
CE00
DC00
FF00
F780
E180
C0C0
C0E0
C060
C060
C030
C030
C01E
C01E
ENDCHAR
STARTCHAR L
ENCODING 76
SWIDTH 870 0
DWIDTH 28 0
BBX 13 20 3 0
BITMAP
C000
C000
C000
C000
C000
C000
C000
C000
C000
C000
C000
C000
C000
C000
C000
C000
C000
C000
FFF8
FFF8
ENDCHAR
STARTCHAR M
ENCODING 77
SWIDTH 870 0
DWIDTH 28 0
BBX 16 20 1 0
BITMAP
E007
E007
F00F
F00F
D81B
D81B
DC3B
CC33
CE73
C663
C663
C3C3
C3C3
C183
C183
C003
C003
C003
C003
C003
ENDCHAR
STARTCHAR N
ENCODING 78
SWIDTH 870 0
DWIDTH 28 0
BBX 14 20 2 0
BITMAP
C00C
E00C
F00C
F00C
F80C
DC0C
CC0C
CE0C
C60C
C30C
C38C
C18C
C1CC
C0EC
C06C
C07C
C03C
C03C
C01C
C00C
ENDCHAR
STARTCHAR O
ENCODING 79
SWIDTH 870 0
DWIDTH 28 0
BBX 16 20 1 0
BITMAP
07E0
0FF0
1C38
380C
700E
6006
E006
C003
C003
C003
C003
C003
C003
E007
6006
700E
301C
1C38
0FF0
07E0
ENDCHAR
STARTCHAR P
ENCODING 80
SWIDTH 870 0
DWIDTH 28 0
BBX 13 19 3 0
BITMAP
FF80
FFE0
C070
C030
C018
C018
C018
C018
C030
C0F0
FFE0
FF80
C000
C000
C000
C000
C000
C000
C000
ENDCHAR
STARTCHAR Q
ENCODING 81
SWIDTH 870 0
DWIDTH 28 0
BBX 18 23 0 -3
BITMAP
03E000
0FF800
1C1C00
380E00
700700
600300
E00300
C00180
C00180
C00180
C00180
C00180
C00180
600300
600300
73E300
3FF600
1C1C00
0FF800
03F840
001840
001FC0
000F80
ENDCHAR
STARTCHAR R
ENCODING 82
SWIDTH 870 0
DWIDTH 28 0
BBX 16 19 1 0
BITMAP
FF80
FFE0
C070
C038
C018
C018
C018
C038
C0F0
DFC0
FF80
C1C0
C0E0
C070
C038
C018
C01C
C00F
C007
ENDCHAR
STARTCHAR S
ENCODING 83
SWIDTH 870 0
DWIDTH 28 0
BBX 14 20 2 0
BITMAP
07C0
1FF0
3838
7018
600C
600C
6000
7000
3C00
0FE0
03F0
0038
000C
800C
C00C
C00C
E01C
7078
3FF0
0FC0
ENDCHAR
STARTCHAR T
ENCODING 84
SWIDTH 870 0
DWIDTH 28 0
BBX 16 19 1 0
BITMAP
FFFF
FFFF
0180
0180
0180
0180
0180
0180
0180
0180
0180
0180
0180
0180
0180
0180
0180
0180
0180
ENDCHAR
STARTCHAR U
ENCODING 85
SWIDTH 870 0
DWIDTH 28 0
BBX 14 20 2 0
BITMAP
C00C
C00C
C00C
C00C
C00C
C00C
C00C
C00C
C00C
C00C
C00C
C00C
C00C
C00C
C00C
E01C
6018
3870
1FE0
0FC0
ENDCHAR
STARTCHAR V
ENCODING 86
SWIDTH 870 0
DWIDTH 28 0
BBX 16 20 1 0
BITMAP
C003
C003
6003
6006
6006
300E
300C
380C
1818
1818
0C18
0C30
0C30
0670
0660
0360
03C0
03C0
01C0
0180
ENDCHAR
STARTCHAR W
ENCODING 87
SWIDTH 870 0
DWIDTH 28 0
BBX 18 20 0 0
BITMAP
C000C0
C040C0
C0E0C0
C0E0C0
41E0C0
61B0C0
61B0C0
63B0C0
633980
631980
631980
661980
360D80
360D80
3E0D80
3C0D80
3C0780
3C0700
380700
180300
ENDCHAR
STARTCHAR X
ENCODING 88
SWIDTH 870 0
DWIDTH 28 0
BBX 18 21 0 -1
BITMAP
400180
F00300
380700
180600
0C0C00
061800
073800
033000
01E000
00E000
00E000
01E000
03B000
073800
061C00
0E0C00
1C0600
180700
3003C0
7001C0
600000
ENDCHAR
STARTCHAR Y
ENCODING 89
SWIDTH 870 0
DWIDTH 28 0
BBX 14 20 2 0
BITMAP
800C
C00C
E018
6038
3030
3860
18E0
0CC0
0FC0
0780
0300
0300
0300
0300
0300
0300
0300
0300
0300
0300
ENDCHAR
STARTCHAR Z
ENCODING 90
SWIDTH 870 0
DWIDTH 28 0
BBX 15 19 2 0
BITMAP
FFF8
FFF8
0038
0030
0060
00E0
01C0
0180
0380
0700
0600
0C00
1C00
1800
3000
7000
6000
FFFC
FFFE
ENDCHAR
STARTCHAR bracketleft
ENCODING 91
SWIDTH 870 0
DWIDTH 28 0
BBX 7 26 6 -5
BITMAP
FE
FE
C0
C0
C0
C0
C0
C0
C0
C0
C0
C0
C0
C0
C0
C0
C0
C0
C0
C0
C0
C0
C0
C0
FE
FE
ENDCHAR
STARTCHAR backslash
ENCODING 92
SWIDTH 870 0
DWIDTH 28 0
BBX 12 26 3 -3
BITMAP
C000
C000
6000
6000
3000
3000
3000
1800
1800
0C00
0C00
0600
0600
0600
0300
0300
0180
0180
00C0
00C0
00C0
0060
0060
0030
0030
0010
ENDCHAR
STARTCHAR bracketright
ENCODING 93
SWIDTH 870 0
DWIDTH 28 0
BBX 7 26 6 -5
BITMAP
FE
FE
06
06
06
06
06
06
06
06
06
06
06
06
06
06
06
06
06
06
06
06
06
06
FE
FE
ENDCHAR
STARTCHAR asciicircum
ENCODING 94
SWIDTH 870 0
DWIDTH 28 0
BBX 12 9 3 12
BITMAP
0200
0600
0F00
1D80
19C0
30E0
6060
E030
C010
ENDCHAR
STARTCHAR underscore
ENCODING 95
SWIDTH 870 0
DWIDTH 28 0
BBX 19 2 0 -6
BITMAP
FFFFE0
FFFFE0
ENDCHAR
STARTCHAR grave
ENCODING 96
SWIDTH 870 0
DWIDTH 28 0
BBX 6 6 6 16
BITMAP
C0
E0
70
18
0C
04
ENDCHAR
STARTCHAR a
ENCODING 97
SWIDTH 870 0
DWIDTH 28 0
BBX 14 15 2 0
BITMAP
07E0
3FF8
3C3C
000C
000C
000C
0FFC
3FFC
780C
E00C
C00C
C01C
E07C
7FFC
1F8C
ENDCHAR
STARTCHAR b
ENCODING 98
SWIDTH 870 0
DWIDTH 28 0
BBX 15 21 2 0
BITMAP
C000
C000
C000
C000
C000
C000
C7C0
DFF0
F838
F01C
E00C
C006
C006
C006
C006
C006
E00C
F01C
F838
DFF0
C7C0
ENDCHAR
STARTCHAR c
ENCODING 99
SWIDTH 870 0
DWIDTH 28 0
BBX 15 15 2 0
BITMAP
07E0
1FF8
383C
700C
600C
C004
C000
C000
C000
C000
6002
700E
383C
1FF8
07E0
ENDCHAR
STARTCHAR d
ENCODING 100
SWIDTH 870 0
DWIDTH 28 0
BBX 15 21 2 0
BITMAP
0006
0006
0006
0006
0006
0006
07C6
1FF6
383E
701E
600E
C006
C006
C006
C006
C006
600E
701E
383E
1FF6
07C6
ENDCHAR
STARTCHAR e
ENCODING 101
SWIDTH 870 0
DWIDTH 28 0
BBX 16 15 1 0
BITMAP
07E0
1FF0
3C38
700C
600C
6006
E006
FFFE
FFFE
4000
6003
3007
3C0E
0FFC
07F0
ENDCHAR
STARTCHAR f
ENCODING 102
SWIDTH 870 0
DWIDTH 28 0
BBX 12 21 3 0
BITMAP
01F0
03F0
0600
0C00
0C00
0C00
0C00
FFF0
FFF0
0C00
0C00
0C00
0C00
0C00
0C00
0C00
0C00
0C00
0C00
0C00
0C00
ENDCHAR
STARTCHAR g
ENCODING 103
SWIDTH 870 0
DWIDTH 28 0
BBX 16 20 1 -5
BITMAP
03D8
0FF8
0C30
1C18
1818
1818
1818
0C30
0FF0
03E0
0780
0FF0
3FFC
701E
E003
C003
E007
781E
3FFC
07F0
ENDCHAR
STARTCHAR h
ENCODING 104
SWIDTH 870 0
DWIDTH 28 0
BBX 12 21 3 0
BITMAP
C000
C000
C000
C000
C000
C000
CF80
FFE0
F0E0
E030
C030
C030
C030
C030
C030
C030
C030
C030
C030
C030
C030
ENDCHAR
STARTCHAR i
ENCODING 105
SWIDTH 870 0
DWIDTH 28 0
BBX 14 20 2 0
BITMAP
0700
0700
0700
0000
0000
0000
7F00
7F00
0300
0300
0300
0300
0300
0300
0300
0300
0300
0300
FFFC
FFFC
ENDCHAR
STARTCHAR j
ENCODING 106
SWIDTH 870 0
DWIDTH 28 0
BBX 8 27 5 -7
BITMAP
07
07
07
00
00
00
3F
3F
03
03
03
03
03
03
03
03
03
03
03
03
03
03
03
06
0E
FC
F8
ENDCHAR
STARTCHAR k
ENCODING 107
SWIDTH 870 0
DWIDTH 28 0
BBX 13 21 3 0
BITMAP
C000
C000
C000
C000
C000
C000
C0E0
C1E0
C380
C700
CE00
DC00
F800
FC00
CE00
C700
C300
C180
C0C0
C078
C038
ENDCHAR
STARTCHAR l
ENCODING 108
SWIDTH 870 0
DWIDTH 28 0
BBX 14 21 2 0
BITMAP
7F00
7F00
0300
0300
0300
0300
0300
0300
0300
0300
0300
0300
0300
0300
0300
0300
0300
0300
0300
FFFC
FFFC
ENDCHAR
STARTCHAR m
ENCODING 109
SWIDTH 870 0
DWIDTH 28 0
BBX 17 15 1 0
BITMAP
DE3E00
FF7F00
F3E380
E1C180
C18180
C18180
C18180
C18180
C18180
C18180
C18180
C18180
C18180
C18180
C18180
ENDCHAR
STARTCHAR n
ENCODING 110
SWIDTH 870 0
DWIDTH 28 0
BBX 12 15 3 0
BITMAP
CF80
FFC0
F860
E030
C030
C030
C030
C030
C030
C030
C030
C030
C030
C030
C030
ENDCHAR
STARTCHAR o
ENCODING 111
SWIDTH 870 0
DWIDTH 28 0
BBX 16 15 1 0
BITMAP
07E0
1FF8
3C3C
700E
6006
C003
C003
C003
C003
C003
6006
700E
381C
1FF8
07E0
ENDCHAR
STARTCHAR p
ENCODING 112
SWIDTH 870 0
DWIDTH 28 0
BBX 15 22 2 -7
BITMAP
C7C0
DFF0
F838
F01C
E00C
C006
C006
C006
C006
C006
E00C
F01C
F838
DFF0
C7C0
C000
C000
C000
C000
C000
C000
C000
ENDCHAR
STARTCHAR q
ENCODING 113
SWIDTH 870 0
DWIDTH 28 0
BBX 15 22 2 -7
BITMAP
07C6
1FF6
383E
701E
600E
C006
C006
C006
C006
C006
600E
701E
383E
1FF6
07C6
0006
0006
0006
0006
0006
0006
0006
ENDCHAR
STARTCHAR r
ENCODING 114
SWIDTH 870 0
DWIDTH 28 0
BBX 12 15 3 0
BITMAP
C3C0
CFE0
DC70
F800
F000
E000
C000
C000
C000
C000
C000
C000
C000
C000
C000
ENDCHAR
STARTCHAR s
ENCODING 115
SWIDTH 870 0
DWIDTH 28 0
BBX 13 15 3 0
BITMAP
1F80
7FE0
E070
C030
C030
F000
7F00
07E0
0070
8018
C018
C018
F070
7FF0
1FC0
ENDCHAR
STARTCHAR t
ENCODING 116
SWIDTH 870 0
DWIDTH 28 0
BBX 10 19 4 0
BITMAP
1800
1800
1800
1800
1800
FFC0
FFC0
1800
1800
1800
1800
1800
1800
1800
1800
1800
1C00
0FC0
07C0
ENDCHAR
STARTCHAR u
ENCODING 117
SWIDTH 870 0
DWIDTH 28 0
BBX 12 15 3 0
BITMAP
C030
C030
C030
C030
C030
C030
C030
C030
C030
C030
C030
C070
E1F0
7FB0
3E30
ENDCHAR
STARTCHAR v
ENCODING 118
SWIDTH 870 0
DWIDTH 28 0
BBX 14 16 2 -1
BITMAP
C00C
600C
6018
7018
3038
3030
1830
1860
1C60
0CE0
0EC0
06C0
0780
0380
0300
0300
ENDCHAR
STARTCHAR w
ENCODING 119
SWIDTH 870 0
DWIDTH 28 0
BBX 16 15 1 0
BITMAP
C003
6003
6183
61C2
61C6
63C6
3366
3366
366C
366C
1E3C
1E3C
1C38
1C18
1C18
ENDCHAR
STARTCHAR x
ENCODING 120
SWIDTH 870 0
DWIDTH 28 0
BBX 17 15 1 0
BITMAP
000200
E00600
F00C00
381800
1C3000
0E6000
07C000
038000
03C000
066000
0C3000
181800
700C00
600700
C00380
ENDCHAR
STARTCHAR y
ENCODING 121
SWIDTH 870 0
DWIDTH 28 0
BBX 16 22 1 -7
BITMAP
C003
6003
6006
3006
300C
180C
1818
0C18
0C30
0630
0630
0360
0360
01C0
01C0
0180
0180
0300
0300
0700
1E00
1C00
ENDCHAR
STARTCHAR z
ENCODING 122
SWIDTH 870 0
DWIDTH 28 0
BBX 14 14 2 0
BITMAP
FFF8
FFF8
0030
0060
00C0
0180
0300
0700
0E00
1C00
3800
3000
7FFC
FFFC
ENDCHAR
STARTCHAR braceleft
ENCODING 123
SWIDTH 870 0
DWIDTH 28 0
BBX 9 26 5 -5
BITMAP
0380
0F80
1E00
1800
1800
1800
1800
1800
1800
1800
1000
3000
F000
F000
3000
1800
1800
1800
1800
1800
1800
1800
1800
1E00
0F80
0380
ENDCHAR
STARTCHAR bar
ENCODING 124
SWIDTH 870 0
DWIDTH 28 0
BBX 2 26 8 -5
BITMAP
C0
C0
C0
C0
C0
C0
C0
C0
C0
C0
C0
C0
C0
C0
C0
C0
C0
C0
C0
C0
C0
C0
C0
C0
C0
C0
ENDCHAR
STARTCHAR braceright
ENCODING 125
SWIDTH 870 0
DWIDTH 28 0
BBX 9 26 5 -5
BITMAP
E000
F800
3C00
0C00
0C00
0C00
0C00
0C00
0C00
0C00
0C00
0E00
0700
0780
0E00
0C00
0C00
0C00
0C00
0C00
0C00
0C00
0C00
3C00
F800
E000
ENDCHAR
STARTCHAR asciitilde
ENCODING 126
SWIDTH 870 0
DWIDTH 28 0
BBX 14 5 2 6
BITMAP
1E04
3F0C
7398
E1F0
40E0
ENDCHAR
STARTCHAR nonbreakingspace
ENCODING 160
SWIDTH 870 0
DWIDTH 28 0
BBX 1 1 0 0
BITMAP
00
ENDCHAR
STARTCHAR exclamdown
ENCODING 161
SWIDTH 870 0
DWIDTH 28 0
BBX 4 22 7 -7
BITMAP
70
F0
F0
70
00
00
00
00
60
60
60
60
60
60
70
70
70
70
70
70
70
60
ENDCHAR
STARTCHAR cent
ENCODING 162
SWIDTH 870 0
DWIDTH 28 0
BBX 12 22 3 0
BITMAP
0600
0600
0600
0600
0600
1F80
3FE0
7070
6030
C030
C000
C000
C000
C000
6010
7070
3FE0
0F80
0600
0600
0600
0600
ENDCHAR
STARTCHAR sterling
ENCODING 163
SWIDTH 870 0
DWIDTH 28 0
BBX 16 20 1 0
BITMAP
03C0
0FE0
0C70
1810
1800
1C00
1C00
0C00
0E00
FFE0
FFE0
0600
0600
0600
0600
0E03
0C03
1C07
7FFE
7FFC
ENDCHAR
STARTCHAR currency
ENCODING 164
SWIDTH 870 0
DWIDTH 28 0
BBX 13 14 3 3
BITMAP
C018
EFB8
7FF0
38E0
7060
6030
6030
6030
6030
3060
38E0
7FF0
EFB8
C018
ENDCHAR
STARTCHAR yen
ENCODING 165
SWIDTH 870 0
DWIDTH 28 0
BBX 15 20 1 0
BITMAP
4006
E006
700C
301C
1818
1C38
0C30
0E60
3FFC
3FFC
0180
0180
3FFC
3FFC
0180
0180
0180
0180
0180
0180
ENDCHAR
STARTCHAR brokenbar
ENCODING 166
SWIDTH 870 0
DWIDTH 28 0
BBX 2 25 8 -4
BITMAP
C0
C0
C0
C0
C0
C0
C0
C0
C0
C0
00
00
00
00
00
C0
C0
C0
C0
C0
C0
C0
C0
C0
C0
ENDCHAR
STARTCHAR section
ENCODING 167
SWIDTH 870 0
DWIDTH 28 0
BBX 13 24 3 -3
BITMAP
1F80
7FE0
F070
C030
C030
E000
7E00
3FE0
79F0
E038
C018
C018
C038
7070
7FE0
3FE0
01F0
0038
C018
C018
C018
F070
7FE0
1F80
ENDCHAR
STARTCHAR dieresis
ENCODING 168
SWIDTH 870 0
DWIDTH 28 0
BBX 10 3 4 17
BITMAP
E1C0
E1C0
E1C0
ENDCHAR
STARTCHAR copyright
ENCODING 169
SWIDTH 870 0
DWIDTH 28 0
BBX 18 20 0 0
BITMAP
03F000
0FFC00
1E1E00
380700
700300
61F980
63F980
C638C0
CC18C0
CC00C0
CC00C0
CC00C0
CE08C0
673980
63F180
71E380
380700
1E1E00
0FFC00
03F000
ENDCHAR
STARTCHAR ordfeminine
ENCODING 170
SWIDTH 870 0
DWIDTH 28 0
BBX 11 13 4 9
BITMAP
1F00
7F80
61C0
00C0
3FC0
7FC0
E0C0
C0C0
C3C0
7FC0
3C80
FFE0
FFE0
ENDCHAR
STARTCHAR guillemotleft
ENCODING 171
SWIDTH 870 0
DWIDTH 28 0
BBX 16 14 1 0
BITMAP
0183
0387
070E
0E1C
1C38
3870
70E0
F1E0
3870
1C38
0E1C
070E
0387
0183
ENDCHAR
STARTCHAR logicalnot
ENCODING 172
SWIDTH 870 0
DWIDTH 28 0
BBX 18 9 0 1
BITMAP
FFFFC0
FFFFC0
0000C0
0000C0
0000C0
0000C0
0000C0
0000C0
0000C0
ENDCHAR
STARTCHAR uni00AD
ENCODING 173
SWIDTH 870 0
DWIDTH 28 0
BBX 11 2 4 9
BITMAP
FFE0
FFE0
ENDCHAR
STARTCHAR registered
ENCODING 174
SWIDTH 870 0
DWIDTH 28 0
BBX 18 20 0 0
BITMAP
03F000
0FFC00
1E1E00
380700
700300
67E180
67F180
C638C0
C618C0
C638C0
C7F0C0
C7E0C0
C630C0
661980
661D80
760F80
380700
1E1E00
0FFC00
03F000
ENDCHAR
STARTCHAR macron
ENCODING 175
SWIDTH 870 0
DWIDTH 28 0
BBX 11 2 4 17
BITMAP
FFC0
FFE0
ENDCHAR
STARTCHAR degree
ENCODING 176
SWIDTH 870 0
DWIDTH 28 0
BBX 7 7 6 16
BITMAP
38
7C
C6
C6
C6
7C
38
ENDCHAR
STARTCHAR plusminus
ENCODING 177
SWIDTH 870 0
DWIDTH 28 0
BBX 16 20 1 0
BITMAP
0180
0180
0180
0180
0180
0180
0180
7FFE
FFFF
0180
0180
0180
0180
0180
0180
0180
0100
0000
7FFE
7FFE
ENDCHAR
STARTCHAR twosuperior
ENCODING 178
SWIDTH 870 0
DWIDTH 28 0
BBX 8 12 5 12
BITMAP
1C
3E
67
63
03
06
0E
1C
38
70
FF
FF
ENDCHAR
STARTCHAR threesuperior
ENCODING 179
SWIDTH 870 0
DWIDTH 28 0
BBX 7 12 6 12
BITMAP
78
FC
C6
06
06
3C
3C
06
06
86
FC
38
ENDCHAR
STARTCHAR acute
ENCODING 180
SWIDTH 870 0
DWIDTH 28 0
BBX 6 6 6 16
BITMAP
0C
1C
38
70
C0
80
ENDCHAR
STARTCHAR mu
ENCODING 181
SWIDTH 870 0
DWIDTH 28 0
BBX 12 22 3 -7
BITMAP
C030
C030
C030
C030
C030
C030
C030
C030
C030
C030
C030
C070
E1F0
FFF0
FF30
C000
C000
C000
C000
C000
C000
C000
ENDCHAR
STARTCHAR paragraph
ENCODING 182
SWIDTH 870 0
DWIDTH 28 0
BBX 13 19 3 0
BITMAP
0FF8
3FF8
7198
E198
C198
C198
C198
C198
6198
3998
1FF8
0198
0198
0198
0198
0198
0198
0198
0198
ENDCHAR
STARTCHAR periodcentered
ENCODING 183
SWIDTH 870 0
DWIDTH 28 0
BBX 4 4 7 10
BITMAP
E0
F0
F0
60
ENDCHAR
STARTCHAR cedilla
ENCODING 184
SWIDTH 870 0
DWIDTH 28 0
BBX 6 7 6 -7
BITMAP
10
10
18
1C
C4
FC
78
ENDCHAR
STARTCHAR onesuperior
ENCODING 185
SWIDTH 870 0
DWIDTH 28 0
BBX 6 12 6 12
BITMAP
10
10
30
70
B0
30
30
30
30
30
FC
FC
ENDCHAR
STARTCHAR ordmasculine
ENCODING 186
SWIDTH 870 0
DWIDTH 28 0
BBX 12 13 3 9
BITMAP
0F80
1FC0
38E0
7070
6030
6030
6030
7070
38E0
1FC0
0F00
FFF0
FFF0
ENDCHAR
STARTCHAR guillemotright
ENCODING 187
SWIDTH 870 0
DWIDTH 28 0
BBX 16 14 1 0
BITMAP
C180
E0C0
70E0
3878
1C3C
0F1E
0787
078F
0F1E
1C3C
3878
70E0
E0C0
C180
ENDCHAR
STARTCHAR onequarter
ENCODING 188
SWIDTH 870 0
DWIDTH 28 0
BBX 14 24 2 0
BITMAP
0800
1800
3800
7800
7800
1800
1800
1800
1800
7E00
7E1C
00F8
07C0
3E00
F070
80F0
00F0
01B0
01B0
0330
03F0
03F0
0070
0070
ENDCHAR
STARTCHAR onehalf
ENCODING 189
SWIDTH 870 0
DWIDTH 28 0
BBX 14 24 2 0
BITMAP
0800
1800
3800
7800
7800
1800
1800
1800
1800
7E00
7E1C
00F8
07C0
3E70
F0F8
819C
018C
000C
0018
0030
0060
01C0
03FC
01FC
ENDCHAR
STARTCHAR threequarters
ENCODING 190
SWIDTH 870 0
DWIDTH 28 0
BBX 14 25 2 0
BITMAP
3800
FE00
C600
0600
0600
3C00
1E00
0600
0600
C600
FC00
381C
00F8
07C0
3E00
F070
C0F0
00F0
01B0
03B0
0330
07F0
07F0
0070
0070
ENDCHAR
STARTCHAR questiondown
ENCODING 191
SWIDTH 870 0
DWIDTH 28 0
BBX 12 20 3 -5
BITMAP
0700
0780
0780
0300
0000
0000
0300
0300
0300
0F00
3C00
7000
C000
C000
C000
C030
E030
70E0
3FC0
1F80
ENDCHAR
STARTCHAR Agrave
ENCODING 192
SWIDTH 870 0
DWIDTH 28 0
BBX 17 26 1 0
BITMAP
180000
1C0000
0E0000
070000
038000
018000
018000
03C000
03C000
03E000
076000
066000
063000
0C3000
0C3800
1C1800
181800
181C00
3FFC00
3FFC00
300600
600600
600700
E00300
C00300
C00180
ENDCHAR
STARTCHAR Aacute
ENCODING 193
SWIDTH 870 0
DWIDTH 28 0
BBX 17 26 1 0
BITMAP
000800
001C00
007800
00E000
01C000
018000
018000
03C000
03C000
036000
066000
066000
063000
0C3000
0C3800
1C1800
181800
180C00
3FFC00
3FFC00
700600
600600
600700
E00300
C00300
C00180
ENDCHAR
STARTCHAR Acircumflex
ENCODING 194
SWIDTH 870 0
DWIDTH 28 0
BBX 17 26 1 0
BITMAP
008000
03C000
07E000
0E7800
1C1800
100000
018000
03C000
03C000
036000
066000
066000
063000
0C3000
0C1800
181800
181800
1FFC00
3FFC00
300C00
700600
600600
600300
C00300
C00300
C00180
ENDCHAR
STARTCHAR Atilde
ENCODING 195
SWIDTH 870 0
DWIDTH 28 0
BBX 17 24 1 0
BITMAP
070800
0F9800
199800
18F000
01E000
03C000
03C000
036000
066000
066000
063000
0C3000
0C3800
1C1800
181800
180C00
3FFC00
3FFC00
700600
600600
600700
E00300
C00300
C00180
ENDCHAR
STARTCHAR Adieresis
ENCODING 196
SWIDTH 870 0
DWIDTH 28 0
BBX 17 24 1 0
BITMAP
0E3800
0E3800
0E3800
000000
01C000
01C000
03C000
03E000
066000
067000
067000
0C3000
0C3800
1C3800
181800
181C00
3FFC00
3FFE00
700600
600600
600300
E00300
C00380
C00180
ENDCHAR
STARTCHAR Aring
ENCODING 197
SWIDTH 870 0
DWIDTH 28 0
BBX 17 26 1 0
BITMAP
01E000
03F000
063000
063000
07F000
03E000
01C000
01C000
03C000
036000
036000
063000
063000
0E3000
0C1800
0C1800
181800
180C00
3FFC00
3FFE00
300600
700600
600300
600300
C00380
C00180
ENDCHAR
STARTCHAR AE
ENCODING 198
SWIDTH 870 0
DWIDTH 28 0
BBX 17 19 0 0
BITMAP
07FF80
07FF80
06C000
0CC000
0CC000
0CC000
1CC000
18C000
18FC00
18FC00
38C000
3FC000
3FC000
30C000
60C000
60C000
60C000
E0FF80
C0FF80
ENDCHAR
STARTCHAR Ccedilla
ENCODING 199
SWIDTH 870 0
DWIDTH 28 0
BBX 16 27 1 -7
BITMAP
03F3
0FFB
1C1F
3807
7003
6003
6000
C000
C000
C000
C000
C000
C000
E000
6000
7003
3806
1E1E
0FF8
03E0
0080
0080
00C0
00E0
0220
03E0
01C0
ENDCHAR
STARTCHAR Egrave
ENCODING 200
SWIDTH 870 0
DWIDTH 28 0
BBX 14 26 2 0
BITMAP
3000
3800
1C00
0E00
0700
0100
0000
FFF8
FFFC
C000
C000
C000
C000
C000
C000
FF80
FF80
C000
C000
C000
C000
C000
C000
C000
FFF8
FFFC
ENDCHAR
STARTCHAR Eacute
ENCODING 201
SWIDTH 870 0
DWIDTH 28 0
BBX 13 26 2 0
BITMAP
0018
0078
00F0
01C0
0380
0300
0000
FFF8
FFF8
C000
C000
C000
C000
C000
C000
FF80
FF80
C000
C000
C000
C000
C000
C000
C000
FFF8
FFF8
ENDCHAR
STARTCHAR Ecircumflex
ENCODING 202
SWIDTH 870 0
DWIDTH 28 0
BBX 13 26 2 0
BITMAP
0300
0780
1DC0
3870
3030
0000
0000
FFF8
FFF8
C000
C000
C000
C000
C000
C000
FF80
FF80
C000
C000
C000
C000
C000
C000
C000
FFF8
FFF8
ENDCHAR
STARTCHAR Edieresis
ENCODING 203
SWIDTH 870 0
DWIDTH 28 0
BBX 13 24 2 0
BITMAP
3070
3070
3070
0000
0000
FFF8
FFF8
C000
C000
C000
C000
C000
C000
FF80
FF80
C000
C000
C000
C000
C000
C000
C000
FFF8
FFF8
ENDCHAR
STARTCHAR Igrave
ENCODING 204
SWIDTH 870 0
DWIDTH 28 0
BBX 12 26 3 0
BITMAP
6000
7000
3800
1C00
0E00
0600
0000
FFF0
FFF0
0600
0600
0600
0600
0600
0600
0600
0600
0600
0600
0600
0600
0600
0600
0600
FFF0
FFF0
ENDCHAR
STARTCHAR Iacute
ENCODING 205
SWIDTH 870 0
DWIDTH 28 0
BBX 12 26 3 0
BITMAP
0060
00E0
01C0
0380
0700
0600
0000
FFF0
FFF0
0600
0600
0600
0600
0600
0600
0600
0600
0600
0600
0600
0600
0600
0600
0600
FFF0
FFF0
ENDCHAR
STARTCHAR Icircumflex
ENCODING 206
SWIDTH 870 0
DWIDTH 28 0
BBX 12 26 3 0
BITMAP
0600
0F00
1DC0
70E0
6060
0000
0000
FFF0
FFF0
0600
0600
0600
0600
0600
0600
0600
0600
0600
0600
0600
0600
0600
0600
0600
FFF0
FFF0
ENDCHAR
STARTCHAR Idieresis
ENCODING 207
SWIDTH 870 0
DWIDTH 28 0
BBX 12 24 3 0
BITMAP
70E0
70E0
70E0
0000
0000
FFF0
FFF0
0600
0600
0600
0600
0600
0600
0600
0600
0600
0600
0600
0600
0600
0600
0600
FFF0
FFF0
ENDCHAR
STARTCHAR Eth
ENCODING 208
SWIDTH 870 0
DWIDTH 28 0
BBX 16 19 1 0
BITMAP
3FE0
3FF8
301C
300C
3006
3006
3003
3003
FFE3
FFE3
3003
3003
3003
3006
3006
300C
303C
3FF8
3FE0
ENDCHAR
STARTCHAR Ntilde
ENCODING 209
SWIDTH 870 0
DWIDTH 28 0
BBX 14 25 2 0
BITMAP
0010
0E30
1F30
33E0
31C0
C00C
E00C
F00C
F00C
F80C
DC0C
CC0C
CE0C
C60C
C30C
C38C
C18C
C1CC
C0EC
C06C
C07C
C03C
C03C
C01C
C00C
ENDCHAR
STARTCHAR Ograve
ENCODING 210
SWIDTH 870 0
DWIDTH 28 0
BBX 16 26 1 0
BITMAP
1800
1C00
0E00
0700
0380
0080
07E0
0FF0
1C38
380C
700E
6006
E006
C003
C003
C003
C003
C003
C003
E007
6006
700E
381C
1C38
0FF0
07E0
ENDCHAR
STARTCHAR Oacute
ENCODING 211
SWIDTH 870 0
DWIDTH 28 0
BBX 16 26 1 0
BITMAP
000C
003C
0078
00E0
01C0
0180
07E0
0FF0
1C38
380C
700E
6006
E006
C003
C003
C003
C003
C003
C003
E007
6006
700E
301C
1C38
0FF0
07E0
ENDCHAR
STARTCHAR Ocircumflex
ENCODING 212
SWIDTH 870 0
DWIDTH 28 0
BBX 16 26 1 0
BITMAP
0080
03C0
07E0
0E78
1C38
0000
07E0
0FF0
1C38
380C
700E
6006
E006
C003
C003
C003
C003
C003
C003
E007
6006
700E
301C
1C38
0FF0
07E0
ENDCHAR
STARTCHAR Otilde
ENCODING 213
SWIDTH 870 0
DWIDTH 28 0
BBX 16 25 1 0
BITMAP
0008
0718
0F98
19F0
18E0
07E0
0FF0
1C38
380C
700E
6006
E006
C003
C003
C003
C003
C003
C003
E007
6006
700E
301C
1C38
0FF0
07E0
ENDCHAR
STARTCHAR Odieresis
ENCODING 214
SWIDTH 870 0
DWIDTH 28 0
BBX 16 24 1 0
BITMAP
0E1C
0E1C
0E1C
0000
07E0
0FF0
1C38
380C
700E
6006
E006
C003
C003
C003
C003
C003
C003
E007
6006
700E
301C
1C38
0FF0
07E0
ENDCHAR
STARTCHAR multiply
ENCODING 215
SWIDTH 870 0
DWIDTH 28 0
BBX 11 11 4 3
BITMAP
C040
E0E0
7180
3B00
1F00
0C00
1E00
3B00
7180
E0C0
C060
ENDCHAR
STARTCHAR Oslash
ENCODING 216
SWIDTH 870 0
DWIDTH 28 0
BBX 16 23 1 -2
BITMAP
0001
03E3
0FF6
1C3E
380C
701E
603E
E037
C063
C0C3
C0C3
C183
C303
C603
4407
6C06
780E
300C
7C38
6FF0
C7E0
C000
8000
ENDCHAR
STARTCHAR Ugrave
ENCODING 217
SWIDTH 870 0
DWIDTH 28 0
BBX 14 26 2 0
BITMAP
3000
3800
1C00
0E00
0700
0300
C00C
C00C
C00C
C00C
C00C
C00C
C00C
C00C
C00C
C00C
C00C
C00C
C00C
C00C
C00C
E01C
6018
3870
1FE0
0FC0
ENDCHAR
STARTCHAR Uacute
ENCODING 218
SWIDTH 870 0
DWIDTH 28 0
BBX 14 26 2 0
BITMAP
0018
0078
00F0
01C0
0380
0300
C00C
C00C
C00C
C00C
C00C
C00C
C00C
C00C
C00C
C00C
C00C
C00C
C00C
C00C
C00C
E01C
6018
3870
1FE0
0FC0
ENDCHAR
STARTCHAR Ucircumflex
ENCODING 219
SWIDTH 870 0
DWIDTH 28 0
BBX 14 26 2 0
BITMAP
0300
0780
1DC0
3870
3030
0000
0000
C00C
C00C
C00C
C00C
C00C
C00C
C00C
C00C
C00C
C00C
C00C
C00C
C00C
C00C
E01C
6018
7878
3FF0
0FC0
ENDCHAR
STARTCHAR Udieresis
ENCODING 220
SWIDTH 870 0
DWIDTH 28 0
BBX 14 24 2 0
BITMAP
3870
3870
3870
0000
C00C
C00C
C00C
C00C
C00C
C00C
C00C
C00C
C00C
C00C
C00C
C00C
C00C
C00C
C00C
E01C
6018
3870
1FE0
0FC0
ENDCHAR
STARTCHAR Yacute
ENCODING 221
SWIDTH 870 0
DWIDTH 28 0
BBX 14 26 2 0
BITMAP
0030
0070
00E0
01C0
0380
0300
800C
C00C
E018
6038
3030
3860
18E0
0CC0
0FC0
0780
0300
0300
0300
0300
0300
0300
0300
0300
0300
0300
ENDCHAR
STARTCHAR Thorn
ENCODING 222
SWIDTH 870 0
DWIDTH 28 0
BBX 13 20 3 0
BITMAP
C000
C000
C000
C000
FF80
FFE0
C070
C030
C018
C018
C018
C018
C038
C030
F0E0
FFC0
FF00
C000
C000
C000
ENDCHAR
STARTCHAR germandbls
ENCODING 223
SWIDTH 870 0
DWIDTH 28 0
BBX 12 21 3 0
BITMAP
1E00
7F00
6180
C0C0
C0C0
C0C0
C0C0
C780
CF80
C7C0
C0E0
C060
C030
C030
C030
C030
CC30
CC70
CC60
C7C0
C380
ENDCHAR
STARTCHAR agrave
ENCODING 224
SWIDTH 870 0
DWIDTH 28 0
BBX 14 22 2 0
BITMAP
1800
1C00
0E00
0780
0180
0000
0000
07E0
3FF8
3C3C
000C
000C
000C
0FFC
3FFC
780C
E00C
C00C
C01C
E07C
7FEC
1F8C
ENDCHAR
STARTCHAR aacute
ENCODING 225
SWIDTH 870 0
DWIDTH 28 0
BBX 14 22 2 0
BITMAP
0018
0038
00F0
01C0
0180
0000
0000
07E0
3FF8
3C3C
000C
000C
000C
0FFC
3FFC
780C
E00C
C00C
C01C
E07C
7FEC
1F8C
ENDCHAR
STARTCHAR acircumflex
ENCODING 226
SWIDTH 870 0
DWIDTH 28 0
BBX 14 22 2 0
BITMAP
0300
0780
0DC0
3870
3030
0000
0000
0FE0
3E38
300C
000C
000C
0FFC
3FFC
780C
E00C
C00C
C00C
C03C
60FC
7FEC
1F8C
ENDCHAR
STARTCHAR atilde
ENCODING 227
SWIDTH 870 0
DWIDTH 28 0
BBX 14 20 2 0
BITMAP
0E10
1F30
3330
31E0
00C0
07E0
3FF8
3C3C
000C
000C
000C
0FFC
3FFC
780C
E00C
C00C
C01C
E07C
7FFC
1F8C
ENDCHAR
STARTCHAR adieresis
ENCODING 228
SWIDTH 870 0
DWIDTH 28 0
BBX 14 20 2 0
BITMAP
1C38
1C38
1C38
0000
0000
07E0
3FF8
383C
000C
000C
000C
1FFC
3FFC
780C
E00C
C00C
C01C
E0FC
7FEC
1F8C
ENDCHAR
STARTCHAR aring
ENCODING 229
SWIDTH 870 0
DWIDTH 28 0
BBX 14 23 2 0
BITMAP
01C0
03E0
0630
0630
0630
03E0
01C0
0000
07E0
3FF8
3C3C
000C
000C
000C
0FFC
3FFC
780C
E00C
C00C
C01C
E07C
7FFC
1F8C
ENDCHAR
STARTCHAR ae
ENCODING 230
SWIDTH 870 0
DWIDTH 28 0
BBX 19 15 0 0
BITMAP
0F0F00
3F9F80
31F1C0
00F0C0
0060C0
0060E0
1FE0E0
7FFFE0
F07FE0
C06000
C06000
C0F060
61F8E0
7F7FC0
1E4F00
ENDCHAR
STARTCHAR ccedilla
ENCODING 231
SWIDTH 870 0
DWIDTH 28 0
BBX 15 22 2 -7
BITMAP
07E0
1FF8
383C
700C
600C
C004
C000
C000
C000
C000
6002
700E
383C
1FF8
07E0
0080
0080
00C0
00E0
0620
07E0
03C0
ENDCHAR
STARTCHAR egrave
ENCODING 232
SWIDTH 870 0
DWIDTH 28 0
BBX 16 22 1 0
BITMAP
1800
1C00
0F00
0780
0180
0000
0000
07E0
1FF0
3C38
700C
600C
6006
C006
FFFE
FFFE
4000
6003
3007
3C0E
0FFC
03F0
ENDCHAR
STARTCHAR eacute
ENCODING 233
SWIDTH 870 0
DWIDTH 28 0
BBX 16 22 1 0
BITMAP
000C
001C
0078
00E0
00C0
0000
0000
07E0
1FF0
3C38
700C
600C
6006
C006
FFFE
FFFE
4000
6003
3007
3C0E
0FFC
03F0
ENDCHAR
STARTCHAR ecircumflex
ENCODING 234
SWIDTH 870 0
DWIDTH 28 0
BBX 16 22 1 0
BITMAP
0180
03C0
0770
1C38
1818
0000
0000
07E0
1FF0
3C38
700C
600C
6006
E006
FFFE
FFFE
4000
6000
3003
3C0F
0FFC
07F0
ENDCHAR
STARTCHAR edieresis
ENCODING 235
SWIDTH 870 0
DWIDTH 28 0
BBX 16 20 1 0
BITMAP
1C38
1C38
1C38
0000
0000
07C0
1FF0
3C38
700C
E00C
E004
C004
FFFE
FFFE
C000
6002
6007
380E
1FFC
07E0
ENDCHAR
STARTCHAR igrave
ENCODING 236
SWIDTH 870 0
DWIDTH 28 0
BBX 14 22 2 0
BITMAP
3000
3800
1C00
0E00
0700
0000
0000
0000
7F00
7F00
0300
0300
0300
0300
0300
0300
0300
0300
0300
0300
FFFC
FFFC
ENDCHAR
STARTCHAR iacute
ENCODING 237
SWIDTH 870 0
DWIDTH 28 0
BBX 14 22 2 0
BITMAP
0018
0038
00F0
01C0
0180
0000
0000
0000
7F00
7F00
0300
0300
0300
0300
0300
0300
0300
0300
0300
0300
FFFC
FFFC
ENDCHAR
STARTCHAR icircumflex
ENCODING 238
SWIDTH 870 0
DWIDTH 28 0
BBX 14 22 2 0
BITMAP
0100
0780
0FC0
1EE0
3870
3030
0000
0000
7F00
7F00
0300
0300
0300
0300
0300
0300
0300
0300
0300
0300
FFFC
FFFC
ENDCHAR
STARTCHAR idieresis
ENCODING 239
SWIDTH 870 0
DWIDTH 28 0
BBX 14 20 2 0
BITMAP
3870
3870
3870
0000
0000
0000
7F00
7F00
0300
0300
0300
0300
0300
0300
0300
0300
0300
0300
FFFC
FFFC
ENDCHAR
STARTCHAR eth
ENCODING 240
SWIDTH 870 0
DWIDTH 28 0
BBX 15 22 2 0
BITMAP
3800
3E38
07F0
07C0
1EE0
1070
0030
07F8
1FF8
383C
701C
600E
C006
C006
C006
C006
C006
600C
701C
3838
1FF0
07C0
ENDCHAR
STARTCHAR ntilde
ENCODING 241
SWIDTH 870 0
DWIDTH 28 0
BBX 12 20 3 0
BITMAP
1860
3C60
66E0
63C0
0180
CF80
FFC0
F860
E030
C030
C030
C030
C030
C030
C030
C030
C030
C030
C030
C030
ENDCHAR
STARTCHAR ograve
ENCODING 242
SWIDTH 870 0
DWIDTH 28 0
BBX 16 22 1 0
BITMAP
1C00
0E00
0700
0380
01C0
0000
0000
07E0
1FF8
3C3C
700E
6006
C003
C003
C003
C003
C003
6006
700E
381C
1FF8
07E0
ENDCHAR
STARTCHAR oacute
ENCODING 243
SWIDTH 870 0
DWIDTH 28 0
BBX 16 22 1 0
BITMAP
000C
001C
0078
00E0
00C0
0000
0000
07E0
1FF8
3C3C
700E
6006
C003
C003
C003
C003
C003
6006
700E
381C
1FF8
07E0
ENDCHAR
STARTCHAR ocircumflex
ENCODING 244
SWIDTH 870 0
DWIDTH 28 0
BBX 16 22 1 0
BITMAP
0080
01E0
0770
0E38
0C0C
0000
0000
07E0
1FF8
3C3C
700E
6006
C003
C003
C003
C003
C003
6006
700E
381C
1FF8
07E0
ENDCHAR
STARTCHAR otilde
ENCODING 245
SWIDTH 870 0
DWIDTH 28 0
BBX 16 20 1 0
BITMAP
0708
0F98
1998
18F0
0060
07E0
1FF8
3C3C
700E
6006
C003
C003
C003
C003
C003
6006
700E
381C
1FF8
07E0
ENDCHAR
STARTCHAR odieresis
ENCODING 246
SWIDTH 870 0
DWIDTH 28 0
BBX 16 20 1 0
BITMAP
0E38
0E38
0E38
0000
0000
07E0
1FF8
3C3C
700E
6006
C003
C003
C003
C003
C003
6006
700E
381C
1FF8
07E0
ENDCHAR
STARTCHAR divide
ENCODING 247
SWIDTH 870 0
DWIDTH 28 0
BBX 14 15 2 2
BITMAP
0380
0380
0380
0000
0000
0000
FFFC
FFFC
0000
0000
0000
0000
0380
0380
0380
ENDCHAR
STARTCHAR oslash
ENCODING 248
SWIDTH 870 0
DWIDTH 28 0
BBX 17 18 1 -2
BITMAP
000300
07E380
1FFE00
383C00
703E00
603600
C06300
C0C300
C18300
C30300
C60300
6E0600
7C0E00
3C1C00
7FF800
E7E000
C00000
800000
ENDCHAR
STARTCHAR ugrave
ENCODING 249
SWIDTH 870 0
DWIDTH 28 0
BBX 12 22 3 0
BITMAP
3000
3800
1C00
0F00
0700
0000
0000
C030
C030
C030
C030
C030
C030
C030
C030
C030
C030
C030
C070
E1F0
7FB0
3E30
ENDCHAR
STARTCHAR uacute
ENCODING 250
SWIDTH 870 0
DWIDTH 28 0
BBX 12 22 3 0
BITMAP
0070
00E0
01C0
0380
0700
0000
0000
C030
C030
C030
C030
C030
C030
C030
C030
C030
C030
C030
C070
E1F0
7FB0
3E30
ENDCHAR
STARTCHAR ucircumflex
ENCODING 251
SWIDTH 870 0
DWIDTH 28 0
BBX 12 22 3 0
BITMAP
0300
0780
0FC0
1CE0
3870
3030
0000
0000
C030
C030
C030
C030
C030
C030
C030
C030
C030
C030
C070
E1F0
7FB0
3E30
ENDCHAR
STARTCHAR udieresis
ENCODING 252
SWIDTH 870 0
DWIDTH 28 0
BBX 13 20 3 0
BITMAP
3070
3070
3070
0000
0000
C018
C018
C018
C018
C018
C018
C018
C018
C018
C018
C018
C078
E1F8
7FD8
1F18
ENDCHAR
STARTCHAR yacute
ENCODING 253
SWIDTH 870 0
DWIDTH 28 0
BBX 16 29 1 -7
BITMAP
000C
001C
0078
00E0
00C0
0000
0000
4001
E003
6006
3006
300E
380C
180C
0C18
0C18
0630
0630
0360
0360
01C0
01C0
0180
0180
0300
0300
0300
1E00
1C00
ENDCHAR
STARTCHAR thorn
ENCODING 254
SWIDTH 870 0
DWIDTH 28 0
BBX 15 28 2 -7
BITMAP
C000
C000
C000
C000
C000
C000
C7C0
DFF0
F838
F01C
E00C
C006
C006
C006
C006
C006
E00C
F01C
F838
DFF0
C7C0
C000
C000
C000
C000
C000
C000
C000
ENDCHAR
STARTCHAR ydieresis
ENCODING 255
SWIDTH 870 0
DWIDTH 28 0
BBX 16 27 1 -7
BITMAP
1C38
1C38
1C38
0000
0000
0000
C003
6006
6006
300C
300C
1818
1818
0C38
0C30
0630
0760
0360
03C0
01C0
0180
0180
0300
0300
0600
1E00
1C00
ENDCHAR
STARTCHAR Amacron
ENCODING 256
SWIDTH 870 0
DWIDTH 28 0
BBX 17 23 1 0
BITMAP
1FF800
1FFC00
000000
018000
03C000
03C000
036000
066000
066000
063000
0C3000
0C3800
1C1800
181800
180C00
3FFC00
3FFC00
700600
600600
600700
E00300
C00300
C00180
ENDCHAR
STARTCHAR amacron
ENCODING 257
SWIDTH 870 0
DWIDTH 28 0
BBX 14 19 2 0
BITMAP
3FF8
3FF8
0000
0000
0FE0
3FF8
383C
000C
000C
000C
0FFC
3FFC
780C
E00C
C00C
C01C
E07C
7FFC
1F8C
ENDCHAR
STARTCHAR Abreve
ENCODING 258
SWIDTH 870 0
DWIDTH 28 0
BBX 17 25 1 0
BITMAP
0C1800
0C1800
063000
07F000
03E000
018000
03C000
03C000
036000
076000
066000
063000
0E3000
0C3800
1C1800
1C1800
181C00
3FFC00
3FFC00
700600
600600
600700
E00300
C00300
C00180
ENDCHAR
STARTCHAR abreve
ENCODING 259
SWIDTH 870 0
DWIDTH 28 0
BBX 14 22 2 0
BITMAP
1008
1818
1818
0C30
07E0
03C0
0000
07E0
3FF8
3C3C
000C
000C
000C
0FFC
3FFC
780C
E00C
C00C
C01C
E07C
7FEC
1F8C
ENDCHAR
STARTCHAR Aogonek
ENCODING 260
SWIDTH 870 0
DWIDTH 28 0
BBX 17 27 0 -7
BITMAP
00C000
01E000
01E000
03E000
033000
033000
073800
061800
0E1800
0C0C00
0C0C00
1C0C00
1FFE00
1FFE00
380700
300300
700300
600380
600180
C00380
000E00
000C00
001800
001880
001980
000F80
000F00
ENDCHAR
STARTCHAR aogonek
ENCODING 261
SWIDTH 870 0
DWIDTH 28 0
BBX 14 22 2 -7
BITMAP
07E0
3FF8
3C38
000C
000C
000C
0FFC
3FFC
780C
E00C
C00C
C01C
E07C
7FFC
1FBC
0078
00E0
00C0
00C4
00CC
007C
0038
ENDCHAR
STARTCHAR Cacute
ENCODING 262
SWIDTH 870 0
DWIDTH 28 0
BBX 16 25 1 0
BITMAP
0010
0078
00E0
01C0
0300
03F3
0FFF
1C1F
3807
7003
6003
6000
C000
C000
C000
C000
C000
C000
E000
6000
7003
3807
1E0E
0FFC
03F0
ENDCHAR
STARTCHAR cacute
ENCODING 263
SWIDTH 870 0
DWIDTH 28 0
BBX 15 22 2 0
BITMAP
0018
0038
0070
00E0
01C0
0000
0000
07C0
1FF0
3838
701C
600C
C00C
C000
C000
C000
C000
6002
700E
383C
1FF8
07E0
ENDCHAR
STARTCHAR Ccircumflex
ENCODING 264
SWIDTH 870 0
DWIDTH 28 0
BBX 16 26 1 0
BITMAP
0080
03C0
07E0
0E78
1C18
0000
03F3
0FFF
1C1F
3807
7003
6003
6000
C000
C000
C000
C000
C000
C000
E000
6000
7003
3807
1E0E
0FFC
03F0
ENDCHAR
STARTCHAR ccircumflex
ENCODING 265
SWIDTH 870 0
DWIDTH 28 0
BBX 15 22 2 0
BITMAP
0100
03C0
0EE0
1C70
1818
0000
0000
07E0
1FF8
3838
700C
600C
C004
C000
C000
C000
C000
6002
700E
383C
1FF8
07E0
ENDCHAR
STARTCHAR Cdotaccent
ENCODING 266
SWIDTH 870 0
DWIDTH 28 0
BBX 16 23 1 0
BITMAP
00E0
00E0
00E0
03F3
0FFF
1C1F
3807
7003
6003
6000
C000
C000
C000
C000
C000
C000
E000
6000
7003
3806
1E1C
0FF8
03E0
ENDCHAR
STARTCHAR cdotaccent
ENCODING 267
SWIDTH 870 0
DWIDTH 28 0
BBX 15 20 2 0
BITMAP
0380
0380
0380
0000
0000
07E0
1FF8
3838
700C
600C
C004
C000
C000
C000
C000
6002
700E
383C
1FF8
07E0
ENDCHAR
STARTCHAR Ccaron
ENCODING 268
SWIDTH 870 0
DWIDTH 28 0
BBX 16 26 1 0
BITMAP
0C0C
0E1C
0778
03F0
01E0
00C0
03F3
0FFF
1C1F
3807
7003
6003
6000
C000
C000
C000
C000
C000
C000
E000
6000
7003
3807
1E0E
0FFC
03F0
ENDCHAR
STARTCHAR ccaron
ENCODING 269
SWIDTH 870 0
DWIDTH 28 0
BBX 15 21 2 0
BITMAP
1810
1C78
0EE0
07C0
0380
0000
07E0
1FF8
3838
700C
600C
C004
C000
C000
C000
C000
6002
700E
383C
1FF8
07E0
ENDCHAR
STARTCHAR Dcaron
ENCODING 270
SWIDTH 870 0
DWIDTH 28 0
BBX 15 25 2 0
BITMAP
3020
38F0
1DC0
0F80
0700
0000
FF80
FFE0
C070
C018
C00C
C00C
C006
C006
C006
C006
C006
C006
C006
C00C
C00C
C018
C078
FFE0
FF80
ENDCHAR
STARTCHAR dcaron
ENCODING 271
SWIDTH 870 0
DWIDTH 28 0
BBX 18 21 0 0
BITMAP
003000
003380
0037C0
0037C0
0033C0
0030C0
0F3180
3FF180
70F700
607400
E07000
C03000
C03000
C03000
C03000
C03000
E07000
607000
70F000
3FB000
0F3000
ENDCHAR
STARTCHAR Dcroat
ENCODING 272
SWIDTH 870 0
DWIDTH 28 0
BBX 16 19 1 0
BITMAP
3FE0
3FF8
301C
300C
3006
3006
3003
3003
FFE3
FFE3
3003
3003
3003
3006
3006
300C
303C
3FF8
3FE0
ENDCHAR
STARTCHAR dcroat
ENCODING 273
SWIDTH 870 0
DWIDTH 28 0
BBX 17 21 1 0
BITMAP
000600
000600
000600
03FF80
03FF80
000600
07C600
1FF600
383E00
701E00
600E00
C00600
C00600
C00600
C00600
C00600
600E00
701E00
383E00
1FF600
07C600
ENDCHAR
STARTCHAR Emacron
ENCODING 274
SWIDTH 870 0
DWIDTH 28 0
BBX 13 23 2 0
BITMAP
3FF0
7FF0
0000
0000
FFF8
FFF8
C000
C000
C000
C000
C000
C000
FF80
FF80
C000
C000
C000
C000
C000
C000
C000
FFF8
FFF8
ENDCHAR
STARTCHAR emacron
ENCODING 275
SWIDTH 870 0
DWIDTH 28 0
BBX 16 19 1 0
BITMAP
1FF8
1FF8
0000
0000
07E0
1FF0
3C38
700C
600C
6006
E006
FFFE
FFFE
4000
6003
3007
3C0E
0FFC
07F0
ENDCHAR
STARTCHAR Ebreve
ENCODING 276
SWIDTH 870 0
DWIDTH 28 0
BBX 13 25 2 0
BITMAP
3030
3030
1860
1FE0
0780
0000
FFF8
FFF8
C000
C000
C000
C000
C000
C000
FF80
FF80
C000
C000
C000
C000
C000
C000
C000
FFF8
FFF8
ENDCHAR
STARTCHAR ebreve
ENCODING 277
SWIDTH 870 0
DWIDTH 28 0
BBX 16 22 1 0
BITMAP
1008
1818
1818
0C30
07E0
03C0
0000
07C0
1FF0
3C38
700C
600C
E004
E004
FFFE
FFFE
C000
6002
6007
380E
1FFC
07E0
ENDCHAR
STARTCHAR Edotaccent
ENCODING 278
SWIDTH 870 0
DWIDTH 28 0
BBX 14 23 2 0
BITMAP
0380
0380
0380
0000
FFFC
FFFC
C000
C000
C000
C000
C000
C000
FF80
FF80
C000
C000
C000
C000
C000
C000
C000
FFFC
FFFC
ENDCHAR
STARTCHAR edotaccent
ENCODING 279
SWIDTH 870 0
DWIDTH 28 0
BBX 16 20 1 0
BITMAP
0380
0380
0380
0000
0000
07E0
1FF0
3C38
700C
600C
6006
E006
FFFE
FFFE
4000
6003
3007
3C0E
0FFC
07F0
ENDCHAR
STARTCHAR Eogonek
ENCODING 280
SWIDTH 870 0
DWIDTH 28 0
BBX 14 26 2 -7
BITMAP
FFFC
FFFC
C000
C000
C000
C000
C000
C000
FF80
FF80
C000
C000
C000
C000
C000
C000
C000
FFFC
FFFC
01C0
0180
0180
018C
01CC
00F8
0070
ENDCHAR
STARTCHAR eogonek
ENCODING 281
SWIDTH 870 0
DWIDTH 28 0
BBX 15 22 2 -7
BITMAP
0FC0
1FF0
7878
6018
C01C
C00C
800C
FFFC
FFFC
C000
C002
6006
381C
1FF8
07F0
01C0
0180
0180
0184
01CC
00F8
0070
ENDCHAR
STARTCHAR Ecaron
ENCODING 282
SWIDTH 870 0
DWIDTH 28 0
BBX 13 25 2 0
BITMAP
3030
3870
1FE0
0F80
0300
0000
FFF8
FFF8
C000
C000
C000
C000
C000
C000
FF80
FF80
C000
C000
C000
C000
C000
C000
C000
FFF8
FFF8
ENDCHAR
STARTCHAR ecaron
ENCODING 283
SWIDTH 870 0
DWIDTH 28 0
BBX 16 21 1 0
BITMAP
1818
1C38
0F70
03C0
0180
0000
07E0
1FF0
3C38
700C
600C
6006
E006
FFFE
FFFE
4000
6003
3007
3C0E
0FFC
07F0
ENDCHAR
STARTCHAR Gcircumflex
ENCODING 284
SWIDTH 870 0
DWIDTH 28 0
BBX 16 26 1 0
BITMAP
0100
03C0
07E0
0E70
1838
0000
07E6
0FFE
1C3E
300E
7006
6006
6006
C000
C000
C000
C000
C07F
C00F
E003
6002
7006
380C
1C1C
0FF8
03E0
ENDCHAR
STARTCHAR gcircumflex
ENCODING 285
SWIDTH 870 0
DWIDTH 28 0
BBX 16 27 1 -5
BITMAP
0080
01E0
0770
0E38
0C0C
0000
0000
03DC
0FFC
0C30
1C18
1818
1818
1818
0C30
07E0
0380
07E0
1FFC
781E
E007
C003
C003
E007
781E
3FFC
07F0
ENDCHAR
STARTCHAR Gbreve
ENCODING 286
SWIDTH 870 0
DWIDTH 28 0
BBX 16 25 1 0
BITMAP
0C18
0C18
0630
07F0
03E0
07E6
0FFE
1C1E
300E
7006
6006
6000
C000
C000
C000
C000
C07F
C07F
E003
6002
7006
380C
1C1C
0FF8
03E0
ENDCHAR
STARTCHAR gbreve
ENCODING 287
SWIDTH 870 0
DWIDTH 28 0
BBX 16 27 1 -5
BITMAP
1008
1818
0818
0C30
07E0
03C0
0000
03DC
0FFC
0C30
1C18
1818
1818
1818
0C30
0FF0
03E0
0780
0FF0
3FFC
701E
E003
C003
E007
781E
3FFC
0FF0
ENDCHAR
STARTCHAR Gdotaccent
ENCODING 288
SWIDTH 870 0
DWIDTH 28 0
BBX 16 23 1 0
BITMAP
01C0
01C0
01C0
07E6
0FFE
1C1E
300E
7006
6006
6000
C000
C000
C000
C000
C07F
C07F
E003
6002
7006
380C
1C1C
0FF8
03E0
ENDCHAR
STARTCHAR gdotaccent
ENCODING 289
SWIDTH 870 0
DWIDTH 28 0
BBX 16 25 1 -5
BITMAP
01C0
01C0
01C0
0000
0000
03DC
0FFC
0C30
1C18
1818
1818
1818
0C30
0FF0
03E0
0780
0FF0
3FFC
701E
E003
C003
E007
781E
3FFC
0FF0
ENDCHAR
STARTCHAR uni0122
ENCODING 290
SWIDTH 870 0
DWIDTH 28 0
BBX 16 27 1 -7
BITMAP
07E6
0FFE
1C1E
300E
7006
6006
6000
C000
C000
C000
C000
C07F
C07F
E003
6002
7006
380C
1C1C
0FF8
03E0
0000
0380
03C0
03C0
00C0
0180
0300
ENDCHAR
STARTCHAR uni0123
ENCODING 291
SWIDTH 870 0
DWIDTH 28 0
BBX 16 28 1 -5
BITMAP
0080
01C0
0300
0300
03C0
03C0
01C0
0000
03DC
0FFC
0C30
1C18
1818
1818
1818
0C30
0FF0
03E0
0780
0FF0
3FFC
701E
E003
C003
E007
781E
3FFC
0FF0
ENDCHAR
STARTCHAR Hcircumflex
ENCODING 292
SWIDTH 870 0
DWIDTH 28 0
BBX 12 26 3 0
BITMAP
0200
0700
1F80
3DC0
78E0
2060
0000
C030
C030
C030
C030
C030
C030
C030
C030
FFF0
FFF0
C030
C030
C030
C030
C030
C030
C030
C030
C030
ENDCHAR
STARTCHAR hcircumflex
ENCODING 293
SWIDTH 870 0
DWIDTH 28 0
BBX 15 26 2 0
BITMAP
0C00
1E00
3F00
7380
E1C0
1800
1800
1800
1800
1800
1800
19F0
1FFC
1E1C
1C0E
1806
1806
1806
1806
1806
1806
1806
1806
1806
1806
1806
ENDCHAR
STARTCHAR Hbar
ENCODING 294
SWIDTH 870 0
DWIDTH 28 0
BBX 14 20 2 0
BITMAP
6018
6018
6018
6018
FFFC
FFFC
6018
6018
6018
7FF8
7FF8
6018
6018
6018
6018
6018
6018
6018
6018
6018
ENDCHAR
STARTCHAR hbar
ENCODING 295
SWIDTH 870 0
DWIDTH 28 0
BBX 15 21 2 0
BITMAP
1800
1800
1800
FFE0
FFE0
1800
19F0
1BFC
1E1C
1C06
1806
1806
1806
1806
1806
1806
1806
1806
1806
1806
1806
ENDCHAR
STARTCHAR Itilde
ENCODING 296
SWIDTH 870 0
DWIDTH 28 0
BBX 12 24 3 0
BITMAP
1C20
3E60
6660
63C0
0180
FFF0
FFF0
0600
0600
0600
0600
0600
0600
0600
0600
0600
0600
0600
0600
0600
0600
0600
FFF0
FFF0
ENDCHAR
STARTCHAR itilde
ENCODING 297
SWIDTH 870 0
DWIDTH 28 0
BBX 14 20 2 0
BITMAP
1C00
3C60
6660
43C0
0180
0000
7F00
7F00
0300
0300
0300
0300
0300
0300
0300
0300
0300
0300
FFFC
FFFC
ENDCHAR
STARTCHAR Imacron
ENCODING 298
SWIDTH 870 0
DWIDTH 28 0
BBX 12 23 3 0
BITMAP
7FE0
7FF0
0000
0000
FFF0
FFF0
0600
0600
0600
0600
0600
0600
0600
0600
0600
0600
0600
0600
0600
0600
0600
FFF0
FFF0
ENDCHAR
STARTCHAR imacron
ENCODING 299
SWIDTH 870 0
DWIDTH 28 0
BBX 14 19 2 0
BITMAP
7FF0
7FF0
0000
0000
0000
7F00
7F00
0300
0300
0300
0300
0300
0300
0300
0300
0300
0300
FFFC
FFFC
ENDCHAR
STARTCHAR Ibreve
ENCODING 300
SWIDTH 870 0
DWIDTH 28 0
BBX 12 25 3 0
BITMAP
6060
6060
30C0
3FC0
0F00
0000
FFF0
FFF0
0600
0600
0600
0600
0600
0600
0600
0600
0600
0600
0600
0600
0600
0600
0600
FFF0
FFF0
ENDCHAR
STARTCHAR ibreve
ENCODING 301
SWIDTH 870 0
DWIDTH 28 0
BBX 14 22 2 0
BITMAP
2010
3030
3030
1860
0FC0
0780
0000
0000
7F00
7F00
0300
0300
0300
0300
0300
0300
0300
0300
0300
0300
FFFC
FFFC
ENDCHAR
STARTCHAR Iogonek
ENCODING 302
SWIDTH 870 0
DWIDTH 28 0
BBX 12 26 3 -7
BITMAP
FFF0
FFF0
0600
0600
0600
0600
0600
0600
0600
0600
0600
0600
0600
0600
0600
0600
0600
FFF0
FFF0
0300
0600
0600
0610
0730
03F0
01C0
ENDCHAR
STARTCHAR iogonek
ENCODING 303
SWIDTH 870 0
DWIDTH 28 0
BBX 13 27 2 -7
BITMAP
0700
0700
0700
0000
0000
0000
7F00
7F00
0300
0300
0300
0300
0300
0300
0300
0300
0300
0300
FFF8
FFF8
0180
0300
0300
0308
0398
01F8
00E0
ENDCHAR
STARTCHAR Idotaccent
ENCODING 304
SWIDTH 870 0
DWIDTH 28 0
BBX 12 23 3 0
BITMAP
0700
0700
0700
0000
FFF0
FFF0
0600
0600
0600
0600
0600
0600
0600
0600
0600
0600
0600
0600
0600
0600
0600
FFF0
FFF0
ENDCHAR
STARTCHAR dotlessi
ENCODING 305
SWIDTH 870 0
DWIDTH 28 0
BBX 14 14 2 0
BITMAP
7F00
7F00
0300
0300
0300
0300
0300
0300
0300
0300
0300
0300
FFFC
FFFC
ENDCHAR
STARTCHAR IJ
ENCODING 306
SWIDTH 870 0
DWIDTH 28 0
BBX 13 19 3 0
BITMAP
C3F8
C3F8
C018
C018
C018
C018
C018
C018
0018
0018
0018
C018
C018
C018
C018
E030
7070
3FE0
1F80
ENDCHAR
STARTCHAR ij
ENCODING 307
SWIDTH 870 0
DWIDTH 28 0
BBX 16 27 1 -7
BITMAP
0E07
0E07
0E07
0000
0000
0000
7E7E
7E7E
0606
0606
0606
0606
0606
0606
0606
0606
0606
0606
FFFE
FFFE
0006
0006
0006
000E
001C
01F8
01F0
ENDCHAR
STARTCHAR Jcircumflex
ENCODING 308
SWIDTH 870 0
DWIDTH 28 0
BBX 14 26 2 0
BITMAP
0040
01E0
03B8
071C
0C0C
0000
0000
03FC
03FC
000C
000C
000C
000C
000C
000C
000C
000C
C00C
C00C
C00C
C00C
C00C
E018
7078
3FF0
0FC0
ENDCHAR
STARTCHAR jcircumflex
ENCODING 309
SWIDTH 870 0
DWIDTH 28 0
BBX 15 29 2 -7
BITMAP
0040
00E0
01F0
03BC
071C
0606
0000
0000
07E0
07E0
0060
0060
0060
0060
0060
0060
0060
0060
0060
0060
0060
0060
0060
0060
0060
00E0
01C0
FF80
FF00
ENDCHAR
STARTCHAR uni0136
ENCODING 310
SWIDTH 870 0
DWIDTH 28 0
BBX 15 27 2 -7
BITMAP
C01C
C03C
C070
C0E0
C1C0
C380
C700
CE00
DC00
FE00
F700
E180
C1C0
C0C0
C060
C060
C060
C030
C03C
C01E
0E00
0F00
0F00
0300
0200
0600
0C00
ENDCHAR
STARTCHAR uni0137
ENCODING 311
SWIDTH 870 0
DWIDTH 28 0
BBX 13 28 3 -7
BITMAP
C000
C000
C000
C000
C000
C000
C0E0
C1E0
C380
C700
CE00
DC00
F800
FC00
CE00
C600
C300
C180
C0C0
C078
C038
1C00
1E00
1E00
0600
0400
0C00
1800
ENDCHAR
STARTCHAR kgreenlandic
ENCODING 312
SWIDTH 870 0
DWIDTH 28 0
BBX 13 15 3 0
BITMAP
C0E0
C1E0
C380
C700
CE00
DC00
F800
FC00
CE00
C700
C380
C180
C0C0
C078
C038
ENDCHAR
STARTCHAR Lacute
ENCODING 313
SWIDTH 870 0
DWIDTH 28 0
BBX 13 25 3 0
BITMAP
0600
0E00
1C00
3800
7000
C000
C000
C000
C000
C000
C000
C000
C000
C000
C000
C000
C000
C000
C000
C000
C000
C000
C000
FFF8
FFF8
ENDCHAR
STARTCHAR lacute
ENCODING 314
SWIDTH 870 0
DWIDTH 28 0
BBX 14 26 2 0
BITMAP
0030
0070
00E0
0380
0300
7F00
7F00
0300
0300
0300
0300
0300
0300
0300
0300
0300
0300
0300
0300
0300
0300
0300
0300
0300
FFFC
FFFC
ENDCHAR
STARTCHAR uni013B
ENCODING 315
SWIDTH 870 0
DWIDTH 28 0
BBX 13 27 3 -7
BITMAP
C000
C000
C000
C000
C000
C000
C000
C000
C000
C000
C000
C000
C000
C000
C000
C000
C000
C000
FFF8
FFF8
0000
1C00
1E00
1E00
0600
0C00
1800
ENDCHAR
STARTCHAR uni013C
ENCODING 316
SWIDTH 870 0
DWIDTH 28 0
BBX 14 28 2 -7
BITMAP
7F00
7F00
0300
0300
0300
0300
0300
0300
0300
0300
0300
0300
0300
0300
0300
0300
0300
0300
0300
FFFC
FFFC
0000
0E00
0F00
0F00
0300
0600
0C00
ENDCHAR
STARTCHAR Lcaron
ENCODING 317
SWIDTH 870 0
DWIDTH 28 0
BBX 13 20 3 0
BITMAP
C0E0
C1F0
C1F0
C0F0
C030
C060
C060
C1C0
C100
C000
C000
C000
C000
C000
C000
C000
C000
C000
FFF8
FFF8
ENDCHAR
STARTCHAR lcaron
ENCODING 318
SWIDTH 870 0
DWIDTH 28 0
BBX 14 21 2 0
BITMAP
7F00
7F38
037C
037C
033C
030C
0308
0318
0370
0340
0300
0300
0300
0300
0300
0300
0300
0300
0300
FFFC
FFFC
ENDCHAR
STARTCHAR Ldot
ENCODING 319
SWIDTH 870 0
DWIDTH 28 0
BBX 16 20 1 0
BITMAP
C000
C000
C000
C000
C000
C000
C00E
C00F
C00F
C006
C000
C000
C000
C000
C000
C000
C000
C000
FFF8
FFF8
ENDCHAR
STARTCHAR ldot
ENCODING 320
SWIDTH 870 0
DWIDTH 28 0
BBX 17 21 1 0
BITMAP
7F0000
7F0000
030000
030000
030000
030000
030000
030700
030780
030780
030300
030000
030000
030000
030000
030000
030000
030000
030000
FFFC00
FFFC00
ENDCHAR
STARTCHAR Lslash
ENCODING 321
SWIDTH 870 0
DWIDTH 28 0
BBX 16 20 2 0
BITMAP
1800
1800
1800
1800
1800
1840
18E0
1BC0
1F00
3E00
F800
F800
1800
1800
1800
1800
1800
1800
1FFF
1FFF
ENDCHAR
STARTCHAR lslash
ENCODING 322
SWIDTH 870 0
DWIDTH 28 0
BBX 14 21 2 0
BITMAP
7F00
7F00
0300
0300
0300
0300
0360
03E0
0780
1F00
1B00
0300
0300
0300
0300
0300
0300
0300
0300
FFFC
FFFC
ENDCHAR
STARTCHAR Nacute
ENCODING 323
SWIDTH 870 0
DWIDTH 28 0
BBX 14 25 2 0
BITMAP
0060
00E0
01C0
0380
0600
C40C
E00C
F00C
F00C
F80C
D80C
CC0C
CE0C
C60C
C70C
C38C
C18C
C1CC
C0EC
C06C
C07C
C03C
C03C
C01C
C00C
ENDCHAR
STARTCHAR nacute
ENCODING 324
SWIDTH 870 0
DWIDTH 28 0
BBX 12 22 3 0
BITMAP
0070
00E0
01C0
0380
0700
0000
0000
CF80
DFC0
F860
E030
C030
C030
C030
C030
C030
C030
C030
C030
C030
C030
C030
ENDCHAR
STARTCHAR uni0145
ENCODING 325
SWIDTH 870 0
DWIDTH 28 0
BBX 14 27 2 -7
BITMAP
C00C
E00C
F00C
F00C
F80C
D80C
CC0C
CE0C
C60C
C70C
C38C
C18C
C1CC
C0EC
C06C
C07C
C03C
C03C
C01C
C00C
0700
0780
0780
0180
0100
0300
0600
ENDCHAR
STARTCHAR uni0146
ENCODING 326
SWIDTH 870 0
DWIDTH 28 0
BBX 12 22 3 -7
BITMAP
CF80
FFC0
F860
E030
C030
C030
C030
C030
C030
C030
C030
C030
C030
C030
C030
0E00
0F00
0F00
0300
0200
0600
0C00
ENDCHAR
STARTCHAR Ncaron
ENCODING 327
SWIDTH 870 0
DWIDTH 28 0
BBX 14 25 2 0
BITMAP
3030
3870
1FE0
0F80
0300
C00C
E00C
F00C
F00C
F80C
D80C
DC0C
CE0C
C60C
C70C
C38C
C18C
C1CC
C0CC
C0EC
C07C
C03C
C03C
C01C
C00C
ENDCHAR
STARTCHAR ncaron
ENCODING 328
SWIDTH 870 0
DWIDTH 28 0
BBX 12 21 3 0
BITMAP
6040
71E0
3B80
1F00
0600
0000
CF80
DFC0
F860
E030
C030
C030
C030
C030
C030
C030
C030
C030
C030
C030
C030
ENDCHAR
STARTCHAR napostrophe
ENCODING 329
SWIDTH 870 0
DWIDTH 28 0
BBX 15 20 2 0
BITMAP
7000
F800
F800
7800
1800
1678
37FC
E78C
8706
0606
0606
0606
0606
0606
0606
0606
0606
0606
0606
0606
ENDCHAR
STARTCHAR Eng
ENCODING 330
SWIDTH 870 0
DWIDTH 28 0
BBX 14 27 2 -7
BITMAP
C00C
E00C
F00C
F00C
F80C
DC0C
CC0C
CE0C
C60C
C70C
C38C
C18C
C1CC
C0EC
C0EC
C07C
C03C
C03C
C01C
C01C
000C
000C
000C
001C
0038
03F0
03E0
ENDCHAR
STARTCHAR eng
ENCODING 331
SWIDTH 870 0
DWIDTH 28 0
BBX 12 22 3 -7
BITMAP
CF80
FFC0
F8E0
E030
C030
C030
C030
C030
C030
C030
C030
C030
C030
C030
C030
0030
0030
0030
0070
00E0
0FC0
0F80
ENDCHAR
STARTCHAR Omacron
ENCODING 332
SWIDTH 870 0
DWIDTH 28 0
BBX 16 23 1 0
BITMAP
1FFC
1FFC
0000
07E0
0FF0
1C38
380C
700E
6006
E006
C003
C003
C003
C003
C003
C003
E007
6006
700E
301C
1C38
0FF0
07E0
ENDCHAR
STARTCHAR omacron
ENCODING 333
SWIDTH 870 0
DWIDTH 28 0
BBX 16 19 1 0
BITMAP
1FFC
1FFC
0000
0000
07E0
1FF8
3C3C
700E
6006
C003
C003
C003
C003
C003
6006
700E
381C
1FF8
07E0
ENDCHAR
STARTCHAR Obreve
ENCODING 334
SWIDTH 870 0
DWIDTH 28 0
BBX 16 25 1 0
BITMAP
0C0C
0C0C
0618
07F8
01E0
07E0
0FF0
1C38
380C
700E
6006
E006
C003
C003
C003
C003
C003
C003
E007
6006
700E
301C
1C38
0FF0
07E0
ENDCHAR
STARTCHAR obreve
ENCODING 335
SWIDTH 870 0
DWIDTH 28 0
BBX 16 22 1 0
BITMAP
0808
0C18
0C18
0630
07F0
01C0
0000
07E0
1FF8
3C3C
700E
6006
C003
C003
C003
C003
C003
6006
700E
381C
1FF8
07E0
ENDCHAR
STARTCHAR Ohungarumlaut
ENCODING 336
SWIDTH 870 0
DWIDTH 28 0
BBX 16 25 1 0
BITMAP
0066
00EE
01DC
03B8
0770
07E0
0FF0
1C38
380C
700E
6006
E006
C003
C003
C003
C003
C003
C003
E007
6006
700E
301C
1C38
0FF0
07E0
ENDCHAR
STARTCHAR ohungarumlaut
ENCODING 337
SWIDTH 870 0
DWIDTH 28 0
BBX 16 22 1 0
BITMAP
0066
00EE
01DC
03B8
0770
0660
0000
07E0
1FF8
3C3C
700E
6006
C003
C003
C003
C003
C003
6006
700E
381C
1FF8
07E0
ENDCHAR
STARTCHAR OE
ENCODING 338
SWIDTH 870 0
DWIDTH 28 0
BBX 19 19 0 0
BITMAP
03FFE0
0FFFE0
1C3000
303000
703000
603000
C03000
C03000
C03F00
C03F00
C03000
C03000
C03000
603000
603000
303000
1C3000
0FFFE0
03FFE0
ENDCHAR
STARTCHAR oe
ENCODING 339
SWIDTH 870 0
DWIDTH 28 0
BBX 18 15 0 0
BITMAP
1E1E00
3F3F00
73F380
61E180
C0E1C0
C0C0C0
C0C0C0
C0FFC0
C0FFC0
C0C000
C0C000
61E0C0
73F1C0
3F3F80
1E1E00
ENDCHAR
STARTCHAR Racute
ENCODING 340
SWIDTH 870 0
DWIDTH 28 0
BBX 16 25 1 0
BITMAP
0060
00E0
01C0
0380
0700
0600
FF80
FFE0
C070
C038
C018
C018
C018
C038
C0F0
DFC0
FF80
C1C0
C0E0
C070
C038
C018
C01C
C00F
C007
ENDCHAR
STARTCHAR racute
ENCODING 341
SWIDTH 870 0
DWIDTH 28 0
BBX 12 22 3 0
BITMAP
0060
00E0
03C0
0700
0600
0000
0000
C3C0
CFE0
DC70
F800
F000
E000
C000
C000
C000
C000
C000
C000
C000
C000
C000
ENDCHAR
STARTCHAR uni0156
ENCODING 342
SWIDTH 870 0
DWIDTH 28 0
BBX 16 26 1 -7
BITMAP
FF80
FFE0
C070
C038
C018
C018
C018
C038
C0F0
DFC0
DF80
C1C0
C0E0
C070
C030
C018
C01C
C00F
C007
0700
0780
0780
0180
0100
0300
0600
ENDCHAR
STARTCHAR uni0157
ENCODING 343
SWIDTH 870 0
DWIDTH 28 0
BBX 11 22 4 -7
BITMAP
C3C0
CFE0
DC60
F800
E000
C000
C000
C000
C000
C000
C000
C000
C000
C000
C000
C000
E000
E000
2000
6000
C000
8000
ENDCHAR
STARTCHAR Rcaron
ENCODING 344
SWIDTH 870 0
DWIDTH 28 0
BBX 16 25 1 0
BITMAP
3030
3870
1EE0
0780
0300
0000
FF80
FFE0
C070
C038
C018
C018
C018
C038
C0F0
DFC0
FF80
C1C0
C0E0
C070
C038
C018
C01C
C00F
C007
ENDCHAR
STARTCHAR rcaron
ENCODING 345
SWIDTH 870 0
DWIDTH 28 0
BBX 12 21 3 0
BITMAP
6040
71E0
3B80
1F00
0600
0000
C3C0
CFE0
DC70
F800
F000
E000
C000
C000
C000
C000
C000
C000
C000
C000
C000
ENDCHAR
STARTCHAR Sacute
ENCODING 346
SWIDTH 870 0
DWIDTH 28 0
BBX 14 25 2 0
BITMAP
0060
00E0
01C0
0380
0700
0F80
3FE0
7070
E030
C018
C018
C000
6000
7C00
1FC0
03F0
0038
000C
C00C
C00C
C00C
601C
7038
3FF0
0FC0
ENDCHAR
STARTCHAR sacute
ENCODING 347
SWIDTH 870 0
DWIDTH 28 0
BBX 13 22 3 0
BITMAP
0030
00F0
01C0
0380
0700
0000
0000
0F80
3FE0
7070
6030
6030
7000
3FC0
07F0
0030
C018
C018
C018
7070
3FF0
1FC0
ENDCHAR
STARTCHAR Scircumflex
ENCODING 348
SWIDTH 870 0
DWIDTH 28 0
BBX 14 26 2 0
BITMAP
0300
0780
0FC0
1CE0
3870
0000
0F80
3FE0
7070
E030
C018
C018
C000
6000
7C00
1FC0
03F0
0038
000C
C00C
C00C
C00C
E01C
7838
3FF0
0FC0
ENDCHAR
STARTCHAR scircumflex
ENCODING 349
SWIDTH 870 0
DWIDTH 28 0
BBX 13 22 3 0
BITMAP
0600
0F00
1DC0
70E0
6060
0000
0000
0FC0
3FF0
7838
6018
6018
7000
3FC0
07F0
0030
0018
C018
C018
E070
7FF0
1FC0
ENDCHAR
STARTCHAR Scedilla
ENCODING 350
SWIDTH 870 0
DWIDTH 28 0
BBX 14 27 2 -7
BITMAP
0F80
3FE0
7070
E030
C018
C018
C000
6000
7C00
1FC0
03F0
0038
000C
C00C
C00C
C00C
601C
7038
1FF0
0FC0
0100
0100
0180
01C0
04C0
07C0
0380
ENDCHAR
STARTCHAR scedilla
ENCODING 351
SWIDTH 870 0
DWIDTH 28 0
BBX 13 22 3 -7
BITMAP
0FC0
3FF0
7838
6018
6018
7000
3FC0
07F0
0030
C018
C018
C018
7070
3FF0
1FC0
0600
0600
0700
0780
1980
1F80
0F00
ENDCHAR
STARTCHAR Scaron
ENCODING 352
SWIDTH 870 0
DWIDTH 28 0
BBX 14 25 2 0
BITMAP
3030
3C70
1EE0
07C0
0300
0F80
3FE0
7070
E030
C018
C018
C000
6000
7C00
1FC0
03F0
0038
000C
C00C
C00C
C00C
601C
7038
3FF0
0FC0
ENDCHAR
STARTCHAR scaron
ENCODING 353
SWIDTH 870 0
DWIDTH 28 0
BBX 13 21 3 0
BITMAP
6060
70E0
3DC0
0F00
0600
0000
0FC0
3FF0
7838
6018
6018
7000
3FC0
07F0
0030
C018
C018
C018
7070
3FF0
1FC0
ENDCHAR
STARTCHAR uni0162
ENCODING 354
SWIDTH 870 0
DWIDTH 28 0
BBX 16 26 1 -7
BITMAP
FFFF
FFFF
0180
0180
0180
0180
0180
0180
0180
0180
0180
0180
0180
0180
0180
0180
0180
0180
0180
0180
0180
0180
01C0
0660
07C0
03C0
ENDCHAR
STARTCHAR uni0163
ENCODING 355
SWIDTH 870 0
DWIDTH 28 0
BBX 10 26 4 -7
BITMAP
1800
1800
1800
1800
1800
FFC0
FFC0
1800
1800
1800
1800
1800
1800
1800
1800
1800
1C00
0FC0
0FC0
0C00
0C00
0E00
0E00
2200
3E00
1C00
ENDCHAR
STARTCHAR Tcaron
ENCODING 356
SWIDTH 870 0
DWIDTH 28 0
BBX 16 25 1 0
BITMAP
0C08
0E3C
0770
03E0
01C0
0000
FFFF
FFFF
0180
0180
0180
0180
0180
0180
0180
0180
0180
0180
0180
0180
0180
0180
0180
0180
0180
ENDCHAR
STARTCHAR tcaron
ENCODING 357
SWIDTH 870 0
DWIDTH 28 0
BBX 16 20 1 0
BITMAP
000E
181F
181F
181F
1803
1802
FFE6
FFFC
1810
1800
1800
1800
1800
1800
1800
1800
1800
1C00
0FE0
03E0
ENDCHAR
STARTCHAR Tbar
ENCODING 358
SWIDTH 870 0
DWIDTH 28 0
BBX 16 19 1 0
BITMAP
FFFF
FFFF
0180
0180
0180
0180
0180
0180
0180
1FF8
1FF8
0180
0180
0180
0180
0180
0180
0180
0180
ENDCHAR
STARTCHAR tbar
ENCODING 359
SWIDTH 870 0
DWIDTH 28 0
BBX 10 19 4 0
BITMAP
1800
1800
1800
1800
1800
FFC0
FFC0
1800
1800
1800
FFC0
FFC0
1800
1800
1800
1800
1C00
0FC0
07C0
ENDCHAR
STARTCHAR Utilde
ENCODING 360
SWIDTH 870 0
DWIDTH 28 0
BBX 14 24 2 0
BITMAP
0E10
1F30
3330
31E0
00C0
C00C
C00C
C00C
C00C
C00C
C00C
C00C
C00C
C00C
C00C
C00C
C00C
C00C
C00C
E01C
6018
7878
3FF0
0FC0
ENDCHAR
STARTCHAR utilde
ENCODING 361
SWIDTH 870 0
DWIDTH 28 0
BBX 12 20 3 0
BITMAP
1860
3C60
66E0
63C0
0180
C030
C030
C030
C030
C030
C030
C030
C030
C030
C030
C030
C070
E1F0
7FF0
3F30
ENDCHAR
STARTCHAR Umacron
ENCODING 362
SWIDTH 870 0
DWIDTH 28 0
BBX 14 23 2 0
BITMAP
3FF0
3FF0
0000
C00C
C00C
C00C
C00C
C00C
C00C
C00C
C00C
C00C
C00C
C00C
C00C
C00C
C00C
C00C
E01C
6018
3870
1FE0
0FC0
ENDCHAR
STARTCHAR umacron
ENCODING 363
SWIDTH 870 0
DWIDTH 28 0
BBX 12 19 3 0
BITMAP
7FF0
7FF0
0000
0000
C030
C030
C030
C030
C030
C030
C030
C030
C030
C030
C030
C070
E1F0
7FF0
3F30
ENDCHAR
STARTCHAR Ubreve
ENCODING 364
SWIDTH 870 0
DWIDTH 28 0
BBX 14 25 2 0
BITMAP
3030
3030
1860
1FE0
0780
C00C
C00C
C00C
C00C
C00C
C00C
C00C
C00C
C00C
C00C
C00C
C00C
C00C
C00C
C00C
E01C
6018
3870
1FE0
0FC0
ENDCHAR
STARTCHAR ubreve
ENCODING 365
SWIDTH 870 0
DWIDTH 28 0
BBX 13 22 3 0
BITMAP
2010
3030
3030
1860
0FC0
0780
0000
C018
C018
C018
C018
C018
C018
C018
C018
C018
C018
C018
C078
E0F8
7FD8
1F18
ENDCHAR
STARTCHAR Uring
ENCODING 366
SWIDTH 870 0
DWIDTH 28 0
BBX 14 26 2 0
BITMAP
03C0
0FE0
0C60
0C60
0FE0
07C0
C00C
C00C
C00C
C00C
C00C
C00C
C00C
C00C
C00C
C00C
C00C
C00C
C00C
C00C
C00C
E01C
6018
3870
1FE0
0FC0
ENDCHAR
STARTCHAR uring
ENCODING 367
SWIDTH 870 0
DWIDTH 28 0
BBX 12 23 3 0
BITMAP
0700
0F00
1980
1980
1980
0F00
0F00
0000
C030
C030
C030
C030
C030
C030
C030
C030
C030
C030
C030
C070
E1F0
7FF0
3F30
ENDCHAR
STARTCHAR Uhungarumlaut
ENCODING 368
SWIDTH 870 0
DWIDTH 28 0
BBX 14 25 2 0
BITMAP
008C
01DC
07B8
0F70
1CE0
0880
C00C
C00C
C00C
C00C
C00C
C00C
C00C
C00C
C00C
C00C
C00C
C00C
C00C
C00C
E01C
6018
7878
3FF0
0FC0
ENDCHAR
STARTCHAR uhungarumlaut
ENCODING 369
SWIDTH 870 0
DWIDTH 28 0
BBX 14 22 2 0
BITMAP
008C
01DC
07B8
0E70
1CE0
18C0
0000
C030
C030
C030
C030
C030
C030
C030
C030
C030
C030
C030
C070
E1F0
7FF0
3F10
ENDCHAR
STARTCHAR Uogonek
ENCODING 370
SWIDTH 870 0
DWIDTH 28 0
BBX 14 27 2 -7
BITMAP
C00C
C00C
C00C
C00C
C00C
C00C
C00C
C00C
C00C
C00C
C00C
C00C
C00C
C00C
C00C
C00C
601C
6038
3870
1FE0
0FC0
0300
0300
0308
0398
01F8
00E0
ENDCHAR
STARTCHAR uogonek
ENCODING 371
SWIDTH 870 0
DWIDTH 28 0
BBX 12 22 3 -7
BITMAP
C030
C030
C030
C030
C030
C030
C030
C030
C030
C030
C030
C070
E1F0
7FF0
3FF0
01E0
0380
0300
0310
0330
01F0
00E0
ENDCHAR
STARTCHAR Wcircumflex
ENCODING 372
SWIDTH 870 0
DWIDTH 28 0
BBX 18 26 0 0
BITMAP
004000
01E000
03F000
073C00
0E0C00
000000
C000C0
C040C0
C0E0C0
C0E0C0
41E0C0
61B0C0
61B0C0
63B0C0
633980
631980
631980
661980
360D80
360D80
3E0D80
3C0580
3C0780
3C0700
380700
180300
ENDCHAR
STARTCHAR wcircumflex
ENCODING 373
SWIDTH 870 0
DWIDTH 28 0
BBX 16 22 1 0
BITMAP
0080
03C0
07E0
0E78
1C18
0000
4000
C003
6003
6183
61C6
63C6
23C6
3366
3364
366C
366C
1E3C
1E3C
1C38
1C18
1C18
ENDCHAR
STARTCHAR Ycircumflex
ENCODING 374
SWIDTH 870 0
DWIDTH 28 0
BBX 14 26 2 0
BITMAP
0100
0380
0FC0
1CF0
3830
0000
800C
C00C
E018
6038
3030
3860
1860
0CC0
0FC0
0780
0300
0300
0300
0300
0300
0300
0300
0300
0300
0300
ENDCHAR
STARTCHAR ycircumflex
ENCODING 375
SWIDTH 870 0
DWIDTH 28 0
BBX 16 29 1 -7
BITMAP
0080
03C0
07E0
0E78
1C18
0000
0000
4003
E003
6006
3006
300C
180C
181C
0C18
0C38
0630
0630
0360
0360
01C0
01C0
0180
0180
0300
0300
0700
1E00
1C00
ENDCHAR
STARTCHAR Ydieresis
ENCODING 376
SWIDTH 870 0
DWIDTH 28 0
BBX 14 24 2 0
BITMAP
1C70
1C70
1C70
0000
800C
C00C
E018
6038
3030
3860
18E0
0CC0
0FC0
0780
0300
0300
0300
0300
0300
0300
0300
0300
0300
0300
ENDCHAR
STARTCHAR Zacute
ENCODING 377
SWIDTH 870 0
DWIDTH 28 0
BBX 15 25 2 0
BITMAP
0040
00E0
01C0
0700
0E00
0400
FFF8
FFF8
0038
0030
0060
00E0
01C0
0180
0300
0700
0600
0C00
1C00
1800
3000
7000
6000
FFFC
FFFE
ENDCHAR
STARTCHAR zacute
ENCODING 378
SWIDTH 870 0
DWIDTH 28 0
BBX 14 22 2 0
BITMAP
0018
0038
00F0
01C0
0180
0000
0000
0000
FFF8
FFF8
0030
0060
00C0
0180
0300
0700
0E00
1C00
3800
3000
7FFC
FFFC
ENDCHAR
STARTCHAR Zdotaccent
ENCODING 379
SWIDTH 870 0
DWIDTH 28 0
BBX 15 23 2 0
BITMAP
0380
0380
0380
0000
7FFC
7FFC
0018
0038
0070
0060
00E0
01C0
0180
0300
0700
0600
0C00
1C00
1800
3000
7000
7FFE
FFFE
ENDCHAR
STARTCHAR zdotaccent
ENCODING 380
SWIDTH 870 0
DWIDTH 28 0
BBX 14 20 2 0
BITMAP
0700
0700
0700
0000
0000
0000
FFF8
FFF8
0030
0060
00C0
0180
0300
0700
0E00
1C00
3800
3000
7FFC
FFFC
ENDCHAR
STARTCHAR Zcaron
ENCODING 381
SWIDTH 870 0
DWIDTH 28 0
BBX 15 25 2 0
BITMAP
3030
3870
1DE0
0F80
0300
0000
FFF8
FFF8
0038
0030
0060
00E0
01C0
0180
0300
0700
0600
0C00
1C00
1800
3000
7000
6000
FFFC
FFFE
ENDCHAR
STARTCHAR zcaron
ENCODING 382
SWIDTH 870 0
DWIDTH 28 0
BBX 14 21 2 0
BITMAP
3030
3870
1DC0
0F80
0300
0000
0000
FFF8
FFF8
0030
0060
00C0
0180
0300
0700
0E00
1C00
3800
3000
7FFC
FFFC
ENDCHAR
STARTCHAR longs
ENCODING 383
SWIDTH 870 0
DWIDTH 28 0
BBX 12 21 3 0
BITMAP
01F0
03F0
0600
0C00
0C00
0C00
0C00
FC00
FC00
0C00
0C00
0C00
0C00
0C00
0C00
0C00
0C00
0C00
0C00
0C00
0C00
ENDCHAR
STARTCHAR uni0180
ENCODING 384
SWIDTH 870 0
DWIDTH 28 0
BBX 17 21 1 0
BITMAP
300000
300000
300000
FFE000
FFE000
300000
31F000
37FC00
3E0E00
3C0700
380300
300180
300180
300180
300180
300180
380300
3C0700
3E0E00
37FC00
31F000
ENDCHAR
STARTCHAR uni0181
ENCODING 385
SWIDTH 870 0
DWIDTH 28 0
BBX 18 19 0 0
BITMAP
3FFC00
7FFE00
6C0700
CC0380
CC0180
CC0180
CC0180
CC0700
0DFE00
0DFF00
0C0380
0C01C0
0C00C0
0C00C0
0C00C0
0C01C0
0C0380
0FFF00
0FFE00
ENDCHAR
STARTCHAR uni0182
ENCODING 386
SWIDTH 870 0
DWIDTH 28 0
BBX 14 19 2 0
BITMAP
FFFC
FFFC
C000
C000
C000
C000
C000
C000
FFC0
FFF0
C078
C01C
C00C
C00C
C00C
C01C
C038
FFF0
FFE0
ENDCHAR
STARTCHAR uni0183
ENCODING 387
SWIDTH 870 0
DWIDTH 28 0
BBX 15 21 2 0
BITMAP
FFFC
FFFC
C000
C000
C000
C000
C7C0
DFF0
F838
F01C
E00C
C006
C006
C006
C006
C006
E00C
F01C
F838
DFF0
C7C0
ENDCHAR
STARTCHAR uni0184
ENCODING 388
SWIDTH 870 0
DWIDTH 28 0
BBX 14 19 2 0
BITMAP
C000
C000
C000
C000
C000
C000
C000
C000
FFC0
FFF0
C078
C01C
C00C
C00C
C00C
C01C
C038
FFF0
FFE0
ENDCHAR
STARTCHAR uni0185
ENCODING 389
SWIDTH 870 0
DWIDTH 28 0
BBX 11 14 4 0
BITMAP
C000
C000
C000
C000
C000
C000
FF00
FFC0
C0E0
C060
C060
C0E0
FFC0
FF80
ENDCHAR
STARTCHAR uni0186
ENCODING 390
SWIDTH 870 0
DWIDTH 28 0
BBX 15 20 2 0
BITMAP
0F80
3FE0
7070
E038
C01C
000C
000E
0006
0006
0006
0006
0006
0006
000C
C00C
C01C
E018
F070
FFE0
CFC0
ENDCHAR
STARTCHAR uni0187
ENCODING 391
SWIDTH 870 0
DWIDTH 28 0
BBX 18 21 0 0
BITMAP
0003C0
0F8FC0
1FEC00
387C00
701800
601800
600800
C00000
C00000
C00000
C00000
C00000
C00000
C00000
E00000
600000
600C00
303800
387800
1FF000
07C000
ENDCHAR
STARTCHAR uni0188
ENCODING 392
SWIDTH 870 0
DWIDTH 28 0
BBX 18 19 0 0
BITMAP
0007C0
000FC0
001C00
001800
0F9800
1FF800
387800
603800
E01800
C01800
C00000
C00000
C00000
C00000
600C00
701C00
387800
1FF000
078000
ENDCHAR
STARTCHAR uni0189
ENCODING 393
SWIDTH 870 0
DWIDTH 28 0
BBX 16 19 1 0
BITMAP
3FE0
3FF8
303C
300C
3006
3006
3003
3003
FFE3
FFE3
3003
3003
3003
3006
3006
300C
303C
3FF8
3FE0
ENDCHAR
STARTCHAR uni018A
ENCODING 394
SWIDTH 870 0
DWIDTH 28 0
BBX 18 19 0 0
BITMAP
1FFC00
7FFE00
660700
C60180
C60180
C600C0
C600C0
C600C0
0600C0
0600C0
0600C0
0600C0
0600C0
0600C0
060180
060180
060700
07FE00
07FC00
ENDCHAR
STARTCHAR uni018B
ENCODING 395
SWIDTH 870 0
DWIDTH 28 0
BBX 15 19 2 0
BITMAP
7FFE
7FFE
0006
0006
0006
0006
0006
0006
0FF6
3FF6
7806
E006
C006
C006
C006
E006
7006
3FFE
1FFE
ENDCHAR
STARTCHAR uni018C
ENCODING 396
SWIDTH 870 0
DWIDTH 28 0
BBX 15 21 2 0
BITMAP
7FFE
7FFE
0006
0006
0006
0006
07C6
1FF6
383E
701E
600E
C006
C006
C006
C006
C006
600E
701E
383E
1FF6
07C6
ENDCHAR
STARTCHAR uni018D
ENCODING 397
SWIDTH 870 0
DWIDTH 28 0
BBX 15 23 2 -8
BITMAP
07C0
1FF0
3838
701C
600C
C006
C006
C006
C006
C006
E00C
701C
7838
7FF0
3FC0
1800
1C00
0E00
0700
0380
01C0
3FF8
3FF8
ENDCHAR
STARTCHAR uni018E
ENCODING 398
SWIDTH 870 0
DWIDTH 28 0
BBX 13 19 3 0
BITMAP
FFF8
FFF8
0018
0018
0018
0018
0018
0018
0018
0FF8
0FF8
0018
0018
0018
0018
0018
0018
FFF8
FFF8
ENDCHAR
STARTCHAR uni018F
ENCODING 399
SWIDTH 870 0
DWIDTH 28 0
BBX 15 20 2 0
BITMAP
0F80
3FE0
7070
E038
C01C
000C
000E
0006
0006
0006
FFFE
FFFE
C006
C004
C00C
E00C
6018
7030
3FE0
0FC0
ENDCHAR
STARTCHAR uni0190
ENCODING 400
SWIDTH 870 0
DWIDTH 28 0
BBX 15 20 2 0
BITMAP
0FC0
3FF0
7078
E018
C000
C000
E000
7000
3F00
3F80
7000
6000
C000
C000
C000
C000
6006
783E
3FF8
0FE0
ENDCHAR
STARTCHAR uni0191
ENCODING 401
SWIDTH 870 0
DWIDTH 28 0
BBX 19 25 0 -6
BITMAP
03FFE0
03FFE0
030000
030000
030000
030000
030000
030000
03FE00
03FE00
030000
030000
030000
030000
030000
030000
030000
030000
030000
030000
030000
070000
0E0000
FC0000
F80000
ENDCHAR
STARTCHAR florin
ENCODING 402
SWIDTH 870 0
DWIDTH 28 0
BBX 14 28 1 -7
BITMAP
007C
00FC
0180
0300
0300
0300
0300
3FFC
3FFC
0300
0300
0300
0300
0300
0300
0300
0300
0300
0300
0300
0300
0300
0300
0300
0700
0E00
FC00
F800
ENDCHAR
STARTCHAR uni0193
ENCODING 403
SWIDTH 870 0
DWIDTH 28 0
BBX 18 21 0 0
BITMAP
0003C0
0F87C0
1FEE00
387C00
701C00
601C00
600C00
C00C00
C00000
C00000
C00000
C00000
C0FE00
C0FE00
E00600
600400
600C00
301800
3C3800
1FF000
07C000
ENDCHAR
STARTCHAR uni0194
ENCODING 404
SWIDTH 870 0
DWIDTH 28 0
BBX 14 20 2 0
BITMAP
800C
C00C
6018
6038
3030
3860
18E0
0CC0
0FC0
0780
0300
0300
0780
0480
0CC0
0CC0
0CC0
0CC0
0FC0
0780
ENDCHAR
STARTCHAR uni0195
ENCODING 405
SWIDTH 870 0
DWIDTH 28 0
BBX 18 22 0 -1
BITMAP
C00000
C00000
C00000
C00000
C00000
C00000
DF0100
FF8180
F18180
E0C0C0
C0C0C0
C0C0C0
C0C0C0
C0C0C0
C0C0C0
C0C0C0
C0C0C0
C0C180
C0C180
C06300
C07F00
001C00
ENDCHAR
STARTCHAR uni0196
ENCODING 406
SWIDTH 870 0
DWIDTH 28 0
BBX 13 19 3 0
BITMAP
FE00
FE00
0600
0600
0600
0600
0600
0600
0600
0600
0600
0600
0600
0600
0600
0700
0380
01F8
00F8
ENDCHAR
STARTCHAR uni0197
ENCODING 407
SWIDTH 870 0
DWIDTH 28 0
BBX 12 19 3 0
BITMAP
FFF0
FFF0
0600
0600
0600
0600
0600
0600
FFE0
FFE0
0600
0600
0600
0600
0600
0600
0600
FFF0
FFF0
ENDCHAR
STARTCHAR uni0198
ENCODING 408
SWIDTH 870 0
DWIDTH 28 0
BBX 18 20 0 0
BITMAP
C00000
C01F00
C03F80
C071C0
C0C0C0
C18000
C70000
CE0000
DC0000
FF0000
F78000
E1C000
C0C000
C0E000
C06000
C06000
C03000
C03000
C01E00
C01E00
ENDCHAR
STARTCHAR uni0199
ENCODING 409
SWIDTH 870 0
DWIDTH 28 0
BBX 13 21 3 0
BITMAP
1F00
7F00
6000
C000
C000
C000
C0E0
C1E0
C380
C700
CE00
DC00
F800
FC00
CE00
C700
C380
C180
C0C0
C078
C038
ENDCHAR
STARTCHAR uni019A
ENCODING 410
SWIDTH 870 0
DWIDTH 28 0
BBX 14 21 2 0
BITMAP
7F00
7F00
0300
0300
0300
0300
0300
0300
0300
0300
7FF0
7FF0
0300
0300
0300
0300
0300
0300
0300
FFFC
FFFC
ENDCHAR
STARTCHAR uni019B
ENCODING 411
SWIDTH 870 0
DWIDTH 28 0
BBX 16 21 1 0
BITMAP
1C60
1EE0
03C0
0380
0700
0F80
1D80
19C0
03C0
0360
0760
0630
0E30
0C18
1C18
180C
380C
3006
6006
6003
C003
ENDCHAR
STARTCHAR uni019C
ENCODING 412
SWIDTH 870 0
DWIDTH 28 0
BBX 17 19 1 0
BITMAP
C18180
C18180
C18180
C18180
C18180
C18180
C18180
C18180
C18180
C18180
C18180
C18180
C18180
C18180
C18180
C38380
E7C780
7EFF80
3C7D80
ENDCHAR
STARTCHAR uni019D
ENCODING 413
SWIDTH 870 0
DWIDTH 28 0
BBX 18 27 0 -7
BITMAP
0300C0
0380C0
0380C0
03C0C0
03C0C0
03E0C0
0360C0
0330C0
0330C0
0318C0
0318C0
030CC0
030CC0
0306C0
0306C0
0303C0
0303C0
0301C0
0301C0
0300C0
030000
030000
030000
070000
0E0000
FC0000
F80000
ENDCHAR
STARTCHAR uni019E
ENCODING 414
SWIDTH 870 0
DWIDTH 28 0
BBX 12 22 3 -7
BITMAP
CF80
FFC0
F860
E030
C030
C030
C030
C030
C030
C030
C030
C030
C030
C030
C030
0030
0030
0030
0030
0030
0030
0030
ENDCHAR
STARTCHAR uni019F
ENCODING 415
SWIDTH 870 0
DWIDTH 28 0
BBX 16 20 1 0
BITMAP
07E0
0FF0
1C38
380C
700E
6006
E006
C003
C003
FFFF
FFFF
C003
C003
C007
6006
700E
300C
1C38
0FF0
07E0
ENDCHAR
STARTCHAR Ohorn
ENCODING 416
SWIDTH 870 0
DWIDTH 28 0
BBX 18 20 0 0
BITMAP
07E0C0
0FF0C0
1C38C0
380D80
700F00
600600
E00600
C00300
C00300
C00300
C00300
C00300
C00300
600700
600600
700E00
301C00
1C3800
0FF000
07E000
ENDCHAR
STARTCHAR ohorn
ENCODING 417
SWIDTH 870 0
DWIDTH 28 0
BBX 18 15 0 0
BITMAP
07E0C0
1FF8C0
3C3CC0
700F80
600700
C00300
C00300
C00300
C00300
C00300
600600
700E00
381C00
1FF800
07E000
ENDCHAR
STARTCHAR uni01A2
ENCODING 418
SWIDTH 870 0
DWIDTH 28 0
BBX 17 27 1 -7
BITMAP
0F0180
1FC380
38C380
70FF80
607D80
607180
C02180
C03180
C03180
C03180
C03180
C03180
C03180
C03180
606180
606180
70E180
39C180
1F8180
0F0180
000180
000180
000180
000180
000180
000180
000180
ENDCHAR
STARTCHAR uni01A3
ENCODING 419
SWIDTH 870 0
DWIDTH 28 0
BBX 17 22 1 -7
BITMAP
0F0180
1FC380
30E780
607F80
607D80
C03180
C03180
C03180
C03180
C03180
C03180
606180
606180
30C180
1FC180
0F0180
000180
000180
000180
000180
000180
000180
ENDCHAR
STARTCHAR uni01A4
ENCODING 420
SWIDTH 870 0
DWIDTH 28 0
BBX 18 19 0 0
BITMAP
1FFC00
7FFF00
660380
C60180
C600C0
C600C0
C600C0
C600C0
060180
060780
07FF00
07FC00
060000
060000
060000
060000
060000
060000
060000
ENDCHAR
STARTCHAR uni01A5
ENCODING 421
SWIDTH 870 0
DWIDTH 28 0
BBX 15 28 2 -7
BITMAP
1F00
7F00
6000
C000
C000
C000
C7C0
DFF0
F838
F01C
E00C
C006
C006
C006
C006
C006
E00C
F01C
F838
DFF0
C7C0
C000
C000
C000
C000
C000
C000
C000
ENDCHAR
STARTCHAR uni01A6
ENCODING 422
SWIDTH 870 0
DWIDTH 28 0
BBX 19 23 0 -4
BITMAP
FF0000
FF0000
180000
1FF000
1FFC00
180E00
180700
180300
180300
180300
180700
181E00
1BF800
1BF000
183800
181C00
180C00
FF0600
FF0600
000300
000300
0001E0
0001E0
ENDCHAR
STARTCHAR uni01A7
ENCODING 423
SWIDTH 870 0
DWIDTH 28 0
BBX 14 20 2 0
BITMAP
07C0
1FF0
3838
301C
600C
600C
000C
0018
00F8
0FE0
3F00
7000
C000
C00C
C00C
C00C
E01C
7838
3FF0
0FC0
ENDCHAR
STARTCHAR uni01A8
ENCODING 424
SWIDTH 870 0
DWIDTH 28 0
BBX 12 15 3 0
BITMAP
0F80
3FE0
7070
6030
4030
0070
1FE0
7F00
6000
C030
C030
C030
6060
7FE0
1F80
ENDCHAR
STARTCHAR uni01A9
ENCODING 425
SWIDTH 870 0
DWIDTH 28 0
BBX 15 19 2 0
BITMAP
FFF8
FFF8
6000
7000
3000
1800
1C00
0C00
0600
0700
0600
0C00
1C00
1800
3000
7000
6000
FFFC
FFFE
ENDCHAR
STARTCHAR uni01AA
ENCODING 426
SWIDTH 870 0
DWIDTH 28 0
BBX 14 24 2 -3
BITMAP
3800
7E00
E600
C300
E300
7F00
3B00
0300
0300
0300
0300
0300
0300
0300
0300
0300
0300
0300
0300
0300
0300
0180
00FC
0078
ENDCHAR
STARTCHAR uni01AB
ENCODING 427
SWIDTH 870 0
DWIDTH 28 0
BBX 11 26 4 -7
BITMAP
1800
1800
1800
1800
1800
FFE0
FFE0
1800
1800
1800
1800
1800
1800
1800
1800
1800
1C00
0FE0
03E0
0060
0060
0060
00C0
01C0
1F80
1F00
ENDCHAR
STARTCHAR uni01AC
ENCODING 428
SWIDTH 870 0
DWIDTH 28 0
BBX 18 19 0 0
BITMAP
1FFFC0
7FFFC0
606000
C06000
C06000
C06000
C06000
C06000
006000
006000
006000
006000
006000
006000
006000
006000
006000
006000
006000
ENDCHAR
STARTCHAR uni01AD
ENCODING 429
SWIDTH 870 0
DWIDTH 28 0
BBX 11 21 4 0
BITMAP
03E0
0FE0
0C00
1800
1800
1800
1800
FFC0
FFC0
1800
1800
1800
1800
1800
1800
1800
1800
1800
1C00
0FC0
07C0
ENDCHAR
STARTCHAR uni01AE
ENCODING 430
SWIDTH 870 0
DWIDTH 28 0
BBX 16 26 1 -7
BITMAP
FFFF
FFFF
0180
0180
0180
0180
0180
0180
0180
0180
0180
0180
0180
0180
0180
0180
0180
0180
0180
0180
0180
0180
01C0
00E0
007E
003E
ENDCHAR
STARTCHAR Uhorn
ENCODING 431
SWIDTH 870 0
DWIDTH 28 0
BBX 16 20 1 0
BITMAP
C01B
C01B
C01B
C01B
C01E
C018
C018
C018
C018
C018
C018
C018
C018
C018
C018
E038
6030
78F0
3FE0
0F80
ENDCHAR
STARTCHAR uhorn
ENCODING 432
SWIDTH 870 0
DWIDTH 28 0
BBX 16 15 1 0
BITMAP
C013
C01B
C01B
C01B
C01E
C018
C018
C018
C018
C018
C018
C038
E0F8
7FD8
1F18
ENDCHAR
STARTCHAR uni01B1
ENCODING 433
SWIDTH 870 0
DWIDTH 28 0
BBX 14 20 2 0
BITMAP
C008
E018
6018
6018
6018
6018
6018
600C
C00C
C00C
C00C
C00C
C00C
C00C
C00C
C01C
E018
7078
3FF0
1FC0
ENDCHAR
STARTCHAR uni01B2
ENCODING 434
SWIDTH 870 0
DWIDTH 28 0
BBX 15 20 2 0
BITMAP
C00C
C00C
C00C
C006
C006
C006
C006
C006
C006
C006
C006
C006
C00C
C00C
C018
E018
6030
3870
1FE0
0F80
ENDCHAR
STARTCHAR uni01B3
ENCODING 435
SWIDTH 870 0
DWIDTH 28 0
BBX 17 20 1 0
BITMAP
1C0180
7E0180
E60300
C30300
C38600
018600
01CC00
00CC00
007800
007800
003000
003000
003000
003000
003000
003000
003000
003000
003000
003000
ENDCHAR
STARTCHAR uni01B4
ENCODING 436
SWIDTH 870 0
DWIDTH 28 0
BBX 19 26 0 -7
BITMAP
000780
000FC0
000CE0
001800
C01800
C01800
603000
603000
302000
306000
306000
18C000
18C000
1CC000
0D8000
0D8000
078000
070000
070000
020000
060000
060000
0C0000
0C0000
3C0000
380000
ENDCHAR
STARTCHAR uni01B5
ENCODING 437
SWIDTH 870 0
DWIDTH 28 0
BBX 15 19 2 0
BITMAP
FFF8
FFF8
0038
0030
0060
00C0
01C0
0180
7FF0
7FF0
0E00
0C00
1C00
3800
3000
7000
E000
FFFC
FFFE
ENDCHAR
STARTCHAR uni01B6
ENCODING 438
SWIDTH 870 0
DWIDTH 28 0
BBX 14 14 2 0
BITMAP
FFF8
FFF8
0030
0060
00C0
01C0
7FF0
7FF0
0E00
0C00
1800
3000
7FFC
7FFC
ENDCHAR
STARTCHAR uni01B7
ENCODING 439
SWIDTH 870 0
DWIDTH 28 0
BBX 13 19 3 0
BITMAP
FFF8
FFF8
0030
00E0
01C0
0380
0700
0F80
03E0
0070
0030
0018
0018
0018
0018
C030
F0F0
7FE0
1F80
ENDCHAR
STARTCHAR uni01B8
ENCODING 440
SWIDTH 870 0
DWIDTH 28 0
BBX 13 19 2 0
BITMAP
FFF8
FFF8
6000
3000
1C00
0E00
0700
0F00
3E80
7000
E000
C000
C000
C000
C000
6018
7878
3FF0
0FC0
ENDCHAR
STARTCHAR uni01B9
ENCODING 441
SWIDTH 870 0
DWIDTH 28 0
BBX 13 20 2 -6
BITMAP
FFF8
FFF8
6000
3000
1800
0C00
0E00
0700
1F80
3800
6000
E000
C000
C000
C000
C000
6018
3878
1FF0
0FC0
ENDCHAR
STARTCHAR uni01BA
ENCODING 442
SWIDTH 870 0
DWIDTH 28 0
BBX 14 20 2 -6
BITMAP
FFF8
FFF8
0030
0060
00E0
01C0
0380
07E0
07F0
0030
0030
0030
3FE0
7F80
600C
600C
600C
3838
3FF0
0FE0
ENDCHAR
STARTCHAR uni01BB
ENCODING 443
SWIDTH 870 0
DWIDTH 28 0
BBX 13 19 3 0
BITMAP
0F80
1FE0
3870
6030
6018
4018
0018
0038
0030
00E0
1FF8
3FF8
0700
1C00
3800
7000
E018
FFF8
FFF8
ENDCHAR
STARTCHAR uni01BC
ENCODING 444
SWIDTH 870 0
DWIDTH 28 0
BBX 16 19 1 0
BITMAP
FFFC
FFFC
1800
1800
1800
1800
1800
1BF0
1FFC
1E0E
0006
0003
0003
0003
4003
E007
780E
1FFC
07F0
ENDCHAR
STARTCHAR uni01BD
ENCODING 445
SWIDTH 870 0
DWIDTH 28 0
BBX 15 21 2 0
BITMAP
FFF8
FFF8
1800
1800
1800
1800
1800
1800
1800
1BE0
1FF8
1C1C
000C
0006
0006
0006
2006
300E
3C1C
1FF8
07E0
ENDCHAR
STARTCHAR uni01BE
ENCODING 446
SWIDTH 870 0
DWIDTH 28 0
BBX 15 19 2 0
BITMAP
1800
1800
1800
1800
1800
FFC0
FFC0
1800
1800
1800
1C00
0FF8
03FC
3006
3006
3006
1C1E
0FFC
03F0
ENDCHAR
STARTCHAR uni01BF
ENCODING 447
SWIDTH 870 0
DWIDTH 28 0
BBX 12 22 3 -7
BITMAP
C7C0
DFE0
F870
F030
E030
C030
C030
C060
C0E0
C0C0
C180
C300
CE00
DC00
F800
F000
E000
C000
C000
C000
C000
C000
ENDCHAR
STARTCHAR uni01C0
ENCODING 448
SWIDTH 870 0
DWIDTH 28 0
BBX 2 26 8 -5
BITMAP
C0
C0
C0
C0
C0
C0
C0
C0
C0
C0
C0
C0
C0
C0
C0
C0
C0
C0
C0
C0
C0
C0
C0
C0
C0
C0
ENDCHAR
STARTCHAR uni01C1
ENCODING 449
SWIDTH 870 0
DWIDTH 28 0
BBX 8 26 5 -5
BITMAP
C3
C3
C3
C3
C3
C3
C3
C3
C3
C3
C3
C3
C3
C3
C3
C3
C3
C3
C3
C3
C3
C3
C3
C3
C3
C3
ENDCHAR
STARTCHAR uni01C2
ENCODING 450
SWIDTH 870 0
DWIDTH 28 0
BBX 15 18 1 0
BITMAP
0180
0180
0180
0180
0180
FFFE
FFFE
0180
0180
0180
FFFE
FFFE
0180
0180
0180
0180
0180
0180
ENDCHAR
STARTCHAR uni01C3
ENCODING 451
SWIDTH 870 0
DWIDTH 28 0
BBX 4 21 7 0
BITMAP
60
70
70
70
70
70
70
60
60
60
60
60
60
60
00
00
00
60
F0
F0
60
ENDCHAR
STARTCHAR uni01C4
ENCODING 452
SWIDTH 870 0
DWIDTH 28 0
BBX 18 25 0 0
BITMAP
00C0C0
00E1C0
007700
003E00
000C00
000000
FE7F80
FF7F00
C38300
C18300
C18600
C0C600
C0C600
C0CC00
C0CC00
C0CC00
C0DC00
C0D800
C0D800
C0F800
C1B000
C1B000
C37000
FF7FC0
FE7FC0
ENDCHAR
STARTCHAR uni01C5
ENCODING 453
SWIDTH 870 0
DWIDTH 28 0
BBX 18 21 0 0
BITMAP
006040
00F1C0
FC3B80
FE1F00
C70E00
C30000
C30000
C1FF00
C1FF00
C18700
C18600
C18E00
C18C00
C19C00
C19800
C1B800
C33000
C33000
C76000
FE7F80
FCFF80
ENDCHAR
STARTCHAR uni01C6
ENCODING 454
SWIDTH 870 0
DWIDTH 28 0
BBX 19 21 0 0
BITMAP
01E060
01F0E0
01B9C0
018F00
018600
018000
1DFF80
3FFF80
778380
638300
C18700
C18600
C18600
C18E00
C18C00
C19C00
C19800
63B800
77B000
3FBFC0
1DFFC0
ENDCHAR
STARTCHAR uni01C7
ENCODING 455
SWIDTH 870 0
DWIDTH 28 0
BBX 17 20 1 0
BITMAP
C01F80
C01F80
C00180
C00180
C00180
C00180
C00180
C00180
C00180
C00180
C00180
C18180
C18180
C18180
C18180
C18180
C18380
C1C300
FFFE00
FF7C00
ENDCHAR
STARTCHAR uni01C8
ENCODING 456
SWIDTH 870 0
DWIDTH 28 0
BBX 14 27 2 -7
BITMAP
C01C
C01C
C01C
C000
C000
C000
C0FC
C0FC
C00C
C00C
C00C
C00C
C00C
C00C
C00C
C00C
C00C
C00C
FFEC
FFEC
000C
000C
000C
001C
0038
03F0
03E0
ENDCHAR
STARTCHAR uni01C9
ENCODING 457
SWIDTH 870 0
DWIDTH 28 0
BBX 15 28 2 -7
BITMAP
FE00
FE0E
060E
060E
0600
0600
0600
067E
067E
0606
0606
0606
0606
0606
0606
0606
0606
0606
0606
FFF6
FFF6
0006
0006
0006
000E
001C
01F8
01F0
ENDCHAR
STARTCHAR uni01CA
ENCODING 458
SWIDTH 870 0
DWIDTH 28 0
BBX 18 20 0 0
BITMAP
E18FC0
E18FC0
E180C0
F180C0
F180C0
F180C0
F980C0
F980C0
D980C0
DD80C0
DD80C0
CDE0C0
CFE0C0
CFE0C0
C7E0C0
C7E0C0
C7E1C0
C3F180
C3BF80
C39E00
ENDCHAR
STARTCHAR uni01CB
ENCODING 459
SWIDTH 870 0
DWIDTH 28 0
BBX 16 27 1 -7
BITMAP
C307
E307
E307
E300
E300
F300
F33F
F33F
FB03
DB03
DB03
DB03
CF03
CF03
CF03
C703
C703
C703
C703
C303
0003
0003
0003
0007
000E
00FC
00F8
ENDCHAR
STARTCHAR uni01CC
ENCODING 460
SWIDTH 870 0
DWIDTH 28 0
BBX 16 27 1 -7
BITMAP
0007
0007
0007
0000
0000
CF00
DFFF
F0FF
E063
C063
C063
C063
C063
C063
C063
C063
C063
C063
C063
C063
0003
0003
0003
0007
000E
00FC
00F8
ENDCHAR
STARTCHAR uni01CD
ENCODING 461
SWIDTH 870 0
DWIDTH 28 0
BBX 17 25 1 0
BITMAP
181800
1E3800
077000
03E000
018000
018000
03C000
03C000
03E000
076000
066000
063000
0C3000
0C3800
1C1800
181800
180C00
3FFC00
3FFC00
700600
600600
600700
E00300
C00300
C00180
ENDCHAR
STARTCHAR uni01CE
ENCODING 462
SWIDTH 870 0
DWIDTH 28 0
BBX 14 21 2 0
BITMAP
1818
1C38
0F70
03C0
0180
0000
07E0
3FF8
3C3C
000C
000C
000C
0FFC
3FFC
780C
E00C
C00C
C01C
E07C
7FEC
1F8C
ENDCHAR
STARTCHAR uni01CF
ENCODING 463
SWIDTH 870 0
DWIDTH 28 0
BBX 12 25 3 0
BITMAP
6060
70E0
3DC0
0F00
0600
0000
FFF0
FFF0
0600
0600
0600
0600
0600
0600
0600
0600
0600
0600
0600
0600
0600
0600
0600
FFF0
FFF0
ENDCHAR
STARTCHAR uni01D0
ENCODING 464
SWIDTH 870 0
DWIDTH 28 0
BBX 14 21 2 0
BITMAP
3030
3870
1EE0
0780
0300
0000
0000
7F00
7F00
0300
0300
0300
0300
0300
0300
0300
0300
0300
0300
FFFC
FFFC
ENDCHAR
STARTCHAR uni01D1
ENCODING 465
SWIDTH 870 0
DWIDTH 28 0
BBX 16 26 1 0
BITMAP
0C0C
0E3C
0770
03E0
00C0
0000
07E0
0FF0
1C38
380C
700E
6006
E006
C003
C003
C003
C003
C003
C003
E007
6006
700E
301C
1C38
0FF0
07E0
ENDCHAR
STARTCHAR uni01D2
ENCODING 466
SWIDTH 870 0
DWIDTH 28 0
BBX 16 21 1 0
BITMAP
0C08
0E38
0770
03E0
01C0
0000
07E0
1FF8
3C3C
700E
6006
C003
C003
C003
C003
C003
6006
700E
381C
1FF8
07E0
ENDCHAR
STARTCHAR uni01D3
ENCODING 467
SWIDTH 870 0
DWIDTH 28 0
BBX 14 25 2 0
BITMAP
3030
3870
1DE0
0F80
0300
C00C
C00C
C00C
C00C
C00C
C00C
C00C
C00C
C00C
C00C
C00C
C00C
C00C
C00C
C00C
E01C
6018
3870
1FE0
0FC0
ENDCHAR
STARTCHAR uni01D4
ENCODING 468
SWIDTH 870 0
DWIDTH 28 0
BBX 12 21 3 0
BITMAP
3030
3870
1CE0
0780
0300
0000
C030
C030
C030
C030
C030
C030
C030
C030
C030
C030
C030
C070
E1F0
7FB0
3E30
ENDCHAR
STARTCHAR uni01D5
ENCODING 469
SWIDTH 870 0
DWIDTH 28 0
BBX 14 27 2 0
BITMAP
3FF8
3FF8
3C70
3C70
3C70
0000
0000
C00C
C00C
C00C
C00C
C00C
C00C
C00C
C00C
C00C
C00C
C00C
C00C
C00C
C00C
C00C
E01C
6018
3870
1FE0
0FC0
ENDCHAR
STARTCHAR uni01D6
ENCODING 470
SWIDTH 870 0
DWIDTH 28 0
BBX 13 23 3 0
BITMAP
7FF8
7FF8
0000
3870
3870
3870
0000
0000
C018
C018
C018
C018
C018
C018
C018
C018
C018
C018
C018
C078
E0F8
7FD8
3F18
ENDCHAR
STARTCHAR uni01D7
ENCODING 471
SWIDTH 870 0
DWIDTH 28 0
BBX 14 29 2 0
BITMAP
0030
0070
00E0
01C0
0300
3A70
3870
3870
0000
C00C
C00C
C00C
C00C
C00C
C00C
C00C
C00C
C00C
C00C
C00C
C00C
C00C
C00C
C00C
E01C
6018
3870
1FE0
0FC0
ENDCHAR
STARTCHAR uni01D8
ENCODING 472
SWIDTH 870 0
DWIDTH 28 0
BBX 12 26 3 0
BITMAP
0060
00E0
01C0
0380
0700
0600
70E0
70E0
70E0
0000
0000
C030
C030
C030
C030
C030
C030
C030
C030
C030
C030
C030
C070
E1F0
7FB0
3E30
ENDCHAR
STARTCHAR uni01D9
ENCODING 473
SWIDTH 870 0
DWIDTH 28 0
BBX 14 28 2 0
BITMAP
3030
3870
1FE0
0780
3B70
3870
3870
0000
C00C
C00C
C00C
C00C
C00C
C00C
C00C
C00C
C00C
C00C
C00C
C00C
C00C
C00C
C00C
E01C
6018
3870
1FE0
0FC0
ENDCHAR
STARTCHAR uni01DA
ENCODING 474
SWIDTH 870 0
DWIDTH 28 0
BBX 13 25 3 0
BITMAP
3030
3870
1EE0
0780
0300
3870
3870
3870
0000
0000
C018
C018
C018
C018
C018
C018
C018
C018
C018
C018
C018
C078
E0F8
7FD8
3F18
ENDCHAR
STARTCHAR uni01DB
ENCODING 475
SWIDTH 870 0
DWIDTH 28 0
BBX 14 29 2 0
BITMAP
2000
3000
3C00
1E00
0700
3B70
3870
3870
0000
C00C
C00C
C00C
C00C
C00C
C00C
C00C
C00C
C00C
C00C
C00C
C00C
C00C
C00C
C00C
E01C
6018
3870
1FE0
0FC0
ENDCHAR
STARTCHAR uni01DC
ENCODING 476
SWIDTH 870 0
DWIDTH 28 0
BBX 13 25 3 0
BITMAP
3000
3800
1C00
0E00
0700
3B70
3870
3870
0000
0000
C018
C018
C018
C018
C018
C018
C018
C018
C018
C018
C018
C078
E0F8
7FD8
3F18
ENDCHAR
STARTCHAR uni01DD
ENCODING 477
SWIDTH 870 0
DWIDTH 28 0
BBX 16 15 1 0
BITMAP
07E0
1FF8
781C
E00E
C006
0003
0003
7FFF
3FFF
3003
3007
3006
1C1C
0FF8
07E0
ENDCHAR
STARTCHAR uni01DE
ENCODING 478
SWIDTH 870 0
DWIDTH 28 0
BBX 17 27 1 0
BITMAP
1FFC00
1FFC00
000000
0E3800
0E3800
0E3800
000000
018000
03C000
03C000
03E000
066000
066000
067000
0C3000
0C3800
1C3800
181800
181C00
3FFC00
3FFC00
700600
600600
600700
E00300
C00300
C00180
ENDCHAR
STARTCHAR uni01DF
ENCODING 479
SWIDTH 870 0
DWIDTH 28 0
BBX 14 23 2 0
BITMAP
3FF8
3FF8
0000
1C38
1C38
1C38
0000
0000
0FE0
3FF8
3C3C
000C
000C
000C
0FFC
3FFC
780C
E00C
C00C
C01C
E07C
7FFC
1F8C
ENDCHAR
STARTCHAR uni01E0
ENCODING 480
SWIDTH 870 0
DWIDTH 28 0
BBX 17 27 1 0
BITMAP
1FFC00
1FFC00
000000
01C000
01C000
01C000
000000
018000
03C000
03C000
036000
066000
066000
063000
0C3000
0C3800
1C1800
181800
180C00
3FFC00
3FFC00
700600
600600
600700
E00300
C00300
C00180
ENDCHAR
STARTCHAR uni01E1
ENCODING 481
SWIDTH 870 0
DWIDTH 28 0
BBX 14 23 2 0
BITMAP
3FF8
3FF8
0000
01C0
01C0
01C0
0000
0000
07E0
3FF8
3C3C
000C
000C
000C
0FFC
3FFC
780C
E00C
C00C
C01C
E07C
7FFC
1F8C
ENDCHAR
STARTCHAR uni01E2
ENCODING 482
SWIDTH 870 0
DWIDTH 28 0
BBX 17 23 0 0
BITMAP
03FF80
03FF80
000000
000000
07FF80
07FF80
06C000
0CC000
0CC000
0CC000
1CC000
18C000
18FC00
18FC00
38C000
3FC000
3FC000
30C000
60C000
60C000
60C000
E0FF80
C0FF80
ENDCHAR
STARTCHAR uni01E3
ENCODING 483
SWIDTH 870 0
DWIDTH 28 0
BBX 19 19 0 0
BITMAP
0FFE00
0FFE00
000000
000000
0F0F00
3F9F80
31F1C0
00F0C0
0060C0
0060E0
1FE0E0
7FFFE0
F07FE0
C06000
C06000
C0F060
61F8E0
7F7FC0
1E4F00
ENDCHAR
STARTCHAR uni01E4
ENCODING 484
SWIDTH 870 0
DWIDTH 28 0
BBX 19 20 0 0
BITMAP
03E000
0FFB00
1C1F00
380700
700700
600300
600300
C00000
C00000
C00000
C00000
C03F80
C03F80
E00180
600180
70FFC0
38FFE0
1E0E00
0FFC00
03F000
ENDCHAR
STARTCHAR uni01E5
ENCODING 485
SWIDTH 870 0
DWIDTH 28 0
BBX 18 20 0 -5
BITMAP
01EE00
07FE00
061800
0E0C00
0C0C00
0C0C00
0C0C00
061800
07F800
01F000
03C000
0FF800
3FFE00
780700
FFFFC0
FFFFC0
700380
3E0F00
1FFE00
07F000
ENDCHAR
STARTCHAR Gcaron
ENCODING 486
SWIDTH 870 0
DWIDTH 28 0
BBX 16 26 1 0
BITMAP
0C18
0E38
0F70
03E0
01C0
0080
07E6
0FFE
1C3E
300E
7006
6006
6000
C000
C000
C000
C000
C07F
C07F
E003
6002
7006
380C
1C1C
0FF8
03E0
ENDCHAR
STARTCHAR gcaron
ENCODING 487
SWIDTH 870 0
DWIDTH 28 0
BBX 16 26 1 -5
BITMAP
1818
1C38
0E70
03C0
0180
0000
03DC
0FFC
0C30
1C18
1818
1818
1818
0C30
0FF0
03E0
0780
0FF0
3FFC
701E
E003
C003
E007
781E
3FFC
0FF0
ENDCHAR
STARTCHAR uni01E8
ENCODING 488
SWIDTH 870 0
DWIDTH 28 0
BBX 15 25 2 0
BITMAP
3030
3870
1DE0
0F80
0300
C01C
C01C
C030
C0E0
C1C0
C380
C700
CE00
DC00
FE00
F700
E180
C0C0
C0E0
C060
C060
C030
C030
C01E
C01E
ENDCHAR
STARTCHAR uni01E9
ENCODING 489
SWIDTH 870 0
DWIDTH 28 0
BBX 13 21 4 0
BITMAP
D818
DE38
C770
C3E0
C180
C000
C0E0
C1E0
C380
C700
CE00
DC00
F800
FC00
CE00
C600
C300
C180
C0C0
C078
C038
ENDCHAR
STARTCHAR uni01EA
ENCODING 490
SWIDTH 870 0
DWIDTH 28 0
BBX 16 27 1 -7
BITMAP
07C0
0FF0
1C38
381C
700E
6006
6006
C003
C003
C003
C003
C003
C003
C003
6006
6006
700E
381C
1C38
0FF0
03E0
0180
0180
0184
01CC
00FC
0070
ENDCHAR
STARTCHAR uni01EB
ENCODING 491
SWIDTH 870 0
DWIDTH 28 0
BBX 16 22 1 -7
BITMAP
07E0
1FF8
3C3C
700E
6006
E007
C003
C003
C003
C003
E007
6006
700E
3C3C
0FF8
07E0
0180
0180
0184
01CC
00FC
0070
ENDCHAR
STARTCHAR uni01EC
ENCODING 492
SWIDTH 870 0
DWIDTH 28 0
BBX 16 30 1 -7
BITMAP
1FF8
1FFC
0000
07C0
0FF0
1C38
381C
700E
6006
6006
C003
C003
C003
C003
C003
C003
C003
6006
6006
700E
381C
1C38
0FF0
03E0
0180
0180
0184
01CC
00FC
0070
ENDCHAR
STARTCHAR uni01ED
ENCODING 493
SWIDTH 870 0
DWIDTH 28 0
BBX 16 26 1 -7
BITMAP
1FF8
1FFC
0000
0000
07E0
1FF8
3C3C
700E
6006
E007
C003
C003
C003
C003
E007
6006
700E
3C3C
0FF8
07E0
0180
0180
0184
01CC
00FC
0070
ENDCHAR
STARTCHAR uni01EE
ENCODING 494
SWIDTH 870 0
DWIDTH 28 0
BBX 13 25 3 0
BITMAP
6060
78E0
1DC0
0F80
0600
0000
FFF8
FFF8
0030
00E0
01C0
0380
0700
0F80
03E0
0070
0038
0018
0018
0018
0018
C030
F0F0
7FE0
1F80
ENDCHAR
STARTCHAR uni01EF
ENCODING 495
SWIDTH 870 0
DWIDTH 28 0
BBX 13 27 3 -6
BITMAP
6060
38E0
1DC0
0F80
0600
0000
0000
FFF8
FFF8
0030
0060
00C0
0180
0380
0700
0FC0
00E0
0030
0038
0018
0018
0018
0018
C030
F0F0
7FC0
1F80
ENDCHAR
STARTCHAR uni01F0
ENCODING 496
SWIDTH 870 0
DWIDTH 28 0
BBX 12 28 3 -7
BITMAP
3030
3870
1CE0
0780
0300
0000
0000
3F00
3F00
0300
0300
0300
0300
0300
0300
0300
0300
0300
0300
0300
0300
0300
0300
0300
0700
0E00
FC00
F800
ENDCHAR
STARTCHAR uni01F1
ENCODING 497
SWIDTH 870 0
DWIDTH 28 0
BBX 17 19 1 0
BITMAP
FCFF00
FEFE00
C70600
C30600
C38C00
C18C00
C18C00
C19800
C19800
C19800
C1B800
C1B000
C1B000
C1F000
C36000
C36000
C6E000
FEFF80
FCFF80
ENDCHAR
STARTCHAR uni01F2
ENCODING 498
SWIDTH 870 0
DWIDTH 28 0
BBX 18 19 0 0
BITMAP
FE0000
FF0000
C38000
C18000
C18000
C0FF80
C0FF80
C0C380
C0C300
C0C700
C0C600
C0CE00
C0CC00
C0DC00
C19800
C19800
C3B000
FF3FC0
FE7FC0
ENDCHAR
STARTCHAR uni01F3
ENCODING 499
SWIDTH 870 0
DWIDTH 28 0
BBX 18 21 0 0
BITMAP
018000
018000
018000
018000
018000
018000
018000
1FFF80
3FFF80
778380
638300
C18700
C18600
C18E00
C18C00
C19C00
C19800
639800
67B000
3FBFC0
1DFFC0
ENDCHAR
STARTCHAR uni01F4
ENCODING 500
SWIDTH 870 0
DWIDTH 28 0
BBX 16 25 1 0
BITMAP
0030
0070
00E0
0380
0300
07E6
0FFE
1C3E
300E
7006
6006
6000
C000
C000
C000
C000
C07F
C07F
E003
6002
7006
380C
1C1C
0FF8
03E0
ENDCHAR
STARTCHAR uni01F5
ENCODING 501
SWIDTH 870 0
DWIDTH 28 0
BBX 16 27 1 -5
BITMAP
000C
001C
0078
00E0
00C0
0000
0000
03DC
0FFC
0C30
1C18
1818
1818
1818
0C30
0FF0
03E0
0780
0FF0
3FFC
701E
E003
C003
E007
781E
3FFC
0FF0
ENDCHAR
STARTCHAR uni01F6
ENCODING 502
SWIDTH 870 0
DWIDTH 28 0
BBX 17 20 1 0
BITMAP
C18000
C18000
C18000
C18000
C18000
C18180
C18180
C18180
C18180
FF8180
FF8180
C18180
C18180
C18180
C18180
C18180
C1C180
C0E300
C07F00
C03C00
ENDCHAR
STARTCHAR uni01F7
ENCODING 503
SWIDTH 870 0
DWIDTH 28 0
BBX 12 19 3 0
BITMAP
C7C0
DFE0
F870
F030
E030
C030
C060
C060
C0C0
C180
C300
C600
CC00
D800
F000
E000
C000
C000
C000
ENDCHAR
STARTCHAR uni01F8
ENCODING 504
SWIDTH 870 0
DWIDTH 28 0
BBX 14 26 2 0
BITMAP
2000
3000
3C00
1E00
0700
0300
C00C
E00C
F00C
F00C
F80C
DC0C
CC0C
CE0C
C60C
C70C
C38C
C18C
C1CC
C0EC
C06C
C07C
C03C
C03C
C01C
C00C
ENDCHAR
STARTCHAR uni01F9
ENCODING 505
SWIDTH 870 0
DWIDTH 28 0
BBX 12 22 3 0
BITMAP
3000
3800
1C00
0F00
0700
0000
0000
CF80
DFC0
F860
E030
C030
C030
C030
C030
C030
C030
C030
C030
C030
C030
C030
ENDCHAR
STARTCHAR Aringacute
ENCODING 506
SWIDTH 870 0
DWIDTH 28 0
BBX 17 29 0 0
BITMAP
006000
00E000
01C000
03E000
07F000
033000
033000
03F000
01E000
01C000
01C000
01E000
03A000
03A000
073000
071000
071800
0E0800
0E0800
1E0C00
1C0400
1FFC00
3FFE00
300600
300700
600300
600300
E00180
C00180
ENDCHAR
STARTCHAR aringacute
ENCODING 507
SWIDTH 870 0
DWIDTH 28 0
BBX 14 27 2 0
BITMAP
0040
00E0
03C0
0700
0FC0
07E0
0630
0630
0630
03E0
01C0
0000
07E0
3FF8
3C3C
000C
000C
000C
0FFC
3FFC
780C
E00C
C00C
C01C
E07C
7FEC
1F8C
ENDCHAR
STARTCHAR AEacute
ENCODING 508
SWIDTH 870 0
DWIDTH 28 0
BBX 17 25 0 0
BITMAP
000200
000E00
001C00
003800
007000
006000
07FF80
07FF80
06C000
0CC000
0CC000
0CC000
1CC000
18C000
18FC00
18FC00
38C000
3FC000
3FC000
30C000
60C000
60C000
60C000
E0FF80
C0FF80
ENDCHAR
STARTCHAR aeacute
ENCODING 509
SWIDTH 870 0
DWIDTH 28 0
BBX 19 22 0 0
BITMAP
000600
000E00
003C00
007000
006000
000000
000000
0F0F00
3FDF80
31F1C0
00F0C0
0060C0
0060E0
1FE0E0
7FFFE0
E07FE0
C06000
C06000
C0F060
61F8E0
7F7FC0
1E4F00
ENDCHAR
STARTCHAR Oslashacute
ENCODING 510
SWIDTH 870 0
DWIDTH 28 0
BBX 16 27 1 -2
BITMAP
0030
0070
00E0
0180
0301
07E3
0FF6
1C3E
380C
701E
603E
E037
C063
C0E3
C0C3
C183
C303
C603
C607
6C06
780E
300C
7C38
6FF0
C7E0
C000
8000
ENDCHAR
STARTCHAR oslashacute
ENCODING 511
SWIDTH 870 0
DWIDTH 28 0
BBX 16 24 1 -2
BITMAP
0060
00E0
01C0
0380
0700
0000
0001
07E3
1FFE
383C
703E
6036
C063
C0C3
C183
C303
C603
6E06
7C0E
3C1C
7FF8
E7E0
C000
8000
ENDCHAR
STARTCHAR uni0200
ENCODING 512
SWIDTH 870 0
DWIDTH 28 0
BBX 17 25 1 0
BITMAP
460000
E70000
7B8000
1DC000
0CE000
07E000
03C000
03C000
036000
066000
066000
063000
0C3000
0C3800
1C1800
181800
180C00
3FFC00
3FFC00
700600
600600
600700
E00300
C00300
C00180
ENDCHAR
STARTCHAR uni0201
ENCODING 513
SWIDTH 870 0
DWIDTH 28 0
BBX 14 22 2 0
BITMAP
C600
E700
7380
39C0
1CE0
0C60
0000
07E0
3FF8
3C3C
000C
000C
000C
0FFC
3FFC
780C
E00C
C00C
C01C
E07C
7FFC
1F8C
ENDCHAR
STARTCHAR uni0202
ENCODING 514
SWIDTH 870 0
DWIDTH 28 0
BBX 17 25 1 0
BITMAP
01E000
07F800
061800
0C0C00
0C0C00
018000
03C000
03C000
036000
076000
072000
063000
0E3000
0C1800
1C1800
1C1800
180C00
3FFC00
3FFC00
700600
600600
600700
E00300
C00300
C00180
ENDCHAR
STARTCHAR uni0203
ENCODING 515
SWIDTH 870 0
DWIDTH 28 0
BBX 14 21 2 0
BITMAP
03C0
0FF0
0C30
1818
1818
0000
07E0
3FF8
3C3C
000C
000C
000C
0FFC
3FFC
780C
E00C
C00C
C01C
E07C
7FFC
1F8C
ENDCHAR
STARTCHAR uni0204
ENCODING 516
SWIDTH 870 0
DWIDTH 28 0
BBX 14 25 2 0
BITMAP
C400
EE00
7700
3B80
1CC0
0C60
7FFC
7FFC
6000
6000
6000
6000
6000
6000
7FC0
7FC0
6000
6000
6000
6000
6000
6000
6000
7FFC
7FFC
ENDCHAR
STARTCHAR uni0205
ENCODING 517
SWIDTH 870 0
DWIDTH 28 0
BBX 16 22 2 0
BITMAP
6600
7700
3B80
1DC0
0EE0
0660
0000
07C0
1FF0
3878
601C
401C
C00C
C00C
FFFE
FFFE
C000
6002
6007
380E
1FFC
07E0
ENDCHAR
STARTCHAR uni0206
ENCODING 518
SWIDTH 870 0
DWIDTH 28 0
BBX 13 25 2 0
BITMAP
0780
1FE0
1860
3030
3030
0000
FFF8
FFF8
C000
C000
C000
C000
C000
C000
FF80
FF80
C000
C000
C000
C000
C000
C000
C000
FFF8
FFF8
ENDCHAR
STARTCHAR uni0207
ENCODING 519
SWIDTH 870 0
DWIDTH 28 0
BBX 16 21 1 0
BITMAP
03C0
0FF0
0C30
1818
1818
0000
07C0
1FF0
3C38
700C
600C
E004
E004
FFFE
FFFE
C000
6002
6007
380E
1FFC
07E0
ENDCHAR
STARTCHAR uni0208
ENCODING 520
SWIDTH 870 0
DWIDTH 28 0
BBX 14 25 2 0
BITMAP
C400
E600
7780
39C0
1CE0
0C60
3FFC
3FFC
0180
0180
0180
0180
0180
0180
0180
0180
0180
0180
0180
0180
0180
0180
0180
3FFC
3FFC
ENDCHAR
STARTCHAR uni0209
ENCODING 521
SWIDTH 870 0
DWIDTH 28 0
BBX 14 22 3 0
BITMAP
CC00
EE00
7700
3B80
1DC0
0CC0
0000
0000
7F00
7F00
0300
0300
0300
0300
0300
0300
0300
0300
0300
0300
FFFC
FFFC
ENDCHAR
STARTCHAR uni020A
ENCODING 522
SWIDTH 870 0
DWIDTH 28 0
BBX 12 25 3 0
BITMAP
0F00
3FC0
30C0
6060
6060
0000
FFF0
FFF0
0600
0600
0600
0600
0600
0600
0600
0600
0600
0600
0600
0600
0600
0600
0600
FFF0
FFF0
ENDCHAR
STARTCHAR uni020B
ENCODING 523
SWIDTH 870 0
DWIDTH 28 0
BBX 14 21 2 0
BITMAP
0780
1FE0
1860
3030
3030
0000
0000
7F00
7F00
0300
0300
0300
0300
0300
0300
0300
0300
0300
0300
FFFC
FFFC
ENDCHAR
STARTCHAR uni020C
ENCODING 524
SWIDTH 870 0
DWIDTH 28 0
BBX 16 25 1 0
BITMAP
4600
7700
3B80
1DC0
0EE0
07E0
0FF0
1C38
380C
700E
6006
E006
C003
C003
C003
C003
C003
C003
E007
6006
700E
301C
1C38
0FF0
07E0
ENDCHAR
STARTCHAR uni020D
ENCODING 525
SWIDTH 870 0
DWIDTH 28 0
BBX 16 22 1 0
BITMAP
6300
7380
39C0
1CE0
0E70
0630
0000
07E0
1FF8
3C3C
700E
6006
C003
C003
C003
C003
C003
6006
700E
381C
1FF8
07E0
ENDCHAR
STARTCHAR uni020E
ENCODING 526
SWIDTH 870 0
DWIDTH 28 0
BBX 16 25 1 0
BITMAP
01E0
07F8
0618
0C0C
0C0C
07E0
0FF0
1C38
380C
700E
6006
E006
C003
C003
C003
C003
C003
C003
E007
6006
700E
301C
1C38
0FF0
07E0
ENDCHAR
STARTCHAR uni020F
ENCODING 527
SWIDTH 870 0
DWIDTH 28 0
BBX 16 21 1 0
BITMAP
03E0
07F0
0630
0C18
0C18
0000
07E0
1FF8
3C3C
700E
6006
C003
C003
C003
C003
C003
6006
700E
381C
1FF8
07E0
ENDCHAR
STARTCHAR uni0210
ENCODING 528
SWIDTH 870 0
DWIDTH 28 0
BBX 17 25 1 0
BITMAP
C40000
EE0000
770000
3B8000
1DC000
0C6000
7FC000
7FF000
603800
601C00
600C00
600C00
600C00
601C00
607800
6FE000
7FC000
60E000
607000
603800
601C00
600C00
600E00
600780
600380
ENDCHAR
STARTCHAR uni0211
ENCODING 529
SWIDTH 870 0
DWIDTH 28 0
BBX 14 22 2 0
BITMAP
C600
E700
7B80
1DC0
0EE0
0660
0000
10F0
31FC
378C
3E00
3C00
3800
3000
3000
3000
3000
3000
3000
3000
3000
1000
ENDCHAR
STARTCHAR uni0212
ENCODING 530
SWIDTH 870 0
DWIDTH 28 0
BBX 16 25 1 0
BITMAP
0780
1FE0
1860
3030
3030
0000
FF80
FFE0
C070
C038
C018
C018
C018
C038
C0F0
FFC0
FF80
C1C0
C0E0
C070
C030
C018
C01C
C00F
C007
ENDCHAR
STARTCHAR uni0213
ENCODING 531
SWIDTH 870 0
DWIDTH 28 0
BBX 12 21 3 0
BITMAP
1E00
7F80
6180
C0C0
C0C0
0000
C3C0
CFE0
DC70
F800
F000
E000
C000
C000
C000
C000
C000
C000
C000
C000
C000
ENDCHAR
STARTCHAR uni0214
ENCODING 532
SWIDTH 870 0
DWIDTH 28 0
BBX 15 25 2 0
BITMAP
C400
EE00
7700
3B80
1CC0
0C60
6006
6006
6006
6006
6006
6006
6006
6006
6006
6006
6006
6006
6006
6006
700E
300C
3C3C
1FF8
07E0
ENDCHAR
STARTCHAR uni0215
ENCODING 533
SWIDTH 870 0
DWIDTH 28 0
BBX 14 22 2 0
BITMAP
C600
E700
7B80
1DC0
0EE0
0660
0000
300C
300C
300C
300C
300C
300C
300C
300C
300C
300C
300C
303C
387C
1FFC
0F8C
ENDCHAR
STARTCHAR uni0216
ENCODING 534
SWIDTH 870 0
DWIDTH 28 0
BBX 14 25 2 0
BITMAP
0780
1FE0
1860
3030
3030
C00C
C00C
C00C
C00C
C00C
C00C
C00C
C00C
C00C
C00C
C00C
C00C
C00C
C00C
C00C
E01C
6018
3870
1FE0
0FC0
ENDCHAR
STARTCHAR uni0217
ENCODING 535
SWIDTH 870 0
DWIDTH 28 0
BBX 13 21 3 0
BITMAP
0F00
3FC0
30C0
6060
6060
0000
C018
C018
C018
C018
C018
C018
C018
C018
C018
C018
C018
C078
E0F8
7FF8
1F18
ENDCHAR
STARTCHAR uni0218
ENCODING 536
SWIDTH 870 0
DWIDTH 28 0
BBX 14 27 2 -7
BITMAP
07C0
1FF0
3838
7018
600C
600C
6000
7000
3C00
0FE0
03F0
0038
000C
800C
C00C
C00C
E01C
7078
3FF0
0FC0
0000
0700
0780
0780
0180
0300
0600
ENDCHAR
STARTCHAR uni0219
ENCODING 537
SWIDTH 870 0
DWIDTH 28 0
BBX 13 22 3 -7
BITMAP
1F80
7FE0
F070
C030
C030
E000
7FC0
0FE0
0070
8018
C018
C018
F070
7FF0
1FC0
0000
0700
0780
0780
0180
0300
0600
ENDCHAR
STARTCHAR uni021A
ENCODING 538
SWIDTH 870 0
DWIDTH 28 0
BBX 16 26 1 -7
BITMAP
FFFF
FFFF
0180
0180
0180
0180
0180
0180
0180
0180
0180
0180
0180
0180
0180
0180
0180
0180
0180
0380
03C0
03C0
00C0
0080
0180
0300
ENDCHAR
STARTCHAR uni021B
ENCODING 539
SWIDTH 870 0
DWIDTH 28 0
BBX 11 26 4 -7
BITMAP
1800
1800
1800
1800
1800
FFE0
FFE0
1800
1800
1800
1800
1800
1800
1800
1800
1800
1C00
0FE0
03E0
0000
0E00
0F00
0F00
0300
0600
0C00
ENDCHAR
STARTCHAR uni021C
ENCODING 540
SWIDTH 870 0
DWIDTH 28 0
BBX 14 26 2 -5
BITMAP
CFC0
FFE0
F870
E038
C018
C018
0018
0038
00F0
01E0
03F0
0638
001C
000C
000C
000C
000C
0018
0078
07F0
1FC0
3C00
3000
6000
6000
6000
ENDCHAR
STARTCHAR uni021D
ENCODING 541
SWIDTH 870 0
DWIDTH 28 0
BBX 14 26 2 -10
BITMAP
CFC0
FFE0
F870
E038
C018
C018
0018
0038
0070
01E0
03E0
07F8
0238
001C
000C
000C
000C
000C
0018
0070
07E0
1FC0
3800
7000
6000
6000
ENDCHAR
STARTCHAR uni021E
ENCODING 542
SWIDTH 870 0
DWIDTH 28 0
BBX 12 25 3 0
BITMAP
6060
70E0
3DC0
0F00
0600
C030
C030
C030
C030
C030
C030
C030
C030
C030
FFF0
FFF0
C030
C030
C030
C030
C030
C030
C030
C030
C030
ENDCHAR
STARTCHAR uni021F
ENCODING 543
SWIDTH 870 0
DWIDTH 28 0
BBX 12 21 3 0
BITMAP
F030
F870
DEE0
C780
C300
C000
CF80
DFE0
F0E0
E030
C030
C030
C030
C030
C030
C030
C030
C030
C030
C030
C030
ENDCHAR
STARTCHAR uni0220
ENCODING 544
SWIDTH 870 0
DWIDTH 28 0
BBX 14 27 2 -7
BITMAP
CFC0
DFF0
F038
E01C
C00C
C00C
C00C
C00C
C00C
C00C
C00C
C00C
C00C
C00C
C00C
C00C
C00C
C00C
C00C
C00C
000C
000C
000C
000C
000C
000C
000C
ENDCHAR
STARTCHAR uni0221
ENCODING 545
SWIDTH 870 0
DWIDTH 28 0
BBX 18 26 0 -5
BITMAP
00C000
00C000
00C000
00C000
00C000
00C000
1EC000
3FC000
73C000
61C000
C0C000
C0C000
C0C000
C0C000
C0C000
C0C000
C0C000
61C780
61CFC0
3FD8C0
1EF180
007F00
007E00
00C000
008000
018000
ENDCHAR
STARTCHAR uni0222
ENCODING 546
SWIDTH 870 0
DWIDTH 28 0
BBX 15 21 2 0
BITMAP
1C70
3C78
701C
E00C
C006
C006
C006
E00C
703C
3FF8
3FF0
783C
E00C
C006
C006
C006
C006
E00C
783C
3FF8
0FC0
ENDCHAR
STARTCHAR uni0223
ENCODING 547
SWIDTH 870 0
DWIDTH 28 0
BBX 12 21 3 0
BITMAP
1F00
3FC0
70E0
E060
C030
C030
C030
E060
70E0
3FC0
3FC0
70E0
E060
C030
C030
C030
C030
E060
70E0
3FC0
1F00
ENDCHAR
STARTCHAR uni0224
ENCODING 548
SWIDTH 870 0
DWIDTH 28 0
BBX 15 24 2 -5
BITMAP
7FFC
FFFC
0018
0030
0070
0060
00C0
01C0
0380
0300
0700
0E00
0C00
1800
3800
3000
6000
FFFE
FFFE
0006
0004
000C
0018
0030
ENDCHAR
STARTCHAR uni0225
ENCODING 549
SWIDTH 870 0
DWIDTH 28 0
BBX 14 19 2 -5
BITMAP
FFF8
FFF0
0070
00E0
01C0
0380
0300
0600
0C00
1800
3000
6000
FFFC
FFFC
000C
0008
0018
0030
0060
ENDCHAR
STARTCHAR uni0226
ENCODING 550
SWIDTH 870 0
DWIDTH 28 0
BBX 17 24 1 0
BITMAP
01C000
01C000
01C000
000000
018000
03C000
03C000
036000
076000
062000
063000
0E3000
0C1800
1C1800
1C1800
180C00
3FFC00
3FFC00
700600
600600
600700
E00300
C00300
C00180
ENDCHAR
STARTCHAR uni0227
ENCODING 551
SWIDTH 870 0
DWIDTH 28 0
BBX 14 20 2 0
BITMAP
0380
0380
0380
0000
0000
07E0
3FF8
3C3C
000C
000C
000C
0FFC
3FFC
780C
E00C
C00C
C01C
E07C
7FFC
1F8C
ENDCHAR
STARTCHAR uni0228
ENCODING 552
SWIDTH 870 0
DWIDTH 28 0
BBX 13 26 2 -7
BITMAP
FFF8
FFF8
C000
C000
C000
C000
C000
C000
FF80
FF80
C000
C000
C000
C000
C000
C000
C000
FFF8
FFF8
0100
0100
0100
01C0
04C0
0FC0
0780
ENDCHAR
STARTCHAR uni0229
ENCODING 553
SWIDTH 870 0
DWIDTH 28 0
BBX 16 22 1 -7
BITMAP
07E0
1FF0
3C38
700C
600C
6006
E006
FFFE
FFFE
4000
6003
3007
3C0E
0FFC
07F0
0080
0080
00C0
00E0
0260
07E0
03C0
ENDCHAR
STARTCHAR uni022A
ENCODING 554
SWIDTH 870 0
DWIDTH 28 0
BBX 16 27 1 0
BITMAP
1FFC
1FFC
0E38
0E38
0E38
0000
0000
07E0
0FF0
1C38
380C
700E
6006
E006
C003
C003
C003
C003
C003
C003
E007
6006
700E
301C
1C38
0FF0
07E0
ENDCHAR
STARTCHAR uni022B
ENCODING 555
SWIDTH 870 0
DWIDTH 28 0
BBX 16 23 1 0
BITMAP
1FFC
1FFC
0000
0E38
0E38
0E38
0000
0000
07E0
1FF8
3C3C
700E
6006
C003
C003
C003
C003
C003
6006
700E
381C
1FF8
07E0
ENDCHAR
STARTCHAR uni022C
ENCODING 556
SWIDTH 870 0
DWIDTH 28 0
BBX 16 27 1 0
BITMAP
1FF8
1FFC
0000
0708
0F9C
1DF8
1860
07E0
0FF0
1C38
380C
700E
6006
E006
C003
C003
C003
C003
C003
C003
E007
6006
700E
301C
1C38
0FF0
07E0
ENDCHAR
STARTCHAR uni022D
ENCODING 557
SWIDTH 870 0
DWIDTH 28 0
BBX 16 23 1 0
BITMAP
1FF8
1FFC
0000
0708
0F98
1DF8
18E0
0000
07E0
1FF8
3C3C
700E
6006
C003
C003
C003
C003
C003
6006
700E
381C
1FF8
07E0
ENDCHAR
STARTCHAR uni022E
ENCODING 558
SWIDTH 870 0
DWIDTH 28 0
BBX 16 24 1 0
BITMAP
01C0
01C0
01C0
0000
07E0
0FF0
1C38
380C
700E
6006
E006
C003
C003
C003
C003
C003
C003
E007
6006
700E
301C
1C38
0FF0
07E0
ENDCHAR
STARTCHAR uni022F
ENCODING 559
SWIDTH 870 0
DWIDTH 28 0
BBX 16 20 1 0
BITMAP
01C0
01C0
01C0
0000
0000
07E0
1FF8
3C3C
700E
6006
C003
C003
C003
C003
C003
6006
700E
381C
1FF8
07E0
ENDCHAR
STARTCHAR uni0230
ENCODING 560
SWIDTH 870 0
DWIDTH 28 0
BBX 16 27 1 0
BITMAP
1FFC
1FFC
01C0
01C0
01C0
0000
0000
07E0
0FF0
1C38
380C
700E
6006
E006
C003
C003
C003
C003
C003
C003
E007
6006
700E
301C
1C38
0FF0
07E0
ENDCHAR
STARTCHAR uni0231
ENCODING 561
SWIDTH 870 0
DWIDTH 28 0
BBX 16 23 1 0
BITMAP
1FF8
1FFC
0000
01C0
01C0
01C0
0000
0000
07E0
1FF8
3C3C
700E
6006
C003
C003
C003
C003
C003
6006
700E
381C
1FF8
07E0
ENDCHAR
STARTCHAR uni0232
ENCODING 562
SWIDTH 870 0
DWIDTH 28 0
BBX 14 23 2 0
BITMAP
3FF0
3FF8
0000
800C
C00C
E018
6038
3030
3860
18E0
0CC0
0FC0
0780
0300
0300
0300
0300
0300
0300
0300
0300
0300
0300
ENDCHAR
STARTCHAR uni0233
ENCODING 563
SWIDTH 870 0
DWIDTH 28 0
BBX 16 26 1 -7
BITMAP
1FF8
1FFC
0000
0000
0000
E003
6006
3006
300C
180C
180C
1C18
0C18
0E30
0630
0760
0360
03C0
01C0
0180
0180
0300
0300
0700
1E00
1C00
ENDCHAR
STARTCHAR uni0234
ENCODING 564
SWIDTH 870 0
DWIDTH 28 0
BBX 18 24 0 -3
BITMAP
FC0000
FC0000
0C0000
0C0000
0C0000
0C0000
0C0000
0C0000
0C0000
0C0000
0C0000
0C0000
0C0000
0C0000
0C0000
0C0000
0C0780
0C1FC0
0671C0
03FF00
01FC00
030000
060000
040000
ENDCHAR
STARTCHAR uni0235
ENCODING 565
SWIDTH 870 0
DWIDTH 28 0
BBX 19 22 0 -7
BITMAP
DE0000
FF0000
E38000
E18000
C18000
C18000
C18000
C18000
C18000
C18000
C18000
C18000
C18000
C183C0
C18FE0
019C60
01F9C0
00FF80
007E00
00C000
018000
010000
ENDCHAR
STARTCHAR uni0236
ENCODING 566
SWIDTH 870 0
DWIDTH 28 0
BBX 18 23 0 -4
BITMAP
180000
180000
180000
180000
180000
FFC000
FFC000
180000
180000
180000
180000
180000
180000
180000
180F80
183FC0
1C70C0
0EC380
07FF00
03F800
060000
0C0000
080000
ENDCHAR
STARTCHAR uni0237
ENCODING 567
SWIDTH 870 0
DWIDTH 28 0
BBX 8 21 5 -7
BITMAP
3F
3F
03
03
03
03
03
03
03
03
03
03
03
03
03
03
03
06
0E
FC
F8
ENDCHAR
STARTCHAR uni0238
ENCODING 568
SWIDTH 870 0
DWIDTH 28 0
BBX 17 21 0 0
BITMAP
00C000
00C000
00C000
00C000
00C000
00C000
1EDC00
3FFE00
73F700
61E300
E1C180
C0C180
C0C180
C0C180
C0C180
C0C180
E1C180
61E300
73E700
3FFE00
1E9C00
ENDCHAR
STARTCHAR uni0239
ENCODING 569
SWIDTH 870 0
DWIDTH 28 0
BBX 17 22 0 -7
BITMAP
1EFC00
3FFE00
73E300
61E300
E0C180
C0C180
C0C180
C0C180
C0C180
C0C180
E1C180
61E300
73F700
3FFE00
1EDC00
00C000
00C000
00C000
00C000
00C000
00C000
00C000
ENDCHAR
STARTCHAR uni023A
ENCODING 570
SWIDTH 870 0
DWIDTH 28 0
BBX 17 22 1 -2
BITMAP
018180
03C300
03C700
03C600
076C00
067800
063000
0C7000
0C7000
1CD800
199800
1B8C00
3FFC00
3FFC00
3E0600
7C0600
780700
F00300
F00300
E00180
C00000
C00000
ENDCHAR
STARTCHAR uni023B
ENCODING 571
SWIDTH 870 0
DWIDTH 28 0
BBX 17 22 0 -2
BITMAP
03F180
07FF80
0E0F00
1C0700
380F00
301F00
301B00
603000
606000
606000
60C000
618000
630000
620000
360000
3C0380
1C0300
3E0E00
77FC00
61F000
C00000
400000
ENDCHAR
STARTCHAR uni023C
ENCODING 572
SWIDTH 870 0
DWIDTH 28 0
BBX 17 18 1 -2
BITMAP
000180
03F300
0FFF00
1C1E00
381E00
303E00
603600
606000
60C000
618000
630000
360100
3C0700
3C1E00
7FFC00
63F000
E00000
400000
ENDCHAR
STARTCHAR uni023D
ENCODING 573
SWIDTH 870 0
DWIDTH 28 0
BBX 18 20 0 0
BITMAP
060000
060000
060000
060000
060000
060000
060000
060000
060000
FFE000
FFE000
060000
060000
060000
060000
060000
060000
060000
07FFC0
07FFC0
ENDCHAR
STARTCHAR uni023E
ENCODING 574
SWIDTH 870 0
DWIDTH 28 0
BBX 16 22 1 -2
BITMAP
0003
FFFF
FFFF
018C
019C
0198
01B0
01E0
01E0
01C0
0180
0380
0780
0F80
0D80
1980
3980
7180
6180
E180
C000
8000
ENDCHAR
STARTCHAR uni023F
ENCODING 575
SWIDTH 870 0
DWIDTH 28 0
BBX 13 22 3 -7
BITMAP
1F80
7FE0
E070
C030
C030
F000
7F00
07E0
0070
C018
C018
C018
F070
7FF0
7FC0
3000
3000
1800
1C00
0E00
07E0
03C0
ENDCHAR
STARTCHAR uni0240
ENCODING 576
SWIDTH 870 0
DWIDTH 28 0
BBX 13 21 2 -7
BITMAP
FFF8
FFF8
0030
0060
00C0
0180
0380
0700
0E00
1C00
3800
3000
6000
E000
3000
3000
1800
1C00
0E00
07E0
01C0
ENDCHAR
STARTCHAR uni0241
ENCODING 577
SWIDTH 870 0
DWIDTH 28 0
BBX 15 19 2 0
BITMAP
0FC0
3FF0
7038
600C
C006
0006
0006
000E
001C
007C
03F8
03E0
0300
0300
0300
0300
0300
0300
0300
ENDCHAR
STARTCHAR uni0242
ENCODING 578
SWIDTH 870 0
DWIDTH 28 0
BBX 12 15 3 0
BITMAP
1F00
3FC0
70E0
C070
C030
0030
0030
0070
00E0
03C0
0700
0600
0600
0600
0600
ENDCHAR
STARTCHAR uni0243
ENCODING 579
SWIDTH 870 0
DWIDTH 28 0
BBX 17 19 -1 0
BITMAP
1FF800
1FFC00
180E00
180700
180300
180300
180300
180E00
1BFC00
1BFE00
180700
180380
180180
FFE180
FFE180
180380
180700
1FFE00
1FFC00
ENDCHAR
STARTCHAR uni0244
ENCODING 580
SWIDTH 870 0
DWIDTH 28 0
BBX 18 20 0 0
BITMAP
300300
300300
300300
300300
300300
300300
300300
300300
300300
300300
FFFFC0
FFFFC0
300300
300300
300300
300300
180600
1E1E00
0FFC00
03F000
ENDCHAR
STARTCHAR uni0245
ENCODING 581
SWIDTH 870 0
DWIDTH 28 0
BBX 16 20 1 0
BITMAP
0180
01C0
03C0
03C0
0360
0660
0630
0E30
0C30
0C18
1818
181C
180C
300C
3006
7006
6006
6003
C003
C001
ENDCHAR
STARTCHAR uni0246
ENCODING 582
SWIDTH 870 0
DWIDTH 28 0
BBX 17 22 0 -2
BITMAP
000180
3FFF80
3FFF00
300600
300E00
301C00
301800
303000
306000
3FE000
3FE000
318000
330000
330000
360000
3C0000
380000
380000
3FFE00
7FFE00
600000
C00000
ENDCHAR
STARTCHAR uni0247
ENCODING 583
SWIDTH 870 0
DWIDTH 28 0
BBX 16 18 1 -2
BITMAP
0001
07E3
1FFE
3C3E
701C
603C
6036
E066
FFFE
FFFE
4300
6603
2C07
3C0E
7FFC
E3E0
C000
C000
ENDCHAR
STARTCHAR uni0248
ENCODING 584
SWIDTH 870 0
DWIDTH 28 0
BBX 17 19 3 0
BITMAP
07F800
07F800
001800
001800
001800
001800
001800
001800
03FF80
03FF80
401800
C01800
C01800
C01800
C01800
E03000
707000
3FE000
1F8000
ENDCHAR
STARTCHAR uni0249
ENCODING 585
SWIDTH 870 0
DWIDTH 28 0
BBX 12 27 5 -7
BITMAP
0700
0700
0700
0000
0000
0000
3F00
3F00
0300
0300
0300
7FF0
7FF0
0300
0300
0300
0300
0300
0300
0300
0300
0300
0300
0600
0E00
FC00
F800
ENDCHAR
STARTCHAR uni024A
ENCODING 586
SWIDTH 870 0
DWIDTH 28 0
BBX 19 26 0 -6
BITMAP
0F9800
1FF800
387800
703800
601800
601800
C01800
C01800
C01800
C01800
C01800
C01800
C01800
E01800
601800
601800
303800
387800
1FF800
0F9800
001800
001800
001C00
000E00
0007E0
0003E0
ENDCHAR
STARTCHAR uni024B
ENCODING 587
SWIDTH 870 0
DWIDTH 28 0
BBX 18 21 0 -6
BITMAP
0F3000
3FB000
70F000
607000
E07000
C03000
C03000
C03000
C03000
C03000
E07000
607000
70F000
3FB000
0F3000
003000
003000
003800
001C00
000FC0
0007C0
ENDCHAR
STARTCHAR uni024C
ENCODING 588
SWIDTH 870 0
DWIDTH 28 0
BBX 18 19 0 0
BITMAP
3FE000
3FF800
301C00
300E00
300600
300600
300600
300E00
303C00
FFF800
FFE000
307000
303800
301C00
300C00
300600
300700
3003C0
3001C0
ENDCHAR
STARTCHAR uni024D
ENCODING 589
SWIDTH 870 0
DWIDTH 28 0
BBX 16 15 0 0
BITMAP
0C3C
0CFE
0DC7
0F80
0F00
0E00
FFC0
FFC0
0C00
0C00
0C00
0C00
0C00
0C00
0C00
ENDCHAR
STARTCHAR uni024E
ENCODING 590
SWIDTH 870 0
DWIDTH 28 0
BBX 14 20 3 0
BITMAP
800C
C00C
E018
6038
3030
3860
18E0
0CC0
0FC0
0780
0300
0300
7F80
7FF0
7FF0
0300
0300
0300
0300
0300
ENDCHAR
STARTCHAR uni024F
ENCODING 591
SWIDTH 870 0
DWIDTH 28 0
BBX 16 22 1 -7
BITMAP
C003
6003
6006
3006
300C
180C
FFFF
FFFF
0C30
0630
0660
0360
0360
01C0
01C0
0180
0180
0300
0300
0600
1E00
1C00
ENDCHAR
STARTCHAR uni0250
ENCODING 592
SWIDTH 870 0
DWIDTH 28 0
BBX 14 15 2 0
BITMAP
87E0
DFF8
FC18
F00C
C00C
C00C
C01C
C078
FFF0
FFC0
C000
C000
E0F0
7FF0
1F80
ENDCHAR
STARTCHAR uni0251
ENCODING 593
SWIDTH 870 0
DWIDTH 28 0
BBX 16 15 2 0
BITMAP
0F8C
1FEC
387C
703C
601C
C00C
C00C
C00C
C00C
C00C
601C
703C
387C
1FFF
0FCF
ENDCHAR
STARTCHAR uni0252
ENCODING 594
SWIDTH 870 0
DWIDTH 28 0
BBX 16 14 2 0
BITMAP
F7E0
FFF8
3E1C
3806
3807
3003
3003
3003
3003
3807
3806
3E1C
37F8
33F0
ENDCHAR
STARTCHAR uni0253
ENCODING 595
SWIDTH 870 0
DWIDTH 28 0
BBX 15 21 2 0
BITMAP
1F00
7F00
6000
C000
C000
C000
C7C0
DFF0
F838
F01C
E00C
C006
C006
C006
C006
C006
E00C
F01C
F838
DFF0
C7C0
ENDCHAR
STARTCHAR uni0254
ENCODING 596
SWIDTH 870 0
DWIDTH 28 0
BBX 15 15 2 0
BITMAP
07C0
3FF0
7838
E01C
800C
0006
0006
0006
0006
4006
600C
601C
7838
3FF0
0FC0
ENDCHAR
STARTCHAR uni0255
ENCODING 597
SWIDTH 870 0
DWIDTH 28 0
BBX 15 18 2 -3
BITMAP
07C0
1FF0
3838
701C
600C
E00C
C000
C000
C000
C000
C07C
61FE
638E
3FF8
0FE0
1800
3000
6000
ENDCHAR
STARTCHAR uni0256
ENCODING 598
SWIDTH 870 0
DWIDTH 28 0
BBX 19 28 0 -7
BITMAP
001800
001800
001800
001800
001800
001800
0F9800
3FD800
38F800
603800
E03800
C01800
C01800
C01800
C01800
C01800
E03800
603800
78F800
3FD800
0F1800
001800
001800
001800
000C00
000E00
0007E0
0003E0
ENDCHAR
STARTCHAR uni0257
ENCODING 599
SWIDTH 870 0
DWIDTH 28 0
BBX 18 21 0 0
BITMAP
0003C0
000FC0
001C00
001800
001800
001800
0F9800
3FD800
38F800
603800
E03800
C01800
C01800
C01800
C01800
C01800
E03800
603800
38F800
3FD800
0F9800
ENDCHAR
STARTCHAR uni0258
ENCODING 600
SWIDTH 870 0
DWIDTH 28 0
BBX 16 15 1 0
BITMAP
03E0
0FF8
1C1C
380E
3007
3003
3003
3FFF
7FFF
0003
C006
E006
781C
1FF8
07E0
ENDCHAR
STARTCHAR uni0259
ENCODING 601
SWIDTH 870 0
DWIDTH 28 0
BBX 16 15 1 0
BITMAP
07E0
1FF8
781C
E00E
C006
0003
0003
7FFF
3FFF
3003
3007
3006
1C1C
0FF8
07E0
ENDCHAR
STARTCHAR uni025A
ENCODING 602
SWIDTH 870 0
DWIDTH 28 0
BBX 20 15 -1 0
BITMAP
07C000
1FF000
787800
E01F30
C01F70
0077E0
01C6C0
070600
1C0600
700600
600C00
701C00
383800
1FF000
07C000
ENDCHAR
STARTCHAR uni025B
ENCODING 603
SWIDTH 870 0
DWIDTH 28 0
BBX 12 15 3 0
BITMAP
3F00
7F80
E1C0
C0C0
C000
E000
7E00
7E00
7000
C000
C000
C000
60F0
7FE0
1F80
ENDCHAR
STARTCHAR uni025C
ENCODING 604
SWIDTH 870 0
DWIDTH 28 0
BBX 12 15 2 0
BITMAP
0FC0
3FE0
3870
2030
0030
0070
07E0
07E0
00F0
0030
0030
0030
F060
7FE0
1F80
ENDCHAR
STARTCHAR uni025D
ENCODING 605
SWIDTH 870 0
DWIDTH 28 0
BBX 18 15 0 0
BITMAP
1F8000
7FC000
70F880
4079C0
007F80
00E600
0FC000
0FC000
00E000
003000
003000
003000
F06000
7FE000
1F8000
ENDCHAR
STARTCHAR uni025E
ENCODING 606
SWIDTH 870 0
DWIDTH 28 0
BBX 13 15 2 0
BITMAP
07C0
1FF0
3838
7018
6018
C038
C3F0
C3F0
C078
C018
6018
7018
3830
1FF0
0FC0
ENDCHAR
STARTCHAR uni025F
ENCODING 607
SWIDTH 870 0
DWIDTH 28 0
BBX 12 21 3 -6
BITMAP
0300
0300
0300
0300
0300
0300
0300
0300
0300
0300
0300
0300
0300
FFF0
FFF0
0300
0300
0300
0700
FE00
F800
ENDCHAR
STARTCHAR uni0260
ENCODING 608
SWIDTH 870 0
DWIDTH 28 0
BBX 18 28 0 -7
BITMAP
0003C0
000FC0
001C00
001800
001800
001800
0F9800
1FD800
38F800
603800
E03800
C01800
C01800
C01800
C01800
C01800
603800
603800
38F800
3FD800
0F9800
001800
001800
001800
003800
007000
3FE000
3FC000
ENDCHAR
STARTCHAR uni0261
ENCODING 609
SWIDTH 870 0
DWIDTH 28 0
BBX 14 22 2 -7
BITMAP
0F8C
1FEC
387C
703C
601C
C00C
C00C
C00C
C00C
C00C
601C
603C
387C
1FEC
0FCC
000C
000C
000C
001C
0038
1FF0
1FE0
ENDCHAR
STARTCHAR uni0262
ENCODING 610
SWIDTH 870 0
DWIDTH 28 0
BBX 13 15 3 0
BITMAP
0FA0
1FF0
3070
6030
6030
C000
C000
C000
C1F8
C1F8
6018
7030
3870
1FE0
0F80
ENDCHAR
STARTCHAR uni0263
ENCODING 611
SWIDTH 870 0
DWIDTH 28 0
BBX 14 20 2 -5
BITMAP
800C
C01C
6018
6038
3030
3860
18E0
0CC0
0FC0
0780
0300
0300
0780
0480
0CC0
0CC0
0CC0
0CC0
0FC0
0780
ENDCHAR
STARTCHAR uni0264
ENCODING 612
SWIDTH 870 0
DWIDTH 28 0
BBX 14 15 2 0
BITMAP
C00C
E01C
7038
3870
1860
0CC0
0FC0
0780
0380
0780
0CC0
0CC0
0CC0
0FC0
0780
ENDCHAR
STARTCHAR uni0265
ENCODING 613
SWIDTH 870 0
DWIDTH 28 0
BBX 12 22 3 -7
BITMAP
C030
C030
C030
C030
C030
C030
C030
C030
C030
C030
C030
C070
70F0
7FF0
1F30
0030
0030
0030
0030
0030
0030
0030
ENDCHAR
STARTCHAR uni0266
ENCODING 614
SWIDTH 870 0
DWIDTH 28 0
BBX 12 21 3 0
BITMAP
1F00
7F00
6000
C000
C000
C000
CF80
DFE0
F0E0
E030
C030
C030
C030
C030
C030
C030
C030
C030
C030
C030
C030
ENDCHAR
STARTCHAR uni0267
ENCODING 615
SWIDTH 870 0
DWIDTH 28 0
BBX 12 28 3 -7
BITMAP
1F00
7F00
6000
C000
C000
C000
CF80
DFE0
F0E0
E030
C030
C030
C030
C030
C030
C030
C030
C030
C030
C030
C030
0030
0030
0030
0070
00E0
0FC0
0F80
ENDCHAR
STARTCHAR uni0268
ENCODING 616
SWIDTH 870 0
DWIDTH 28 0
BBX 14 20 2 0
BITMAP
0700
0700
0700
0000
0000
0000
7F00
7F00
0300
0300
0300
7FF0
7FF0
0300
0300
0300
0300
0300
FFFC
FFFC
ENDCHAR
STARTCHAR uni0269
ENCODING 617
SWIDTH 870 0
DWIDTH 28 0
BBX 10 14 4 0
BITMAP
F800
F800
1800
1800
1800
1800
1800
1800
1800
1800
1800
1C00
0FC0
07C0
ENDCHAR
STARTCHAR uni026A
ENCODING 618
SWIDTH 870 0
DWIDTH 28 0
BBX 12 14 3 0
BITMAP
FFF0
FFF0
0600
0600
0600
0600
0600
0600
0600
0600
0600
0600
FFF0
FFF0
ENDCHAR
STARTCHAR uni026B
ENCODING 619
SWIDTH 870 0
DWIDTH 28 0
BBX 14 21 2 0
BITMAP
7F00
7F00
0300
0300
0300
0300
0300
0300
0300
3F08
7F0C
E39C
C3F8
03E0
0300
0300
0300
0300
0300
FFFC
FFFC
ENDCHAR
STARTCHAR uni026C
ENCODING 620
SWIDTH 870 0
DWIDTH 28 0
BBX 14 21 2 0
BITMAP
7F00
7F00
0300
0300
0300
0300
0300
0300
7B00
DF00
C700
E308
7FFC
3FF0
0300
0300
0300
0300
0300
FFFC
FFFC
ENDCHAR
STARTCHAR uni026D
ENCODING 621
SWIDTH 870 0
DWIDTH 28 0
BBX 13 27 3 -6
BITMAP
FE00
FE00
0600
0600
0600
0600
0600
0600
0600
0600
0600
0600
0600
0600
0600
0600
0600
0600
0600
0600
0600
0600
0600
0700
0380
01F8
00F8
ENDCHAR
STARTCHAR uni026E
ENCODING 622
SWIDTH 870 0
DWIDTH 28 0
BBX 17 26 1 -6
BITMAP
7E0000
7E0000
060000
060000
060000
060000
07FF80
07FF80
060300
060700
060E00
061C00
063800
067000
067C00
060F00
060300
060380
FFF180
FFF180
000180
000180
060300
078700
03FE00
00F800
ENDCHAR
STARTCHAR uni026F
ENCODING 623
SWIDTH 870 0
DWIDTH 28 0
BBX 17 14 1 0
BITMAP
C18180
C18180
C18180
C18180
C18180
C18180
C18180
C18180
C18180
C18180
C38380
E7C780
7EFF80
3C7D80
ENDCHAR
STARTCHAR uni0270
ENCODING 624
SWIDTH 870 0
DWIDTH 28 0
BBX 17 21 1 -7
BITMAP
C18180
C18180
C18180
C18180
C18180
C18180
C18180
C18180
C18180
C18180
C38380
E7C780
7EFF80
3C7D80
000180
000180
000180
000180
000180
000180
000180
ENDCHAR
STARTCHAR uni0271
ENCODING 625
SWIDTH 870 0
DWIDTH 28 0
BBX 17 22 1 -7
BITMAP
DE3E00
FF7F00
F3E380
E1C180
C18180
C18180
C18180
C18180
C18180
C18180
C18180
C18180
C18180
C18180
C18180
000180
000180
000180
000380
000700
007E00
007C00
ENDCHAR
STARTCHAR uni0272
ENCODING 626
SWIDTH 870 0
DWIDTH 28 0
BBX 18 22 0 -7
BITMAP
033E00
037F00
03E180
03C0C0
0380C0
0300C0
0300C0
0300C0
0300C0
0300C0
0300C0
0300C0
0300C0
0300C0
0300C0
030000
030000
030000
070000
0E0000
FC0000
F80000
ENDCHAR
STARTCHAR uni0273
ENCODING 627
SWIDTH 870 0
DWIDTH 28 0
BBX 19 21 0 -6
BITMAP
CFC000
DFE000
F87000
F01800
E01800
C01800
C01800
C01800
C01800
C01800
C01800
C01800
C01800
C01800
C01800
001800
001800
001C00
000E00
0007E0
0003E0
ENDCHAR
STARTCHAR uni0274
ENCODING 628
SWIDTH 870 0
DWIDTH 28 0
BBX 11 15 4 0
BITMAP
C060
E060
E060
F060
F860
D860
CC60
CC60
C660
C360
C360
C1E0
C0E0
C0E0
C060
ENDCHAR
STARTCHAR uni0275
ENCODING 629
SWIDTH 870 0
DWIDTH 28 0
BBX 16 15 1 0
BITMAP
07E0
0FF8
3C3C
300E
7006
6003
E003
FFFF
FFFF
6003
6006
300E
3C1C
0FF8
07E0
ENDCHAR
STARTCHAR uni0276
ENCODING 630
SWIDTH 870 0
DWIDTH 28 0
BBX 14 14 2 0
BITMAP
0FFC
3FFC
7180
6180
C180
C180
C1F0
C1F0
C180
C180
6180
7180
3FFC
0FFC
ENDCHAR
STARTCHAR uni0277
ENCODING 631
SWIDTH 870 0
DWIDTH 28 0
BBX 16 15 1 0
BITMAP
0FF0
3FFC
781E
6006
E007
C003
C183
C183
C183
C183
C183
63C6
63C6
3FFC
1E38
ENDCHAR
STARTCHAR uni0278
ENCODING 632
SWIDTH 870 0
DWIDTH 28 0
BBX 16 25 1 -6
BITMAP
7FF8
7FF8
0300
0300
0300
1FE0
3F78
731C
630E
E306
C303
C303
C303
C303
C307
6306
730E
3B7C
1FF8
0FE0
0300
0300
0300
7FF8
7FF8
ENDCHAR
STARTCHAR uni0279
ENCODING 633
SWIDTH 870 0
DWIDTH 28 0
BBX 12 14 3 0
BITMAP
0030
0030
0030
0030
0030
0030
0030
0030
0030
0070
01F0
E3B0
7F30
3C30
ENDCHAR
STARTCHAR uni027A
ENCODING 634
SWIDTH 870 0
DWIDTH 28 0
BBX 12 21 3 0
BITMAP
0030
0030
0030
0030
0030
0030
0030
0030
0030
0030
0030
0030
0030
0030
0030
0030
00F0
01F0
E3B0
7F30
3C30
ENDCHAR
STARTCHAR uni027B
ENCODING 635
SWIDTH 870 0
DWIDTH 28 0
BBX 18 20 0 -6
BITMAP
003000
003000
003000
003000
003000
003000
003000
003000
003000
007000
01F000
E3B000
7F3000
3C3000
003000
003000
003800
001C00
000FC0
0007C0
ENDCHAR
STARTCHAR uni027C
ENCODING 636
SWIDTH 870 0
DWIDTH 28 0
BBX 12 22 3 -7
BITMAP
C3C0
CFE0
DC70
F800
F000
E000
C000
C000
C000
C000
C000
C000
C000
C000
C000
C000
C000
C000
C000
C000
C000
C000
ENDCHAR
STARTCHAR uni027D
ENCODING 637
SWIDTH 870 0
DWIDTH 28 0
BBX 12 21 3 -6
BITMAP
C3C0
CFE0
DC70
F800
F000
E000
C000
C000
C000
C000
C000
C000
C000
C000
C000
C000
C000
E000
7000
3F00
1F00
ENDCHAR
STARTCHAR uni027E
ENCODING 638
SWIDTH 870 0
DWIDTH 28 0
BBX 8 15 5 0
BITMAP
1F
7F
60
C0
C0
C0
C0
C0
C0
C0
C0
C0
C0
C0
C0
ENDCHAR
STARTCHAR uni027F
ENCODING 639
SWIDTH 870 0
DWIDTH 28 0
BBX 8 22 5 -7
BITMAP
F8
FE
06
03
03
03
03
03
03
03
03
03
03
03
03
03
03
03
03
03
03
03
ENDCHAR
STARTCHAR uni0280
ENCODING 640
SWIDTH 870 0
DWIDTH 28 0
BBX 12 14 3 0
BITMAP
FE00
FF80
C1C0
C0C0
C0C0
C1C0
FF80
FE00
C700
C380
C1C0
C0C0
C070
C070
ENDCHAR
STARTCHAR uni0281
ENCODING 641
SWIDTH 870 0
DWIDTH 28 0
BBX 12 15 3 0
BITMAP
C000
C070
C070
C0C0
C1C0
C380
C700
FE00
FF80
C1C0
C0C0
C0C0
C1C0
FF80
FE00
ENDCHAR
STARTCHAR uni0282
ENCODING 642
SWIDTH 870 0
DWIDTH 28 0
BBX 13 21 3 -6
BITMAP
0FC0
3FF0
7838
6018
6018
7000
3FC0
07F0
0070
C018
C018
C018
F070
FFF0
CFC0
C000
C000
E000
7000
3F00
1F00
ENDCHAR
STARTCHAR uni0283
ENCODING 643
SWIDTH 870 0
DWIDTH 28 0
BBX 14 24 2 -3
BITMAP
007C
00FC
0180
0300
0300
0300
0300
0300
0300
0300
0300
0300
0300
0300
0300
0300
0300
0300
0300
0300
0300
0600
FC00
7800
ENDCHAR
STARTCHAR uni0284
ENCODING 644
SWIDTH 870 0
DWIDTH 28 0
BBX 14 27 2 -6
BITMAP
007C
01FC
0180
0300
0300
0300
0300
0300
0300
0300
0300
0300
0300
0300
0300
0300
0300
0300
0300
3FF0
3FF0
0300
0300
0300
0700
FE00
F800
ENDCHAR
STARTCHAR uni0285
ENCODING 645
SWIDTH 870 0
DWIDTH 28 0
BBX 14 18 2 -3
BITMAP
F800
FC00
0600
0300
0300
0300
0300
0300
0300
0300
0300
0300
0300
0300
0300
0180
00FC
0078
ENDCHAR
STARTCHAR uni0286
ENCODING 646
SWIDTH 870 0
DWIDTH 28 0
BBX 15 27 2 -6
BITMAP
003E
007E
00C0
01C0
0180
0180
0180
0180
0180
0180
0180
0180
0180
0180
0180
0180
0180
0180
1F80
7F80
C3C0
87E0
FE70
7C30
0018
000C
0006
ENDCHAR
STARTCHAR uni0287
ENCODING 647
SWIDTH 870 0
DWIDTH 28 0
BBX 10 19 4 0
BITMAP
F000
FC00
0E00
0600
0600
0600
0600
0600
0600
0600
0600
0600
FFC0
FFC0
0600
0600
0600
0600
0600
ENDCHAR
STARTCHAR uni0288
ENCODING 648
SWIDTH 870 0
DWIDTH 28 0
BBX 10 26 4 -7
BITMAP
1800
1800
1800
1800
1800
FFC0
FFC0
1800
1800
1800
1800
1800
1800
1800
1800
1800
1800
1800
1800
1800
1800
1800
1800
1C00
0FC0
03C0
ENDCHAR
STARTCHAR uni0289
ENCODING 649
SWIDTH 870 0
DWIDTH 28 0
BBX 16 15 1 0
BITMAP
300C
300C
300C
300C
300C
300C
FFFF
FFFF
300C
300C
300C
301C
387C
1FFC
0FCC
ENDCHAR
STARTCHAR uni028A
ENCODING 650
SWIDTH 870 0
DWIDTH 28 0
BBX 12 15 3 0
BITMAP
C030
C030
6060
6060
6060
C030
C030
C030
C030
C030
E070
6060
70E0
3FC0
0F00
ENDCHAR
STARTCHAR uni028B
ENCODING 651
SWIDTH 870 0
DWIDTH 28 0
BBX 13 15 3 0
BITMAP
C030
C030
C030
C018
C018
C018
C018
C018
C018
C038
C030
E070
70E0
3FC0
1F00
ENDCHAR
STARTCHAR uni028C
ENCODING 652
SWIDTH 870 0
DWIDTH 28 0
BBX 14 15 2 0
BITMAP
0300
0780
0780
06C0
0CC0
0CE0
1860
1860
3830
3030
3018
6018
601C
C00C
C00C
ENDCHAR
STARTCHAR uni028D
ENCODING 653
SWIDTH 870 0
DWIDTH 28 0
BBX 16 15 1 0
BITMAP
1C18
1C18
1C38
1E3C
1E3C
366C
366C
3364
3366
33C6
61C6
61C6
6183
6003
E003
ENDCHAR
STARTCHAR uni028E
ENCODING 654
SWIDTH 870 0
DWIDTH 28 0
BBX 16 21 1 0
BITMAP
0038
007C
0060
00C0
00C0
01C0
0180
01C0
03C0
03E0
0660
0670
0C30
0C38
1818
181C
300C
300E
6006
6007
C003
ENDCHAR
STARTCHAR uni028F
ENCODING 655
SWIDTH 870 0
DWIDTH 28 0
BBX 12 15 3 0
BITMAP
C020
E070
60E0
30C0
3980
1980
0F00
0F00
0600
0600
0600
0600
0600
0600
0600
ENDCHAR
STARTCHAR uni0290
ENCODING 656
SWIDTH 870 0
DWIDTH 28 0
BBX 19 20 0 -6
BITMAP
FFF000
FFF000
00E000
00C000
018000
030000
070000
0E0000
0C0000
180000
300000
700000
FFF800
FFF800
001800
001800
001C00
000E00
0007E0
0003E0
ENDCHAR
STARTCHAR uni0291
ENCODING 657
SWIDTH 870 0
DWIDTH 28 0
BBX 14 17 2 -3
BITMAP
7FFC
FFF8
0030
0070
00E0
01C0
0380
0300
0600
0CF8
1BFC
371C
7FF8
7FC0
3000
6000
C000
ENDCHAR
STARTCHAR uni0292
ENCODING 658
SWIDTH 870 0
DWIDTH 28 0
BBX 13 20 3 -6
BITMAP
FFF8
FFF8
0030
0060
00C0
0180
0380
0700
0FC0
00E0
0030
0038
0018
0018
0018
0018
C030
F0F0
7FC0
1F80
ENDCHAR
STARTCHAR uni0293
ENCODING 659
SWIDTH 870 0
DWIDTH 28 0
BBX 13 23 3 -9
BITMAP
FFF8
FFF8
0030
0060
00C0
0180
0300
0F00
07C0
0070
0030
0018
0018
0018
7818
FE38
CF70
F3E0
7FC0
1FE0
0070
0018
0008
ENDCHAR
STARTCHAR uni0294
ENCODING 660
SWIDTH 870 0
DWIDTH 28 0
BBX 12 19 3 0
BITMAP
1F80
3FC0
70E0
C070
C030
0030
0030
0070
00E0
03C0
0700
0600
0600
0600
0600
0600
0600
0600
0600
ENDCHAR
STARTCHAR uni0295
ENCODING 661
SWIDTH 870 0
DWIDTH 28 0
BBX 12 19 3 0
BITMAP
1F80
3FC0
70E0
E030
C030
C000
C000
E000
7800
1E00
0700
0300
0300
0300
0300
0300
0300
0300
0300
ENDCHAR
STARTCHAR uni0296
ENCODING 662
SWIDTH 870 0
DWIDTH 28 0
BBX 12 19 3 0
BITMAP
0600
0600
0600
0600
0600
0600
0600
0600
0700
03C0
00E0
0070
0030
0030
C030
C070
60E0
3FC0
1F80
ENDCHAR
STARTCHAR uni0297
ENCODING 663
SWIDTH 870 0
DWIDTH 28 0
BBX 15 22 2 -7
BITMAP
07E0
1FF8
383C
700C
600C
C004
C000
C000
C000
C000
C000
C000
C000
C000
C000
C000
C000
6002
700E
3C3C
1FF8
07E0
ENDCHAR
STARTCHAR uni0298
ENCODING 664
SWIDTH 870 0
DWIDTH 28 0
BBX 16 15 1 0
BITMAP
07E0
1FF8
3C3C
700E
6006
C003
C183
C3C3
C3C3
C183
6006
700E
381C
1FF8
07E0
ENDCHAR
STARTCHAR uni0299
ENCODING 665
SWIDTH 870 0
DWIDTH 28 0
BBX 12 14 3 0
BITMAP
FF00
FFC0
C0E0
C060
C060
C0E0
FFC0
FFE0
C070
C030
C030
C070
FFE0
FF80
ENDCHAR
STARTCHAR uni029A
ENCODING 666
SWIDTH 870 0
DWIDTH 28 0
BBX 14 15 2 0
BITMAP
0F80
3FE0
7070
6038
6018
700C
7F0C
7F0C
700C
C00C
C018
C038
70F0
7FE0
1F80
ENDCHAR
STARTCHAR uni029B
ENCODING 667
SWIDTH 870 0
DWIDTH 28 0
BBX 17 16 1 0
BITMAP
000F00
0F9F80
1FF800
307000
603000
603000
C00000
C00000
C00000
C1F800
C1F800
601800
703000
387000
1FE000
0F8000
ENDCHAR
STARTCHAR uni029C
ENCODING 668
SWIDTH 870 0
DWIDTH 28 0
BBX 10 15 4 0
BITMAP
C0C0
C0C0
C0C0
C0C0
C0C0
C0C0
C0C0
FFC0
FFC0
C0C0
C0C0
C0C0
C0C0
C0C0
C0C0
ENDCHAR
STARTCHAR uni029D
ENCODING 669
SWIDTH 870 0
DWIDTH 28 0
BBX 14 28 2 -8
BITMAP
0380
0380
0380
0000
0000
0000
1F80
1F80
0180
0180
0180
0180
0180
0180
0180
0180
0180
0180
0180
0180
3F80
7F80
E3C0
C3E0
C770
7E38
3C1C
000C
ENDCHAR
STARTCHAR uni029E
ENCODING 670
SWIDTH 870 0
DWIDTH 28 0
BBX 13 21 3 -7
BITMAP
E018
F018
1818
0C18
0618
0318
0198
00F8
00F8
01D8
0798
0F18
3C18
3818
0018
0018
0018
0018
0018
0018
0018
ENDCHAR
STARTCHAR uni029F
ENCODING 671
SWIDTH 870 0
DWIDTH 28 0
BBX 10 15 4 0
BITMAP
C000
C000
C000
C000
C000
C000
C000
C000
C000
C000
C000
C000
C000
FFC0
FFC0
ENDCHAR
STARTCHAR uni02A0
ENCODING 672
SWIDTH 870 0
DWIDTH 28 0
BBX 18 28 0 -7
BITMAP
0003C0
000FC0
001C00
001800
001800
001800
0F9800
1FD800
38F800
603800
E03800
C01800
C01800
C01800
C01800
C01800
603800
603800
38F800
3FD800
0F9800
001800
001800
001800
001800
001800
001800
001800
ENDCHAR
STARTCHAR uni02A1
ENCODING 673
SWIDTH 870 0
DWIDTH 28 0
BBX 12 19 3 0
BITMAP
1F80
7FC0
60E0
C070
C030
0030
0030
0060
01E0
0780
0600
0600
FF00
FFE0
FFE0
0600
0600
0600
0600
ENDCHAR
STARTCHAR uni02A2
ENCODING 674
SWIDTH 870 0
DWIDTH 28 0
BBX 12 19 3 0
BITMAP
1F80
3FC0
70E0
E030
C030
C000
C000
6000
3800
1F00
0600
0600
7F80
7FF0
7FF0
0600
0600
0600
0600
ENDCHAR
STARTCHAR uni02A3
ENCODING 675
SWIDTH 870 0
DWIDTH 28 0
BBX 19 21 0 0
BITMAP
006000
006000
006000
006000
006000
006000
0F6000
3FFFC0
71FFC0
60E1C0
E0E180
C06380
C06300
C06600
C06600
C06C00
E0EC00
60F800
71F000
3FFFE0
1E7FE0
ENDCHAR
STARTCHAR uni02A4
ENCODING 676
SWIDTH 870 0
DWIDTH 28 0
BBX 18 27 0 -6
BITMAP
006000
006000
006000
006000
006000
006000
1F6000
3FFFC0
71FFC0
60E1C0
E0E180
C06300
C06700
C06600
C06E00
C06F00
E0E380
60E180
71E0C0
3FE0C0
1E60C0
0000C0
0000C0
006180
007180
003F00
001E00
ENDCHAR
STARTCHAR uni02A5
ENCODING 677
SWIDTH 870 0
DWIDTH 28 0
BBX 19 24 0 -3
BITMAP
006000
006000
006000
006000
006000
006000
0F6000
3FFFC0
71FFC0
60E1C0
E0E180
C06300
C06300
C06600
C06E00
C06FC0
E0FFC0
60FEE0
71FFC0
3FFFC0
1E7F00
003000
006000
006000
ENDCHAR
STARTCHAR uni02A6
ENCODING 678
SWIDTH 870 0
DWIDTH 28 0
BBX 19 19 0 0
BITMAP
180000
180000
180000
180000
D9FE00
FFFF80
FFC1C0
1980C0
1980C0
19C000
18FE00
183FC0
1801C0
180060
180060
180060
1C01C0
0FFFC0
07FF00
ENDCHAR
STARTCHAR uni02A7
ENCODING 679
SWIDTH 870 0
DWIDTH 28 0
BBX 16 24 1 -3
BITMAP
001F
003F
1860
18C0
18C0
18C0
18C0
FFC0
FFC0
18C0
18C0
18C0
18C0
18C0
18C0
18C0
18C0
18C0
1CC0
0FC0
07C0
0180
3F00
1E00
ENDCHAR
STARTCHAR uni02A8
ENCODING 680
SWIDTH 870 0
DWIDTH 28 0
BBX 19 22 0 -3
BITMAP
180000
180000
180000
180000
DB9E00
FFFF80
FFE1C0
18C0C0
18C0C0
198040
198000
198000
198000
198000
1983C0
18C7E0
1CCCE0
0FFFC0
07FF00
006000
00C000
008000
ENDCHAR
STARTCHAR uni02A9
ENCODING 681
SWIDTH 870 0
DWIDTH 28 0
BBX 19 28 0 -7
BITMAP
03E000
0FE000
0C0000
180000
180000
180000
180F00
FF9FC0
FFF1C0
19C0E0
198060
198060
198060
198060
198060
198060
198060
198060
198060
198060
198060
000060
000060
000060
0000E0
0001C0
001F80
001F00
ENDCHAR
STARTCHAR uni02AA
ENCODING 682
SWIDTH 870 0
DWIDTH 28 0
BBX 18 21 0 0
BITMAP
FC0000
FC0000
0C0000
0C0000
0C0000
0C0000
0CFC00
0FFF00
0F8380
0E0180
0E0180
0F0000
0FFC00
0CFF00
0C0780
0C00C0
0C00C0
0C00C0
0C01C0
FFFF80
FFFE00
ENDCHAR
STARTCHAR uni02AB
ENCODING 683
SWIDTH 870 0
DWIDTH 28 0
BBX 19 21 0 0
BITMAP
FC0000
FC0000
0C0000
0C0000
0C0000
0C0000
0C0000
0FFF80
0FFF80
0C0300
0C0600
0C0C00
0C1C00
0C1800
0C3000
0C6000
0CC000
0D8000
0F0000
FFFFC0
FFFFE0
ENDCHAR
STARTCHAR uni02AC
ENCODING 684
SWIDTH 870 0
DWIDTH 28 0
BBX 8 18 5 0
BITMAP
C1
D9
DB
5F
7F
76
76
26
00
00
C1
D9
DB
5F
7F
76
76
26
ENDCHAR
STARTCHAR uni02AD
ENCODING 685
SWIDTH 870 0
DWIDTH 28 0
BBX 7 11 6 4
BITMAP
FE
FE
C6
C6
00
00
00
FE
FE
C6
C6
ENDCHAR
STARTCHAR uni02AE
ENCODING 686
SWIDTH 870 0
DWIDTH 28 0
BBX 18 22 0 -7
BITMAP
F800C0
FE00C0
0700C0
0300C0
0300C0
0300C0
0300C0
0300C0
0300C0
0300C0
0300C0
0301C0
01C3C0
01FEC0
007CC0
0000C0
0000C0
0000C0
0000C0
0000C0
0000C0
0000C0
ENDCHAR
STARTCHAR uni02AF
ENCODING 687
SWIDTH 870 0
DWIDTH 28 0
BBX 19 22 0 -7
BITMAP
F80C00
FC0C00
0E0C00
060C00
060C00
060C00
060C00
060C00
060C00
060C00
060C00
061C00
073C00
03FC00
01EC00
000C00
000C00
000C00
000E00
000600
0007E0
0001E0
ENDCHAR
STARTCHAR uni02B0
ENCODING 688
SWIDTH 870 0
DWIDTH 28 0
BBX 10 16 4 11
BITMAP
C000
C000
C000
C000
DF00
FF80
F1C0
E0C0
C0C0
C0C0
C0C0
C0C0
C0C0
C0C0
C0C0
C0C0
ENDCHAR
STARTCHAR uni02B1
ENCODING 689
SWIDTH 870 0
DWIDTH 28 0
BBX 10 16 4 11
BITMAP
3E00
7E00
E000
C000
DF00
FF80
F1C0
E0C0
C0C0
C0C0
C0C0
C0C0
C0C0
C0C0
C0C0
C0C0
ENDCHAR
STARTCHAR uni02B2
ENCODING 690
SWIDTH 870 0
DWIDTH 28 0
BBX 10 20 4 6
BITMAP
01C0
01C0
0000
0000
0F80
0F80
0180
0180
0180
0180
0180
0180
0180
0180
0180
0180
0180
0380
FF00
FE00
ENDCHAR
STARTCHAR uni02B3
ENCODING 691
SWIDTH 870 0
DWIDTH 28 0
BBX 9 11 5 11
BITMAP
CF00
DF80
F980
E000
C000
C000
C000
C000
C000
C000
C000
ENDCHAR
STARTCHAR uni02B4
ENCODING 692
SWIDTH 870 0
DWIDTH 28 0
BBX 9 11 5 11
BITMAP
0180
0180
0180
0180
0180
0180
0180
0180
0780
CF80
F980
ENDCHAR
STARTCHAR uni02B5
ENCODING 693
SWIDTH 870 0
DWIDTH 28 0
BBX 13 17 3 5
BITMAP
0180
0180
0180
0180
0180
0180
0180
0180
0780
CF80
7980
0180
0180
0180
01C0
00F8
0070
ENDCHAR
STARTCHAR uni02B6
ENCODING 694
SWIDTH 870 0
DWIDTH 28 0
BBX 10 11 4 11
BITMAP
C1C0
C380
C700
CE00
FC00
FE00
C700
C300
C700
FE00
FC00
ENDCHAR
STARTCHAR uni02B7
ENCODING 695
SWIDTH 870 0
DWIDTH 28 0
BBX 12 11 3 11
BITMAP
C030
C230
E730
6730
6F60
6F60
6DE0
39E0
39C0
38C0
30C0
ENDCHAR
STARTCHAR uni02B8
ENCODING 696
SWIDTH 870 0
DWIDTH 28 0
BBX 12 16 3 6
BITMAP
C030
E030
6070
7060
30E0
18C0
19C0
0D80
0D80
0700
0700
0600
0600
0C00
3C00
3800
ENDCHAR
STARTCHAR uni02B9
ENCODING 697
SWIDTH 870 0
DWIDTH 28 0
BBX 7 10 6 11
BITMAP
18
1C
1E
3C
38
70
70
E0
C0
80
ENDCHAR
STARTCHAR uni02BA
ENCODING 698
SWIDTH 870 0
DWIDTH 28 0
BBX 13 10 3 11
BITMAP
0840
1E70
1EF8
3CF0
39E0
79C0
7380
E380
C300
C600
ENDCHAR
STARTCHAR uni02BB
ENCODING 699
SWIDTH 870 0
DWIDTH 28 0
BBX 5 10 6 11
BITMAP
18
30
60
40
C0
C0
F0
F8
78
70
ENDCHAR
STARTCHAR uni02BC
ENCODING 700
SWIDTH 870 0
DWIDTH 28 0
BBX 5 10 7 10
BITMAP
70
F0
F8
78
18
18
10
30
60
C0
ENDCHAR
STARTCHAR uni02BD
ENCODING 701
SWIDTH 870 0
DWIDTH 28 0
BBX 5 10 6 10
BITMAP
70
78
F8
F0
C0
C0
40
60
30
18
ENDCHAR
STARTCHAR uni02BE
ENCODING 702
SWIDTH 870 0
DWIDTH 28 0
BBX 4 8 7 13
BITMAP
C0
E0
70
30
30
70
E0
C0
ENDCHAR
STARTCHAR uni02BF
ENCODING 703
SWIDTH 870 0
DWIDTH 28 0
BBX 4 8 7 13
BITMAP
30
70
E0
C0
C0
E0
70
30
ENDCHAR
STARTCHAR uni02C0
ENCODING 704
SWIDTH 870 0
DWIDTH 28 0
BBX 12 14 3 5
BITMAP
1F00
3FC0
70E0
C060
C030
0030
0030
0030
0060
01C0
0780
0600
0600
0600
ENDCHAR
STARTCHAR uni02C1
ENCODING 705
SWIDTH 870 0
DWIDTH 28 0
BBX 12 14 3 5
BITMAP
0F80
3FC0
70E0
E030
C030
C000
C000
C000
7000
3C00
0F00
0300
0300
0300
ENDCHAR
STARTCHAR uni02C2
ENCODING 706
SWIDTH 870 0
DWIDTH 28 0
BBX 12 13 3 9
BITMAP
0030
0070
01C0
0780
1E00
3800
E000
3800
1E00
0780
01C0
0070
0030
ENDCHAR
STARTCHAR uni02C3
ENCODING 707
SWIDTH 870 0
DWIDTH 28 0
BBX 13 13 3 9
BITMAP
C000
7000
3C00
0E00
0380
01E0
0078
01E0
0380
0E00
3C00
F000
C000
ENDCHAR
STARTCHAR uni02C4
ENCODING 708
SWIDTH 870 0
DWIDTH 28 0
BBX 13 12 3 10
BITMAP
0200
0600
0700
0F00
1D80
19C0
30C0
3060
6060
C030
C018
8018
ENDCHAR
STARTCHAR uni02C5
ENCODING 709
SWIDTH 870 0
DWIDTH 28 0
BBX 13 12 3 9
BITMAP
8018
C018
C030
6060
3060
30C0
19C0
1D80
0F00
0700
0600
0200
ENDCHAR
STARTCHAR circumflex
ENCODING 710
SWIDTH 870 0
DWIDTH 28 0
BBX 10 6 4 16
BITMAP
0400
1E00
3F00
7B80
E1C0
C0C0
ENDCHAR
STARTCHAR caron
ENCODING 711
SWIDTH 870 0
DWIDTH 28 0
BBX 10 5 4 16
BITMAP
C0C0
61C0
3B80
1E00
0C00
ENDCHAR
STARTCHAR uni02C8
ENCODING 712
SWIDTH 870 0
DWIDTH 28 0
BBX 2 11 8 10
BITMAP
C0
C0
C0
C0
C0
C0
C0
C0
C0
C0
C0
ENDCHAR
STARTCHAR uni02C9
ENCODING 713
SWIDTH 870 0
DWIDTH 28 0
BBX 11 2 4 17
BITMAP
FFC0
FFE0
ENDCHAR
STARTCHAR uni02CA
ENCODING 714
SWIDTH 870 0
DWIDTH 28 0
BBX 6 6 6 16
BITMAP
0C
1C
38
70
C0
80
ENDCHAR
STARTCHAR uni02CB
ENCODING 715
SWIDTH 870 0
DWIDTH 28 0
BBX 6 6 6 16
BITMAP
C0
E0
70
18
0C
04
ENDCHAR
STARTCHAR uni02CC
ENCODING 716
SWIDTH 870 0
DWIDTH 28 0
BBX 2 10 8 -4
BITMAP
C0
C0
C0
C0
C0
C0
C0
C0
C0
C0
ENDCHAR
STARTCHAR uni02CD
ENCODING 717
SWIDTH 870 0
DWIDTH 28 0
BBX 11 2 4 -4
BITMAP
FFC0
FFE0
ENDCHAR
STARTCHAR uni02CE
ENCODING 718
SWIDTH 870 0
DWIDTH 28 0
BBX 6 6 6 -6
BITMAP
C0
E0
70
38
1C
0C
ENDCHAR
STARTCHAR uni02CF
ENCODING 719
SWIDTH 870 0
DWIDTH 28 0
BBX 6 6 6 -6
BITMAP
0C
1C
38
70
E0
C0
ENDCHAR
STARTCHAR uni02D0
ENCODING 720
SWIDTH 870 0
DWIDTH 28 0
BBX 4 14 7 0
BITMAP
F0
70
70
60
60
00
00
00
00
60
60
60
70
F0
ENDCHAR
STARTCHAR uni02D1
ENCODING 721
SWIDTH 870 0
DWIDTH 28 0
BBX 4 5 7 9
BITMAP
F0
70
70
60
60
ENDCHAR
STARTCHAR uni02D2
ENCODING 722
SWIDTH 870 0
DWIDTH 28 0
BBX 4 8 7 7
BITMAP
C0
E0
70
30
30
70
E0
C0
ENDCHAR
STARTCHAR uni02D3
ENCODING 723
SWIDTH 870 0
DWIDTH 28 0
BBX 4 8 7 7
BITMAP
30
70
E0
C0
C0
E0
70
30
ENDCHAR
STARTCHAR uni02D4
ENCODING 724
SWIDTH 870 0
DWIDTH 28 0
BBX 8 5 5 4
BITMAP
18
18
18
FF
FF
ENDCHAR
STARTCHAR uni02D5
ENCODING 725
SWIDTH 870 0
DWIDTH 28 0
BBX 9 6 5 0
BITMAP
FF80
FF80
0800
1800
1800
1800
ENDCHAR
STARTCHAR uni02D6
ENCODING 726
SWIDTH 870 0
DWIDTH 28 0
BBX 9 9 5 0
BITMAP
1800
1800
1800
FF80
FF80
0800
1800
1800
1800
ENDCHAR
STARTCHAR uni02D7
ENCODING 727
SWIDTH 870 0
DWIDTH 28 0
BBX 8 2 5 4
BITMAP
FF
FF
ENDCHAR
STARTCHAR breve
ENCODING 728
SWIDTH 870 0
DWIDTH 28 0
BBX 10 6 4 16
BITMAP
8040
C0C0
C0C0
6180
3F00
1E00
ENDCHAR
STARTCHAR dotaccent
ENCODING 729
SWIDTH 870 0
DWIDTH 28 0
BBX 3 3 8 17
BITMAP
E0
E0
E0
ENDCHAR
STARTCHAR ring
ENCODING 730
SWIDTH 870 0
DWIDTH 28 0
BBX 7 7 6 16
BITMAP
38
7C
C6
C6
C6
7C
38
ENDCHAR
STARTCHAR ogonek
ENCODING 731
SWIDTH 870 0
DWIDTH 28 0
BBX 6 4 6 -4
BITMAP
7C
C4
FC
78
ENDCHAR
STARTCHAR tilde
ENCODING 732
SWIDTH 870 0
DWIDTH 28 0
BBX 10 4 4 16
BITMAP
3840
7CC0
EFC0
C300
ENDCHAR
STARTCHAR hungarumlaut
ENCODING 733
SWIDTH 870 0
DWIDTH 28 0
BBX 11 6 4 16
BITMAP
0C60
1CE0
3BC0
7780
EE00
CC00
ENDCHAR
STARTCHAR uni02DE
ENCODING 734
SWIDTH 870 0
DWIDTH 28 0
BBX 7 4 6 8
BITMAP
46
EC
FC
38
ENDCHAR
STARTCHAR uni02DF
ENCODING 735
SWIDTH 870 0
DWIDTH 28 0
BBX 8 8 5 15
BITMAP
C1
63
36
1C
1C
36
63
C1
ENDCHAR
STARTCHAR uni02E0
ENCODING 736
SWIDTH 870 0
DWIDTH 28 0
BBX 11 16 4 7
BITMAP
0060
8060
C0C0
60C0
7180
3380
1B00
1E00
0E00
0E00
0A00
1B00
1B00
1B00
1F00
0E00
ENDCHAR
STARTCHAR uni02E1
ENCODING 737
SWIDTH 870 0
DWIDTH 28 0
BBX 10 16 4 11
BITMAP
FC00
FC00
0C00
0C00
0C00
0C00
0C00
0C00
0C00
0C00
0C00
0C00
0C00
0C00
FFC0
FFC0
ENDCHAR
STARTCHAR uni02E2
ENCODING 738
SWIDTH 870 0
DWIDTH 28 0
BBX 10 12 4 10
BITMAP
3E00
7F80
E180
C080
E000
7F00
0780
80C0
C0C0
E1C0
FF80
3F00
ENDCHAR
STARTCHAR uni02E3
ENCODING 739
SWIDTH 870 0
DWIDTH 28 0
BBX 13 11 3 11
BITMAP
C030
E060
30C0
1980
0F00
0F00
1F80
39C0
70E0
E078
C038
ENDCHAR
STARTCHAR uni02E4
ENCODING 740
SWIDTH 870 0
DWIDTH 28 0
BBX 9 16 5 10
BITMAP
1E00
7F00
E180
C080
C000
C000
E000
7000
3800
1800
1800
1800
1800
1800
1800
1800
ENDCHAR
STARTCHAR uni02E5
ENCODING 741
SWIDTH 870 0
DWIDTH 28 0
BBX 8 21 5 0
BITMAP
FF
FF
03
03
03
03
03
03
03
03
03
03
03
03
03
03
03
03
03
03
03
ENDCHAR
STARTCHAR uni02E6
ENCODING 742
SWIDTH 870 0
DWIDTH 28 0
BBX 8 21 5 0
BITMAP
03
03
03
03
03
FF
FF
03
03
03
03
03
03
03
03
03
03
03
03
03
03
ENDCHAR
STARTCHAR uni02E7
ENCODING 743
SWIDTH 870 0
DWIDTH 28 0
BBX 8 21 5 0
BITMAP
03
03
03
03
03
03
03
03
03
03
FF
FF
03
03
03
03
03
03
03
03
03
ENDCHAR
STARTCHAR uni02E8
ENCODING 744
SWIDTH 870 0
DWIDTH 28 0
BBX 8 21 5 0
BITMAP
03
03
03
03
03
03
03
03
03
03
03
03
03
03
F3
FF
FF
03
03
03
03
ENDCHAR
STARTCHAR uni02E9
ENCODING 745
SWIDTH 870 0
DWIDTH 28 0
BBX 8 21 5 0
BITMAP
03
03
03
03
03
03
03
03
03
03
03
03
03
03
03
03
03
03
03
FF
FF
ENDCHAR
STARTCHAR uni02EA
ENCODING 746
SWIDTH 870 0
DWIDTH 28 0
BBX 5 11 7 5
BITMAP
C0
C0
C0
C0
C0
C0
C0
C0
C0
F8
F8
ENDCHAR
STARTCHAR uni02EB
ENCODING 747
SWIDTH 870 0
DWIDTH 28 0
BBX 5 11 7 4
BITMAP
C0
C0
C0
C0
F8
F8
C0
C0
C0
C0
C0
ENDCHAR
STARTCHAR uni02EC
ENCODING 748
SWIDTH 870 0
DWIDTH 28 0
BBX 10 9 4 -9
BITMAP
C0C0
60C0
6180
3180
3300
1B00
1E00
0E00
0C00
ENDCHAR
STARTCHAR uni02ED
ENCODING 749
SWIDTH 870 0
DWIDTH 28 0
BBX 11 5 4 13
BITMAP
FFC0
FFE0
0000
FFC0
FFE0
ENDCHAR
STARTCHAR uni02EE
ENCODING 750
SWIDTH 870 0
DWIDTH 28 0
BBX 11 10 4 10
BITMAP
71C0
F3C0
FBE0
79E0
1860
1860
1040
30C0
6180
C300
ENDCHAR
STARTCHAR uni02EF
ENCODING 751
SWIDTH 870 0
DWIDTH 28 0
BBX 7 8 6 -7
BITMAP
86
CE
CC
DC
78
78
30
20
ENDCHAR
STARTCHAR uni02F0
ENCODING 752
SWIDTH 870 0
DWIDTH 28 0
BBX 7 8 6 -7
BITMAP
10
38
38
6C
6C
CC
C6
86
ENDCHAR
STARTCHAR uni02F1
ENCODING 753
SWIDTH 870 0
DWIDTH 28 0
BBX 8 7 5 -7
BITMAP
07
1F
F8
F0
3C
0F
03
ENDCHAR
STARTCHAR uni02F2
ENCODING 754
SWIDTH 870 0
DWIDTH 28 0
BBX 8 7 5 -7
BITMAP
60
7C
1F
0F
3C
F8
E0
ENDCHAR
STARTCHAR uni02F3
ENCODING 755
SWIDTH 870 0
DWIDTH 28 0
BBX 7 7 6 -8
BITMAP
38
7C
C6
C6
C6
7C
38
ENDCHAR
STARTCHAR uni02F4
ENCODING 756
SWIDTH 870 0
DWIDTH 28 0
BBX 6 5 6 9
BITMAP
C0
F0
78
1C
0C
ENDCHAR
STARTCHAR uni02F5
ENCODING 757
SWIDTH 870 0
DWIDTH 28 0
BBX 11 6 4 8
BITMAP
CC00
EE00
7780
3BC0
1CE0
0C60
ENDCHAR
STARTCHAR uni02F6
ENCODING 758
SWIDTH 870 0
DWIDTH 28 0
BBX 11 6 4 8
BITMAP
0C60
1CE0
3BC0
7780
EE00
CC00
ENDCHAR
STARTCHAR uni02F7
ENCODING 759
SWIDTH 870 0
DWIDTH 28 0
BBX 10 4 4 -6
BITMAP
3840
7CC0
EFC0
C300
ENDCHAR
STARTCHAR uni02F8
ENCODING 760
SWIDTH 870 0
DWIDTH 28 0
BBX 4 14 7 10
BITMAP
E0
F0
F0
60
00
00
00
00
00
00
E0
F0
F0
60
ENDCHAR
STARTCHAR uni02F9
ENCODING 761
SWIDTH 870 0
DWIDTH 28 0
BBX 5 6 7 14
BITMAP
F8
F8
C0
C0
C0
C0
ENDCHAR
STARTCHAR uni02FA
ENCODING 762
SWIDTH 870 0
DWIDTH 28 0
BBX 5 5 7 14
BITMAP
F8
F8
18
18
18
ENDCHAR
STARTCHAR uni02FB
ENCODING 763
SWIDTH 870 0
DWIDTH 28 0
BBX 5 6 7 0
BITMAP
C0
C0
C0
C0
F8
F8
ENDCHAR
STARTCHAR uni02FC
ENCODING 764
SWIDTH 870 0
DWIDTH 28 0
BBX 5 6 7 0
BITMAP
18
18
18
18
F8
F8
ENDCHAR
STARTCHAR uni02FD
ENCODING 765
SWIDTH 870 0
DWIDTH 28 0
BBX 16 6 1 -4
BITMAP
C003
C003
C003
C003
FFFF
FFFF
ENDCHAR
STARTCHAR uni02FE
ENCODING 766
SWIDTH 870 0
DWIDTH 28 0
BBX 16 6 1 -4
BITMAP
C000
C000
C000
C000
FFFF
FFFF
ENDCHAR
STARTCHAR uni02FF
ENCODING 767
SWIDTH 870 0
DWIDTH 28 0
BBX 12 6 3 -3
BITMAP
1000
3000
7FF0
FFF0
3000
1000
ENDCHAR
STARTCHAR gravecomb
ENCODING 768
SWIDTH 870 0
DWIDTH 28 0
BBX 6 6 -12 16
BITMAP
C0
E0
70
38
0C
04
ENDCHAR
STARTCHAR acutecomb
ENCODING 769
SWIDTH 870 0
DWIDTH 28 0
BBX 7 6 -11 16
BITMAP
0C
1E
38
70
C0
C0
ENDCHAR
STARTCHAR uni0302
ENCODING 770
SWIDTH 870 0
DWIDTH 28 0
BBX 10 6 -14 16
BITMAP
0800
1E00
3F00
7780
E3C0
C0C0
ENDCHAR
STARTCHAR tildecomb
ENCODING 771
SWIDTH 870 0
DWIDTH 28 0
BBX 10 4 -14 16
BITMAP
3840
7CC0
EFC0
C700
ENDCHAR
STARTCHAR uni0304
ENCODING 772
SWIDTH 870 0
DWIDTH 28 0
BBX 11 2 -15 17
BITMAP
FFE0
7FE0
ENDCHAR
STARTCHAR uni0305
ENCODING 773
SWIDTH 870 0
DWIDTH 28 0
BBX 19 2 -19 23
BITMAP
FFFFE0
FFFFE0
ENDCHAR
STARTCHAR uni0306
ENCODING 774
SWIDTH 870 0
DWIDTH 28 0
BBX 10 6 -14 16
BITMAP
8040
C0C0
C0C0
6180
3F00
1E00
ENDCHAR
STARTCHAR uni0307
ENCODING 775
SWIDTH 870 0
DWIDTH 28 0
BBX 3 3 -11 17
BITMAP
E0
E0
E0
ENDCHAR
STARTCHAR uni0308
ENCODING 776
SWIDTH 870 0
DWIDTH 28 0
BBX 9 3 -14 17
BITMAP
E380
E380
E380
ENDCHAR
STARTCHAR hookabovecomb
ENCODING 777
SWIDTH 870 0
DWIDTH 28 0
BBX 7 7 -13 15
BITMAP
7C
FE
C6
06
3C
30
30
ENDCHAR
STARTCHAR uni030A
ENCODING 778
SWIDTH 870 0
DWIDTH 28 0
BBX 6 7 -12 16
BITMAP
38
78
CC
CC
CC
78
78
ENDCHAR
STARTCHAR uni030B
ENCODING 779
SWIDTH 870 0
DWIDTH 28 0
BBX 11 6 -15 16
BITMAP
0660
0EE0
3DC0
7B80
E700
C600
ENDCHAR
STARTCHAR uni030C
ENCODING 780
SWIDTH 870 0
DWIDTH 28 0
BBX 10 5 -14 16
BITMAP
C0C0
E380
7700
1E00
0800
ENDCHAR
STARTCHAR uni030D
ENCODING 781
SWIDTH 870 0
DWIDTH 28 0
BBX 2 5 -10 15
BITMAP
C0
C0
C0
C0
C0
ENDCHAR
STARTCHAR uni030E
ENCODING 782
SWIDTH 870 0
DWIDTH 28 0
BBX 6 5 -12 15
BITMAP
CC
CC
CC
CC
CC
ENDCHAR
STARTCHAR uni030F
ENCODING 783
SWIDTH 870 0
DWIDTH 28 0
BBX 11 6 -16 16
BITMAP
C400
E700
7380
39C0
1CE0
0C60
ENDCHAR
STARTCHAR uni0310
ENCODING 784
SWIDTH 870 0
DWIDTH 28 0
BBX 10 7 -14 16
BITMAP
1C00
1C00
DCC0
C0C0
6180
7F80
1E00
ENDCHAR
STARTCHAR uni0311
ENCODING 785
SWIDTH 870 0
DWIDTH 28 0
BBX 10 5 -14 16
BITMAP
1E00
7F80
6180
C0C0
C0C0
ENDCHAR
STARTCHAR uni0312
ENCODING 786
SWIDTH 870 0
DWIDTH 28 0
BBX 5 8 -12 15
BITMAP
18
30
60
C0
F0
F8
F8
70
ENDCHAR
STARTCHAR uni0313
ENCODING 787
SWIDTH 870 0
DWIDTH 28 0
BBX 5 8 -12 15
BITMAP
70
F8
F8
78
18
30
60
C0
ENDCHAR
STARTCHAR uni0314
ENCODING 788
SWIDTH 870 0
DWIDTH 28 0
BBX 5 9 -12 14
BITMAP
70
F8
F8
F0
C0
40
60
30
18
ENDCHAR
STARTCHAR uni0315
ENCODING 789
SWIDTH 870 0
DWIDTH 28 0
BBX 5 8 -5 15
BITMAP
70
F8
F8
78
18
30
60
C0
ENDCHAR
STARTCHAR uni0316
ENCODING 790
SWIDTH 870 0
DWIDTH 28 0
BBX 6 6 -12 -8
BITMAP
80
E0
70
38
1C
0C
ENDCHAR
STARTCHAR uni0317
ENCODING 791
SWIDTH 870 0
DWIDTH 28 0
BBX 6 6 -12 -8
BITMAP
0C
1C
38
70
E0
80
ENDCHAR
STARTCHAR uni0318
ENCODING 792
SWIDTH 870 0
DWIDTH 28 0
BBX 5 8 -12 -9
BITMAP
18
18
18
F8
F8
18
18
18
ENDCHAR
STARTCHAR uni0319
ENCODING 793
SWIDTH 870 0
DWIDTH 28 0
BBX 5 9 -12 -9
BITMAP
C0
C0
C0
F8
F8
C0
C0
C0
C0
ENDCHAR
STARTCHAR uni031A
ENCODING 794
SWIDTH 870 0
DWIDTH 28 0
BBX 5 5 -12 14
BITMAP
F8
F8
18
18
18
ENDCHAR
STARTCHAR uni031B
ENCODING 795
SWIDTH 870 0
DWIDTH 28 0
BBX 4 5 -4 10
BITMAP
30
30
30
E0
C0
ENDCHAR
STARTCHAR uni031C
ENCODING 796
SWIDTH 870 0
DWIDTH 28 0
BBX 4 6 -11 -8
BITMAP
30
70
C0
C0
60
30
ENDCHAR
STARTCHAR uni031D
ENCODING 797
SWIDTH 870 0
DWIDTH 28 0
BBX 8 5 -13 -6
BITMAP
18
18
18
FF
FF
ENDCHAR
STARTCHAR uni031E
ENCODING 798
SWIDTH 870 0
DWIDTH 28 0
BBX 9 6 -13 -9
BITMAP
FF80
FF80
0800
1800
1800
1800
ENDCHAR
STARTCHAR uni031F
ENCODING 799
SWIDTH 870 0
DWIDTH 28 0
BBX 9 8 -13 -9
BITMAP
1800
1800
FC00
FF80
FF80
0800
1800
1800
ENDCHAR
STARTCHAR uni0320
ENCODING 800
SWIDTH 870 0
DWIDTH 28 0
BBX 11 2 -15 -7
BITMAP
FFE0
7FE0
ENDCHAR
STARTCHAR uni0321
ENCODING 801
SWIDTH 870 0
DWIDTH 28 0
BBX 8 9 -9 -7
BITMAP
03
03
03
03
03
07
0E
FC
F8
ENDCHAR
STARTCHAR uni0322
ENCODING 802
SWIDTH 870 0
DWIDTH 28 0
BBX 7 9 -7 -7
BITMAP
C0
C0
C0
C0
C0
E0
70
3E
1E
ENDCHAR
STARTCHAR dotbelowcomb
ENCODING 803
SWIDTH 870 0
DWIDTH 28 0
BBX 3 3 -11 -7
BITMAP
E0
E0
E0
ENDCHAR
STARTCHAR uni0324
ENCODING 804
SWIDTH 870 0
DWIDTH 28 0
BBX 9 3 -14 -7
BITMAP
E380
E380
E380
ENDCHAR
STARTCHAR uni0325
ENCODING 805
SWIDTH 870 0
DWIDTH 28 0
BBX 6 7 -12 -8
BITMAP
38
78
CC
CC
CC
78
78
ENDCHAR
STARTCHAR uni0326
ENCODING 806
SWIDTH 870 0
DWIDTH 28 0
BBX 5 8 -12 -9
BITMAP
70
F8
F8
78
18
30
60
C0
ENDCHAR
STARTCHAR uni0327
ENCODING 807
SWIDTH 870 0
DWIDTH 28 0
BBX 6 7 -12 -7
BITMAP
10
10
18
1C
C4
FC
78
ENDCHAR
STARTCHAR uni0328
ENCODING 808
SWIDTH 870 0
DWIDTH 28 0
BBX 6 4 -12 -4
BITMAP
7C
C8
FC
70
ENDCHAR
STARTCHAR uni0329
ENCODING 809
SWIDTH 870 0
DWIDTH 28 0
BBX 2 5 -10 -6
BITMAP
C0
C0
C0
C0
C0
ENDCHAR
STARTCHAR uni032A
ENCODING 810
SWIDTH 870 0
DWIDTH 28 0
BBX 6 4 -12 -5
BITMAP
FC
CC
CC
CC
ENDCHAR
STARTCHAR uni032B
ENCODING 811
SWIDTH 870 0
DWIDTH 28 0
BBX 7 6 -13 -5
BITMAP
02
82
92
9A
FE
6E
ENDCHAR
STARTCHAR uni032C
ENCODING 812
SWIDTH 870 0
DWIDTH 28 0
BBX 10 5 -14 -7
BITMAP
C0C0
E380
7700
1E00
0800
ENDCHAR
STARTCHAR uni032D
ENCODING 813
SWIDTH 870 0
DWIDTH 28 0
BBX 10 6 -14 -7
BITMAP
0800
1E00
3F00
7780
E3C0
C0C0
ENDCHAR
STARTCHAR uni032E
ENCODING 814
SWIDTH 870 0
DWIDTH 28 0
BBX 10 6 -14 -7
BITMAP
8040
C0C0
C0C0
6180
3F00
1E00
ENDCHAR
STARTCHAR uni032F
ENCODING 815
SWIDTH 870 0
DWIDTH 28 0
BBX 10 5 -14 -6
BITMAP
1E00
7F80
6180
C0C0
C0C0
ENDCHAR
STARTCHAR uni0330
ENCODING 816
SWIDTH 870 0
DWIDTH 28 0
BBX 10 4 -14 -6
BITMAP
3840
7CC0
EFC0
C700
ENDCHAR
STARTCHAR uni0331
ENCODING 817
SWIDTH 870 0
DWIDTH 28 0
BBX 8 2 -13 -3
BITMAP
FF
FF
ENDCHAR
STARTCHAR uni0332
ENCODING 818
SWIDTH 870 0
DWIDTH 28 0
BBX 19 2 -19 -6
BITMAP
FFFFE0
FFFFE0
ENDCHAR
STARTCHAR uni0333
ENCODING 819
SWIDTH 870 0
DWIDTH 28 0
BBX 19 6 -19 -8
BITMAP
FFFFE0
FFFFE0
000000
000000
FFFFE0
FFFFE0
ENDCHAR
STARTCHAR uni0334
ENCODING 820
SWIDTH 870 0
DWIDTH 28 0
BBX 14 4 -16 7
BITMAP
1C08
7F3C
E3F0
C1E0
ENDCHAR
STARTCHAR uni0335
ENCODING 821
SWIDTH 870 0
DWIDTH 28 0
BBX 14 2 -16 6
BITMAP
FFFC
FFFC
ENDCHAR
STARTCHAR uni0336
ENCODING 822
SWIDTH 870 0
DWIDTH 28 0
BBX 17 2 -18 6
BITMAP
FFFF80
FFFF80
ENDCHAR
STARTCHAR uni0337
ENCODING 823
SWIDTH 870 0
DWIDTH 28 0
BBX 12 8 -15 3
BITMAP
0070
00F0
03E0
0F80
1E00
7800
F000
C000
ENDCHAR
STARTCHAR uni0338
ENCODING 824
SWIDTH 870 0
DWIDTH 28 0
BBX 12 25 -15 -5
BITMAP
0030
0030
0060
0060
00C0
00C0
01C0
0180
0180
0300
0300
0600
0600
0C00
0C00
1C00
1800
1800
3000
3000
6000
6000
C000
C000
8000
ENDCHAR
STARTCHAR uni0339
ENCODING 825
SWIDTH 870 0
DWIDTH 28 0
BBX 4 6 -11 -8
BITMAP
C0
E0
30
30
E0
C0
ENDCHAR
STARTCHAR uni033A
ENCODING 826
SWIDTH 870 0
DWIDTH 28 0
BBX 6 4 -12 -5
BITMAP
CC
CC
CC
FC
ENDCHAR
STARTCHAR uni033B
ENCODING 827
SWIDTH 870 0
DWIDTH 28 0
BBX 5 5 -12 -7
BITMAP
F8
F8
C8
C8
F8
ENDCHAR
STARTCHAR uni033C
ENCODING 828
SWIDTH 870 0
DWIDTH 28 0
BBX 10 4 -14 -4
BITMAP
7380
FF80
9C40
0800
ENDCHAR
STARTCHAR uni033D
ENCODING 829
SWIDTH 870 0
DWIDTH 28 0
BBX 8 6 -13 16
BITMAP
C2
6E
38
3C
66
83
ENDCHAR
STARTCHAR uni033E
ENCODING 830
SWIDTH 870 0
DWIDTH 28 0
BBX 4 8 -11 15
BITMAP
60
E0
C0
60
70
30
70
60
ENDCHAR
STARTCHAR uni033F
ENCODING 831
SWIDTH 870 0
DWIDTH 28 0
BBX 11 6 -15 17
BITMAP
FFE0
7FE0
0000
0000
FFE0
7FE0
ENDCHAR
STARTCHAR uni0340
ENCODING 832
SWIDTH 870 0
DWIDTH 28 0
BBX 7 5 -18 19
BITMAP
40
F0
38
1C
06
ENDCHAR
STARTCHAR uni0341
ENCODING 833
SWIDTH 870 0
DWIDTH 28 0
BBX 6 6 -7 19
BITMAP
04
1C
3C
70
E0
C0
ENDCHAR
STARTCHAR uni0342
ENCODING 834
SWIDTH 870 0
DWIDTH 28 0
BBX 10 4 -14 16
BITMAP
3840
7CC0
EFC0
C700
ENDCHAR
STARTCHAR uni0343
ENCODING 835
SWIDTH 870 0
DWIDTH 28 0
BBX 5 8 -12 15
BITMAP
70
F8
F8
78
18
30
60
C0
ENDCHAR
STARTCHAR uni0344
ENCODING 836
SWIDTH 870 0
DWIDTH 28 0
BBX 10 7 -14 17
BITMAP
00C0
01C0
0380
0700
EFC0
E9C0
E1C0
ENDCHAR
STARTCHAR uni0345
ENCODING 837
SWIDTH 870 0
DWIDTH 28 0
BBX 4 6 -11 -6
BITMAP
C0
C0
C0
C0
F0
70
ENDCHAR
STARTCHAR uni0346
ENCODING 838
SWIDTH 870 0
DWIDTH 28 0
BBX 6 4 -12 17
BITMAP
FC
CC
CC
CC
ENDCHAR
STARTCHAR uni0347
ENCODING 839
SWIDTH 870 0
DWIDTH 28 0
BBX 11 6 -15 -7
BITMAP
7FE0
FFE0
0000
0000
FFE0
7FE0
ENDCHAR
STARTCHAR uni0348
ENCODING 840
SWIDTH 870 0
DWIDTH 28 0
BBX 5 5 -12 -6
BITMAP
D8
D8
D8
D8
D8
ENDCHAR
STARTCHAR uni0349
ENCODING 841
SWIDTH 870 0
DWIDTH 28 0
BBX 5 5 -12 -9
BITMAP
F8
F8
18
18
18
ENDCHAR
STARTCHAR uni034A
ENCODING 842
SWIDTH 870 0
DWIDTH 28 0
BBX 10 6 -14 17
BITMAP
0180
3F40
7EC0
FFC0
FF00
3000
ENDCHAR
STARTCHAR uni034B
ENCODING 843
SWIDTH 870 0
DWIDTH 28 0
BBX 11 8 -14 16
BITMAP
0700
0700
3F60
7EE0
E7C0
DF80
1C00
1C00
ENDCHAR
STARTCHAR uni034C
ENCODING 844
SWIDTH 870 0
DWIDTH 28 0
BBX 10 7 -14 16
BITMAP
3840
7CC0
FFC0
FFC0
FFC0
EFC0
C700
ENDCHAR
STARTCHAR uni034D
ENCODING 845
SWIDTH 870 0
DWIDTH 28 0
BBX 10 6 -14 -9
BITMAP
3300
6180
FFC0
FFC0
7180
3300
ENDCHAR
STARTCHAR uni034E
ENCODING 846
SWIDTH 870 0
DWIDTH 28 0
BBX 6 7 -12 -9
BITMAP
30
78
FC
B4
30
30
30
ENDCHAR
STARTCHAR uni034F
ENCODING 847
SWIDTH 870 0
DWIDTH 28 0
BBX 1 1 0 0
BITMAP
00
ENDCHAR
STARTCHAR uni0350
ENCODING 848
SWIDTH 870 0
DWIDTH 28 0
BBX 8 7 -13 16
BITMAP
E0
F8
1F
0F
3C
F0
C0
ENDCHAR
STARTCHAR uni0351
ENCODING 849
SWIDTH 870 0
DWIDTH 28 0
BBX 4 6 -11 16
BITMAP
30
F0
C0
C0
60
30
ENDCHAR
STARTCHAR uni0352
ENCODING 850
SWIDTH 870 0
DWIDTH 28 0
BBX 10 6 -14 17
BITMAP
1E00
7F80
6180
DCC0
DCC0
1C00
ENDCHAR
STARTCHAR uni0353
ENCODING 851
SWIDTH 870 0
DWIDTH 28 0
BBX 7 7 -13 -8
BITMAP
C4
EE
7C
38
3C
6E
C6
ENDCHAR
STARTCHAR uni0354
ENCODING 852
SWIDTH 870 0
DWIDTH 28 0
BBX 8 7 -13 -7
BITMAP
06
3E
F8
F0
3C
1F
07
ENDCHAR
STARTCHAR uni0355
ENCODING 853
SWIDTH 870 0
DWIDTH 28 0
BBX 8 7 -13 -7
BITMAP
E0
F8
1F
0F
3C
F0
C0
ENDCHAR
STARTCHAR uni0356
ENCODING 854
SWIDTH 870 0
DWIDTH 28 0
BBX 13 8 -16 -7
BITMAP
8020
F070
3E70
0FF0
1FD8
3D98
F398
C308
ENDCHAR
STARTCHAR uni0357
ENCODING 855
SWIDTH 870 0
DWIDTH 28 0
BBX 4 6 -11 16
BITMAP
C0
E0
30
30
E0
C0
ENDCHAR
STARTCHAR uni0358
ENCODING 856
SWIDTH 870 0
DWIDTH 28 0
BBX 4 4 -4 18
BITMAP
60
F0
F0
60
ENDCHAR
STARTCHAR uni0359
ENCODING 857
SWIDTH 870 0
DWIDTH 28 0
BBX 8 8 -9 -9
BITMAP
18
DB
FF
3C
7E
FF
DB
18
ENDCHAR
STARTCHAR uni035A
ENCODING 858
SWIDTH 870 0
DWIDTH 28 0
BBX 12 7 -14 -8
BITMAP
39C0
7FE0
C630
C630
C630
7FE0
39C0
ENDCHAR
STARTCHAR uni035B
ENCODING 859
SWIDTH 870 0
DWIDTH 28 0
BBX 7 8 -11 16
BITMAP
60
60
E0
FE
FC
0C
1C
1C
ENDCHAR
STARTCHAR uni035C
ENCODING 860
SWIDTH 870 0
DWIDTH 28 0
BBX 18 5 -9 -5
BITMAP
C000C0
600180
380780
1FFE00
07F800
ENDCHAR
STARTCHAR uni035D
ENCODING 861
SWIDTH 870 0
DWIDTH 28 0
BBX 18 5 -9 16
BITMAP
C000C0
600180
380780
1FFE00
07F800
ENDCHAR
STARTCHAR uni035E
ENCODING 862
SWIDTH 870 0
DWIDTH 28 0
BBX 16 2 -8 17
BITMAP
FFFF
FFFF
ENDCHAR
STARTCHAR uni035F
ENCODING 863
SWIDTH 870 0
DWIDTH 28 0
BBX 16 2 -8 -6
BITMAP
FFFF
FFFF
ENDCHAR
STARTCHAR uni0360
ENCODING 864
SWIDTH 870 0
DWIDTH 28 0
BBX 18 4 -9 16
BITMAP
0F00C0
7FE3C0
F9FF80
E03E00
ENDCHAR
STARTCHAR uni0361
ENCODING 865
SWIDTH 870 0
DWIDTH 28 0
BBX 18 5 -9 16
BITMAP
07F800
1FFE00
380700
600180
E000C0
ENDCHAR
STARTCHAR uni0362
ENCODING 866
SWIDTH 870 0
DWIDTH 28 0
BBX 18 6 -9 -9
BITMAP
000300
000180
FFFFC0
FFFFC0
000180
000300
ENDCHAR
STARTCHAR uni0363
ENCODING 867
SWIDTH 870 0
DWIDTH 28 0
BBX 8 9 -13 15
BITMAP
3E
7F
43
3F
FF
C3
C7
FF
7F
ENDCHAR
STARTCHAR uni0364
ENCODING 868
SWIDTH 870 0
DWIDTH 28 0
BBX 9 9 -13 15
BITMAP
3C00
7E00
C300
FF00
FF00
C000
E180
7F00
3C00
ENDCHAR
STARTCHAR uni0365
ENCODING 869
SWIDTH 870 0
DWIDTH 28 0
BBX 6 11 -13 15
BITMAP
18
18
F0
F0
30
30
30
30
30
FC
FC
ENDCHAR
STARTCHAR uni0366
ENCODING 870
SWIDTH 870 0
DWIDTH 28 0
BBX 8 9 -13 15
BITMAP
3C
7E
E7
C3
C3
C3
E7
7E
3C
ENDCHAR
STARTCHAR uni0367
ENCODING 871
SWIDTH 870 0
DWIDTH 28 0
BBX 6 8 -12 15
BITMAP
CC
CC
CC
CC
CC
CC
FC
7C
ENDCHAR
STARTCHAR uni0368
ENCODING 872
SWIDTH 870 0
DWIDTH 28 0
BBX 8 9 -13 15
BITMAP
3C
7E
E6
C2
C0
C0
E3
7E
3C
ENDCHAR
STARTCHAR uni0369
ENCODING 873
SWIDTH 870 0
DWIDTH 28 0
BBX 8 12 -13 15
BITMAP
03
03
03
3B
7F
E7
C3
C3
C3
E7
7F
3B
ENDCHAR
STARTCHAR uni036A
ENCODING 874
SWIDTH 870 0
DWIDTH 28 0
BBX 6 11 -12 16
BITMAP
C0
C0
C0
F8
FC
CC
CC
CC
CC
CC
CC
ENDCHAR
STARTCHAR uni036B
ENCODING 875
SWIDTH 870 0
DWIDTH 28 0
BBX 9 8 -14 15
BITMAP
FF00
FF80
CD80
CD80
CD80
CD80
CD80
CD80
ENDCHAR
STARTCHAR uni036C
ENCODING 876
SWIDTH 870 0
DWIDTH 28 0
BBX 6 8 -12 16
BITMAP
D8
FC
E0
C0
C0
C0
C0
C0
ENDCHAR
STARTCHAR uni036D
ENCODING 877
SWIDTH 870 0
DWIDTH 28 0
BBX 5 11 -12 15
BITMAP
60
60
60
F8
60
60
60
60
60
78
38
ENDCHAR
STARTCHAR uni036E
ENCODING 878
SWIDTH 870 0
DWIDTH 28 0
BBX 8 9 -13 15
BITMAP
C0
C3
46
66
64
2C
3C
18
18
ENDCHAR
STARTCHAR uni036F
ENCODING 879
SWIDTH 870 0
DWIDTH 28 0
BBX 9 8 -14 15
BITMAP
E180
7300
3E00
1C00
1C00
3600
6380
C180
ENDCHAR
STARTCHAR uni0370
ENCODING 880
SWIDTH 870 0
DWIDTH 28 0
BBX 12 20 3 0
BITMAP
C000
C000
C000
C000
C000
C000
C000
C000
C000
FFF0
FFF0
C000
C000
C000
C000
C000
C000
C000
C000
C000
ENDCHAR
STARTCHAR uni0371
ENCODING 881
SWIDTH 870 0
DWIDTH 28 0
BBX 12 15 3 0
BITMAP
C000
C000
C000
C000
C000
C000
C000
FFE0
FFF0
C000
C000
C000
C000
C000
C000
ENDCHAR
STARTCHAR uni0372
ENCODING 882
SWIDTH 870 0
DWIDTH 28 0
BBX 16 19 1 0
BITMAP
FFFF
FFFF
C183
C183
C183
C183
C183
C183
C183
8182
0180
0180
0180
0180
0180
0180
0180
0180
0180
ENDCHAR
STARTCHAR uni0373
ENCODING 883
SWIDTH 870 0
DWIDTH 28 0
BBX 12 21 3 0
BITMAP
FFF0
FFF0
C630
C630
C630
C630
C630
C630
C630
8620
0600
0600
0600
0600
0600
0600
0600
0600
0700
03F0
01F0
ENDCHAR
STARTCHAR uni0374
ENCODING 884
SWIDTH 870 0
DWIDTH 28 0
BBX 7 10 6 11
BITMAP
18
1C
1E
3C
38
70
70
E0
C0
80
ENDCHAR
STARTCHAR uni0375
ENCODING 885
SWIDTH 870 0
DWIDTH 28 0
BBX 7 10 6 -6
BITMAP
18
1C
1E
3C
38
70
70
E0
C0
80
ENDCHAR
STARTCHAR uni0376
ENCODING 886
SWIDTH 870 0
DWIDTH 28 0
BBX 14 20 2 0
BITMAP
C00C
C01C
C03C
C03C
C07C
C0EC
C0CC
C1CC
C18C
C38C
C70C
C60C
CE0C
DC0C
D80C
F80C
F00C
F00C
E00C
C00C
ENDCHAR
STARTCHAR uni0377
ENCODING 887
SWIDTH 870 0
DWIDTH 28 0
BBX 16 15 4 0
BITMAP
C060
C0E0
C1E0
C1E0
C360
C360
C660
CE60
CC60
D860
F860
F060
E070
E03F
C00F
ENDCHAR
STARTCHAR uni037A
ENCODING 890
SWIDTH 870 0
DWIDTH 28 0
BBX 4 6 7 -6
BITMAP
C0
C0
C0
C0
F0
70
ENDCHAR
STARTCHAR uni037B
ENCODING 891
SWIDTH 870 0
DWIDTH 28 0
BBX 15 15 2 0
BITMAP
0FC0
3FF0
7838
601C
600C
6006
0006
0006
0006
0006
800C
E01C
7838
3FF0
0FC0
ENDCHAR
STARTCHAR uni037C
ENCODING 892
SWIDTH 870 0
DWIDTH 28 0
BBX 15 15 2 0
BITMAP
07E0
1FF8
383C
700C
600C
C004
C380
C380
C380
C000
6002
700E
383C
1FF8
07E0
ENDCHAR
STARTCHAR uni037D
ENCODING 893
SWIDTH 870 0
DWIDTH 28 0
BBX 15 15 2 0
BITMAP
0FC0
3FF0
7838
601C
600C
6006
0386
0386
0386
0006
800C
E01C
7838
3FF0
0FC0
ENDCHAR
STARTCHAR uni037E
ENCODING 894
SWIDTH 870 0
DWIDTH 28 0
BBX 5 19 7 -5
BITMAP
60
F0
F0
60
00
00
00
00
00
00
70
F8
F8
78
18
10
30
60
C0
ENDCHAR
STARTCHAR uni037F
ENCODING 895
SWIDTH 870 0
DWIDTH 28 0
BBX 13 19 3 0
BITMAP
07F8
07F8
0018
0018
0018
0018
0018
0018
0018
0018
C018
C018
C018
C018
C018
E030
7070
3FE0
1F80
ENDCHAR
STARTCHAR tonos
ENCODING 900
SWIDTH 870 0
DWIDTH 28 0
BBX 6 6 6 16
BITMAP
0C
1C
38
70
C0
80
ENDCHAR
STARTCHAR dieresistonos
ENCODING 901
SWIDTH 870 0
DWIDTH 28 0
BBX 10 7 4 17
BITMAP
00C0
01C0
0380
0700
EDC0
E9C0
E1C0
ENDCHAR
STARTCHAR Alphatonos
ENCODING 902
SWIDTH 870 0
DWIDTH 28 0
BBX 17 21 1 0
BITMAP
C00000
C1C000
C1C000
C3C000
C36000
C76000
067000
063000
0C3000
0C1800
0C1800
181800
180C00
3FFC00
3FFE00
300600
700600
600300
E00300
C00300
C00180
ENDCHAR
STARTCHAR anoteleia
ENCODING 903
SWIDTH 870 0
DWIDTH 28 0
BBX 4 4 7 10
BITMAP
E0
F0
F0
60
ENDCHAR
STARTCHAR Epsilontonos
ENCODING 904
SWIDTH 870 0
DWIDTH 28 0
BBX 17 21 1 0
BITMAP
C00000
C00000
DFFF00
DFFF80
D80000
D80000
180000
180000
180000
180000
1FF000
1FF000
180000
180000
180000
180000
180000
180000
180000
1FFF00
1FFF80
ENDCHAR
STARTCHAR Etatonos
ENCODING 905
SWIDTH 870 0
DWIDTH 28 0
BBX 15 21 2 0
BITMAP
C000
F006
F006
F006
F006
F006
3006
3006
3006
3006
3FFE
3FFE
3006
3006
3006
3006
3006
3006
3006
3006
3006
ENDCHAR
STARTCHAR Iotatonos
ENCODING 906
SWIDTH 870 0
DWIDTH 28 0
BBX 16 20 1 0
BITMAP
C000
CFFF
CFFF
C060
C060
C060
0060
0060
0060
0060
0060
0060
0060
0060
0060
0060
0060
0060
0FFF
0FFF
ENDCHAR
STARTCHAR Omicrontonos
ENCODING 908
SWIDTH 870 0
DWIDTH 28 0
BBX 17 20 1 0
BITMAP
C3E000
CFF800
DC1C00
F80E00
F00700
600300
E00300
C00180
C00180
C00180
C00180
C00180
C00180
E00380
600300
700700
380E00
1C1C00
0FF800
03E000
ENDCHAR
STARTCHAR Upsilontonos
ENCODING 910
SWIDTH 870 0
DWIDTH 28 0
BBX 17 21 1 0
BITMAP
C00000
D00180
D80180
DC0300
CC0700
C60600
070C00
031C00
019800
01F800
00F000
006000
006000
006000
006000
006000
006000
006000
006000
006000
006000
ENDCHAR
STARTCHAR Omegatonos
ENCODING 911
SWIDTH 870 0
DWIDTH 28 0
BBX 18 20 0 0
BITMAP
C3F800
CFFE00
DE0F00
F80380
F00180
7001C0
6000C0
6000C0
6000C0
6000C0
6000C0
300180
300180
180300
0C0600
060E00
070C00
039800
7F9FC0
7F9FC0
ENDCHAR
STARTCHAR iotadieresistonos
ENCODING 912
SWIDTH 870 0
DWIDTH 28 0
BBX 11 24 4 0
BITMAP
00C0
01C0
0380
0700
7DC0
79C0
71C0
0000
0000
0000
FC00
FC00
0C00
0C00
0C00
0C00
0C00
0C00
0C00
0C00
0C00
0E00
07E0
03E0
ENDCHAR
STARTCHAR Alpha
ENCODING 913
SWIDTH 870 0
DWIDTH 28 0
BBX 17 20 1 0
BITMAP
018000
03C000
03C000
036000
066000
066000
063000
0C3000
0C3800
1C1800
181800
180C00
3FFC00
3FFC00
700600
600600
600700
E00300
C00300
C00180
ENDCHAR
STARTCHAR Beta
ENCODING 914
SWIDTH 870 0
DWIDTH 28 0
BBX 14 19 2 0
BITMAP
FFC0
FFE0
C070
C038
C018
C018
C018
C070
DFE0
DFF0
C038
C01C
C00C
C00C
C00C
C01C
C038
FFF0
FFE0
ENDCHAR
STARTCHAR Gamma
ENCODING 915
SWIDTH 870 0
DWIDTH 28 0
BBX 13 19 3 0
BITMAP
FFF8
FFF8
C000
C000
C000
C000
C000
C000
C000
C000
C000
C000
C000
C000
C000
C000
C000
C000
C000
ENDCHAR
STARTCHAR uni0394
ENCODING 916
SWIDTH 870 0
DWIDTH 28 0
BBX 17 20 1 0
BITMAP
018000
01C000
03C000
036000
066000
066000
063000
0C3000
0C3000
0C1800
181800
180C00
300C00
300C00
300600
600600
600600
600300
FFFF00
FFFF80
ENDCHAR
STARTCHAR Epsilon
ENCODING 917
SWIDTH 870 0
DWIDTH 28 0
BBX 13 19 2 0
BITMAP
FFF8
FFF8
C000
C000
C000
C000
C000
C000
FF80
FF80
C000
C000
C000
C000
C000
C000
C000
FFF8
FFF8
ENDCHAR
STARTCHAR Zeta
ENCODING 918
SWIDTH 870 0
DWIDTH 28 0
BBX 15 19 2 0
BITMAP
FFF8
FFF8
0038
0030
0060
00E0
01C0
0180
0380
0700
0600
0C00
1C00
1800
3000
7000
6000
FFFC
FFFE
ENDCHAR
STARTCHAR Eta
ENCODING 919
SWIDTH 870 0
DWIDTH 28 0
BBX 12 20 3 0
BITMAP
C030
C030
C030
C030
C030
C030
C030
C030
C030
FFF0
FFF0
C030
C030
C030
C030
C030
C030
C030
C030
C030
ENDCHAR
STARTCHAR Theta
ENCODING 920
SWIDTH 870 0
DWIDTH 28 0
BBX 16 20 1 0
BITMAP
07E0
0FF0
1C38
380C
700E
6006
E006
C003
C003
DFFB
DFFB
C003
C003
E007
6006
700E
301C
1C38
0FF0
07E0
ENDCHAR
STARTCHAR Iota
ENCODING 921
SWIDTH 870 0
DWIDTH 28 0
BBX 12 19 3 0
BITMAP
FFF0
FFF0
0600
0600
0600
0600
0600
0600
0600
0600
0600
0600
0600
0600
0600
0600
0600
FFF0
FFF0
ENDCHAR
STARTCHAR Kappa
ENCODING 922
SWIDTH 870 0
DWIDTH 28 0
BBX 15 20 2 0
BITMAP
C01C
C03C
C070
C0E0
C1C0
C380
C700
CE00
DC00
FF00
F780
E180
C0C0
C0E0
C060
C060
C030
C030
C01E
C01E
ENDCHAR
STARTCHAR Lambda
ENCODING 923
SWIDTH 870 0
DWIDTH 28 0
BBX 17 20 1 0
BITMAP
018000
03C000
03C000
036000
066000
066000
063000
0C3000
0C3800
1C1800
181800
180C00
300C00
300C00
700600
600600
600300
C00300
C00300
C00180
ENDCHAR
STARTCHAR Mu
ENCODING 924
SWIDTH 870 0
DWIDTH 28 0
BBX 16 20 1 0
BITMAP
E007
E007
F00F
F00F
D81B
D81B
DC3B
CC33
CE73
C663
C663
C3C3
C3C3
C183
C183
C003
C003
C003
C003
C003
ENDCHAR
STARTCHAR Nu
ENCODING 925
SWIDTH 870 0
DWIDTH 28 0
BBX 14 20 2 0
BITMAP
C00C
E00C
F00C
F00C
F80C
DC0C
CC0C
CE0C
C60C
C30C
C38C
C18C
C1CC
C0EC
C06C
C07C
C03C
C03C
C01C
C00C
ENDCHAR
STARTCHAR Xi
ENCODING 926
SWIDTH 870 0
DWIDTH 28 0
BBX 17 19 1 0
BITMAP
FFFF00
FFFF80
000000
000000
000000
000000
000000
000000
1FF800
1FF800
000000
000000
000000
000000
000000
000000
000000
FFFF00
FFFF80
ENDCHAR
STARTCHAR Omicron
ENCODING 927
SWIDTH 870 0
DWIDTH 28 0
BBX 16 20 1 0
BITMAP
07E0
0FF0
1C38
380C
700E
6006
E006
C003
C003
C003
C003
C003
C003
E007
6006
700E
301C
1C38
0FF0
07E0
ENDCHAR
STARTCHAR Pi
ENCODING 928
SWIDTH 870 0
DWIDTH 28 0
BBX 14 19 2 0
BITMAP
FFFC
FFFC
C00C
C00C
C00C
C00C
C00C
C00C
C00C
C00C
C00C
C00C
C00C
C00C
C00C
C00C
C00C
C00C
C00C
ENDCHAR
STARTCHAR Rho
ENCODING 929
SWIDTH 870 0
DWIDTH 28 0
BBX 13 19 3 0
BITMAP
FF80
FFE0
C070
C030
C018
C018
C018
C018
C030
C0F0
FFE0
FF80
C000
C000
C000
C000
C000
C000
C000
ENDCHAR
STARTCHAR Sigma
ENCODING 931
SWIDTH 870 0
DWIDTH 28 0
BBX 15 19 2 0
BITMAP
FFF8
FFF8
6000
7000
3000
1800
1C00
0C00
0600
0700
0600
0C00
1C00
1800
3000
7000
6000
FFFC
FFFE
ENDCHAR
STARTCHAR Tau
ENCODING 932
SWIDTH 870 0
DWIDTH 28 0
BBX 16 19 1 0
BITMAP
FFFF
FFFF
0180
0180
0180
0180
0180
0180
0180
0180
0180
0180
0180
0180
0180
0180
0180
0180
0180
ENDCHAR
STARTCHAR Upsilon
ENCODING 933
SWIDTH 870 0
DWIDTH 28 0
BBX 14 20 2 0
BITMAP
800C
C00C
E018
6038
3030
3860
18E0
0CC0
0FC0
0780
0300
0300
0300
0300
0300
0300
0300
0300
0300
0300
ENDCHAR
STARTCHAR Phi
ENCODING 934
SWIDTH 870 0
DWIDTH 28 0
BBX 16 19 1 0
BITMAP
3FFC
3FFC
0180
0180
0FF0
3FFC
799E
E186
C183
C183
C183
C183
6187
718E
3FFC
0FF0
0180
3FFC
3FFC
ENDCHAR
STARTCHAR Chi
ENCODING 935
SWIDTH 870 0
DWIDTH 28 0
BBX 18 21 0 -1
BITMAP
400180
F00300
380700
180600
0C0C00
061800
073800
033000
01E000
00E000
00E000
01E000
03B000
073800
061C00
0E0C00
1C0600
180700
3003C0
7001C0
600000
ENDCHAR
STARTCHAR Psi
ENCODING 936
SWIDTH 870 0
DWIDTH 28 0
BBX 14 20 2 0
BITMAP
C30C
C30C
C30C
C30C
C30C
C30C
C30C
C30C
C30C
E31C
6338
3B70
1FE0
0FC0
0300
0300
0300
0300
0300
0300
ENDCHAR
STARTCHAR uni03A9
ENCODING 937
SWIDTH 870 0
DWIDTH 28 0
BBX 16 20 1 0
BITMAP
07E0
1FF8
383C
700E
6006
E007
C003
C003
C003
C003
C003
6006
6006
300C
1818
0C38
0E30
0760
FF7F
FF7F
ENDCHAR
STARTCHAR Iotadieresis
ENCODING 938
SWIDTH 870 0
DWIDTH 28 0
BBX 12 24 3 0
BITMAP
70E0
70E0
70E0
0000
0000
FFF0
FFF0
0600
0600
0600
0600
0600
0600
0600
0600
0600
0600
0600
0600
0600
0600
0600
FFF0
FFF0
ENDCHAR
STARTCHAR Upsilondieresis
ENCODING 939
SWIDTH 870 0
DWIDTH 28 0
BBX 14 24 2 0
BITMAP
1C70
1C70
1C70
0000
800C
C00C
E018
6038
3030
3860
18E0
0CC0
0FC0
0780
0300
0300
0300
0300
0300
0300
0300
0300
0300
0300
ENDCHAR
STARTCHAR alphatonos
ENCODING 940
SWIDTH 870 0
DWIDTH 28 0
BBX 15 22 2 0
BITMAP
0018
0038
0070
01E0
01C0
0000
0000
07C6
1FF6
383E
701E
600E
C006
C006
C006
C006
C006
600E
701E
383E
1FF6
07C6
ENDCHAR
STARTCHAR epsilontonos
ENCODING 941
SWIDTH 870 0
DWIDTH 28 0
BBX 12 22 3 0
BITMAP
0030
0070
01E0
0380
0300
0000
0000
3F00
7F80
E1C0
C0C0
C000
E000
7E00
7E00
7000
C000
C000
C000
60F0
7FE0
1F80
ENDCHAR
STARTCHAR etatonos
ENCODING 942
SWIDTH 870 0
DWIDTH 28 0
BBX 12 29 3 -7
BITMAP
0070
00E0
01C0
0380
0700
0000
0000
CF80
DFC0
F860
E030
C030
C030
C030
C030
C030
C030
C030
C030
C030
C030
C030
0030
0030
0030
0030
0030
0030
0030
ENDCHAR
STARTCHAR iotatonos
ENCODING 943
SWIDTH 870 0
DWIDTH 28 0
BBX 10 22 4 0
BITMAP
0180
0380
0700
0E00
1C00
0000
0000
0000
F800
F800
1800
1800
1800
1800
1800
1800
1800
1800
1800
1C00
0FC0
07C0
ENDCHAR
STARTCHAR upsilondieresistonos
ENCODING 944
SWIDTH 870 0
DWIDTH 28 0
BBX 14 24 2 0
BITMAP
0030
0070
00E0
01C0
3B70
3A70
3870
0000
0000
C018
C018
C018
C00C
C00C
C00C
C00C
C00C
C00C
C01C
C018
E030
70E0
3FC0
0F80
ENDCHAR
STARTCHAR alpha
ENCODING 945
SWIDTH 870 0
DWIDTH 28 0
BBX 15 15 2 0
BITMAP
07C6
1FF6
383E
701E
600E
C006
C006
C006
C006
C006
600E
701E
383E
1FF6
07C6
ENDCHAR
STARTCHAR beta
ENCODING 946
SWIDTH 870 0
DWIDTH 28 0
BBX 12 28 3 -7
BITMAP
1E00
7F00
6180
C0C0
C0C0
C0C0
C0C0
C780
CF80
C7C0
C0E0
C060
C030
C030
C030
C030
CC30
CC70
CC60
C7C0
C380
C000
C000
C000
C000
C000
C000
C000
ENDCHAR
STARTCHAR gamma
ENCODING 947
SWIDTH 870 0
DWIDTH 28 0
BBX 14 22 2 -7
BITMAP
E004
F80C
1E0C
0618
0318
0330
01B0
01F0
01E0
00E0
00C0
00C0
0180
0180
0300
0300
0600
0600
0600
0C00
0C00
1800
ENDCHAR
STARTCHAR delta
ENCODING 948
SWIDTH 870 0
DWIDTH 28 0
BBX 15 22 2 0
BITMAP
3FF8
3FF8
0700
01C0
00E0
0060
0030
07F8
1FF8
383C
701C
600C
C006
C006
C006
C006
C006
600C
701C
3838
1FF0
07C0
ENDCHAR
STARTCHAR epsilon
ENCODING 949
SWIDTH 870 0
DWIDTH 28 0
BBX 12 15 3 0
BITMAP
3F00
7F80
E1C0
C0C0
C000
E000
7E00
7E00
7000
C000
C000
C000
60F0
7FE0
1F80
ENDCHAR
STARTCHAR zeta
ENCODING 950
SWIDTH 870 0
DWIDTH 28 0
BBX 15 26 2 -4
BITMAP
3FF8
3FF8
01C0
0700
0E00
0C00
1800
3800
3000
6000
6000
6000
C000
C000
C000
C000
C000
6000
7000
3800
1FF0
07F8
000C
000E
0006
0004
ENDCHAR
STARTCHAR eta
ENCODING 951
SWIDTH 870 0
DWIDTH 28 0
BBX 12 22 3 -7
BITMAP
CF80
FFC0
F860
E030
C030
C030
C030
C030
C030
C030
C030
C030
C030
C030
C030
0030
0030
0030
0030
0030
0030
0030
ENDCHAR
STARTCHAR theta
ENCODING 952
SWIDTH 870 0
DWIDTH 28 0
BBX 13 21 3 0
BITMAP
0F80
1FC0
38E0
7070
6030
E038
C018
C018
C018
C018
FFF8
FFF8
C018
C018
C018
E018
6030
6070
38E0
1FC0
0F80
ENDCHAR
STARTCHAR iota
ENCODING 953
SWIDTH 870 0
DWIDTH 28 0
BBX 10 14 4 0
BITMAP
F800
F800
1800
1800
1800
1800
1800
1800
1800
1800
1800
1C00
0FC0
07C0
ENDCHAR
STARTCHAR kappa
ENCODING 954
SWIDTH 870 0
DWIDTH 28 0
BBX 13 15 3 0
BITMAP
C0E0
C1E0
C380
C700
CE00
DC00
F800
FC00
CE00
C700
C380
C180
C0C0
C078
C038
ENDCHAR
STARTCHAR lambda
ENCODING 955
SWIDTH 870 0
DWIDTH 28 0
BBX 16 21 1 0
BITMAP
1C00
1E00
0300
0300
0300
0180
0180
01C0
03C0
0360
0760
0630
0E30
0C18
1C18
180C
300C
3006
6006
6003
C003
ENDCHAR
STARTCHAR uni03BC
ENCODING 956
SWIDTH 870 0
DWIDTH 28 0
BBX 12 22 3 -7
BITMAP
C030
C030
C030
C030
C030
C030
C030
C030
C030
C030
C030
C070
E1F0
FFF0
FF30
C000
C000
C000
C000
C000
C000
C000
ENDCHAR
STARTCHAR nu
ENCODING 957
SWIDTH 870 0
DWIDTH 28 0
BBX 14 15 2 0
BITMAP
C00C
C00C
601C
6018
3018
3030
3830
1870
1860
0CE0
0CC0
06C0
0780
0780
0300
ENDCHAR
STARTCHAR xi
ENCODING 958
SWIDTH 870 0
DWIDTH 28 0
BBX 15 26 2 -4
BITMAP
3FF8
3FF8
0780
0E00
1C00
1800
3000
3000
3000
3800
1FE0
3FE0
7800
6000
C000
C000
C000
C000
E000
7000
3FF0
0FF8
000C
000E
0006
0004
ENDCHAR
STARTCHAR omicron
ENCODING 959
SWIDTH 870 0
DWIDTH 28 0
BBX 16 15 1 0
BITMAP
07E0
1FF8
3C3C
700E
6006
C003
C003
C003
C003
C003
6006
700E
381C
1FF8
07E0
ENDCHAR
STARTCHAR pi
ENCODING 960
SWIDTH 870 0
DWIDTH 28 0
BBX 17 14 1 0
BITMAP
FFFF80
FFFF80
180C00
180C00
180C00
180C00
180C00
180C00
180C00
180C00
180C00
180C00
180F80
180F80
ENDCHAR
STARTCHAR rho
ENCODING 961
SWIDTH 870 0
DWIDTH 28 0
BBX 15 22 2 -7
BITMAP
07C0
1FF0
3838
701C
600C
C006
C006
C006
C006
C006
E00C
F01C
F838
DFF0
C7C0
C000
C000
C000
C000
C000
C000
C000
ENDCHAR
STARTCHAR sigma1
ENCODING 962
SWIDTH 870 0
DWIDTH 28 0
BBX 15 19 2 -4
BITMAP
07E0
1FF8
383C
700C
600C
C00C
C000
C000
C000
C000
6000
7000
3800
1FF0
07F8
000C
000E
0006
0004
ENDCHAR
STARTCHAR sigma
ENCODING 963
SWIDTH 870 0
DWIDTH 28 0
BBX 16 15 1 0
BITMAP
07FF
1FFF
3838
701C
600C
C006
C006
C006
C006
C006
600C
701C
3838
1FF0
07C0
ENDCHAR
STARTCHAR tau
ENCODING 964
SWIDTH 870 0
DWIDTH 28 0
BBX 12 14 3 0
BITMAP
FFF0
FFF0
0600
0600
0600
0600
0600
0600
0600
0600
0600
0700
03F0
01F0
ENDCHAR
STARTCHAR upsilon
ENCODING 965
SWIDTH 870 0
DWIDTH 28 0
BBX 13 15 3 0
BITMAP
C030
C030
C030
C018
C018
C018
C018
C018
C018
C038
C030
E070
70E0
3FC0
1F00
ENDCHAR
STARTCHAR phi
ENCODING 966
SWIDTH 870 0
DWIDTH 28 0
BBX 16 22 1 -7
BITMAP
05E0
0FF8
3DFC
718E
6186
E187
C183
C183
C183
C183
E187
6186
718E
3DBC
1FF8
07C0
0180
0180
0180
0180
0180
0180
ENDCHAR
STARTCHAR chi
ENCODING 967
SWIDTH 870 0
DWIDTH 28 0
BBX 18 20 0 -5
BITMAP
E00100
F00380
180600
1C0E00
0C0C00
061800
033800
03F000
01E000
00E000
01E000
03E000
033000
073800
0E1C00
0C0C00
180600
380700
3003C0
6001C0
ENDCHAR
STARTCHAR psi
ENCODING 968
SWIDTH 870 0
DWIDTH 28 0
BBX 14 21 2 -6
BITMAP
C30C
C30C
C30C
C30C
C30C
C30C
C30C
C30C
C30C
C30C
E31C
6338
3B70
1FE0
0FC0
0300
0300
0300
0300
0300
0300
ENDCHAR
STARTCHAR omega
ENCODING 969
SWIDTH 870 0
DWIDTH 28 0
BBX 16 14 1 0
BITMAP
300C
700E
6006
C003
C003
C183
C183
C183
C183
C183
63C6
63C6
3FFC
1C38
ENDCHAR
STARTCHAR iotadieresis
ENCODING 970
SWIDTH 870 0
DWIDTH 28 0
BBX 10 20 4 0
BITMAP
E1C0
E1C0
E1C0
0000
0000
0000
F800
F800
1800
1800
1800
1800
1800
1800
1800
1800
1800
1C00
0FC0
07C0
ENDCHAR
STARTCHAR upsilondieresis
ENCODING 971
SWIDTH 870 0
DWIDTH 28 0
BBX 14 20 2 0
BITMAP
3870
3870
3870
0000
0000
C018
C018
C018
C00C
C00C
C00C
C00C
C00C
C00C
C01C
C018
E030
70E0
3FC0
0F80
ENDCHAR
STARTCHAR omicrontonos
ENCODING 972
SWIDTH 870 0
DWIDTH 28 0
BBX 16 22 1 0
BITMAP
000C
001C
0078
00E0
00C0
0000
0000
07E0
1FF8
3C3C
700E
6006
C003
C003
C003
C003
C003
6006
700E
381C
1FF8
07E0
ENDCHAR
STARTCHAR upsilontonos
ENCODING 973
SWIDTH 870 0
DWIDTH 28 0
BBX 13 22 3 0
BITMAP
0030
0070
01E0
0380
0300
0000
0000
C030
C030
C010
C018
C018
C018
C018
C018
C018
C038
C030
E060
70E0
3FC0
1F00
ENDCHAR
STARTCHAR omegatonos
ENCODING 974
SWIDTH 870 0
DWIDTH 28 0
BBX 16 22 1 0
BITMAP
000C
003C
0078
00E0
01C0
0000
0000
0000
300C
700E
6006
C003
C003
C183
C183
C183
C183
C183
63C6
63C6
3FFC
1C38
ENDCHAR
STARTCHAR uni03CF
ENCODING 975
SWIDTH 870 0
DWIDTH 28 0
BBX 14 27 2 -7
BITMAP
C01C
C03C
C070
C0E0
C1C0
C380
C700
CE00
DC00
FE00
F700
E180
C0C0
C0C0
C060
C060
C060
C030
C038
C01C
000C
000C
000C
001C
0038
03F0
03E0
ENDCHAR
STARTCHAR uni03D0
ENCODING 976
SWIDTH 870 0
DWIDTH 28 0
BBX 13 21 3 0
BITMAP
1E00
7F00
6180
C0C0
C0C0
C0C0
C0C0
C780
CF80
C7C0
C0F0
C030
C018
C018
C018
C018
6038
6030
70E0
3FC0
1F80
ENDCHAR
STARTCHAR theta1
ENCODING 977
SWIDTH 870 0
DWIDTH 28 0
BBX 17 21 1 0
BITMAP
03E000
07F000
0E3800
0C1800
180C00
180C00
180C00
180C00
1C0C00
0E0C00
07FF80
03FF80
C00C00
E00C00
700C00
300C00
301800
183800
1C7000
0FE000
07C000
ENDCHAR
STARTCHAR Upsilon1
ENCODING 978
SWIDTH 870 0
DWIDTH 28 0
BBX 19 20 0 0
BITMAP
C00700
C00FC0
601CC0
7018E0
303060
187000
186000
0CC000
0FC000
078000
030000
030000
030000
030000
030000
030000
030000
030000
030000
030000
ENDCHAR
STARTCHAR uni03D3
ENCODING 979
SWIDTH 870 0
DWIDTH 28 0
BBX 19 21 0 0
BITMAP
C00000
F00700
F00F80
D81CC0
D818E0
CC3860
0C3000
066000
066000
03C000
03C000
018000
018000
018000
018000
018000
018000
018000
018000
018000
018000
ENDCHAR
STARTCHAR uni03D4
ENCODING 980
SWIDTH 870 0
DWIDTH 28 0
BBX 19 24 0 0
BITMAP
387000
387000
387000
000000
C00700
C00FC0
601CC0
7018E0
303060
187000
186000
0CC000
0FC000
078000
030000
030000
030000
030000
030000
030000
030000
030000
030000
030000
ENDCHAR
STARTCHAR phi1
ENCODING 981
SWIDTH 870 0
DWIDTH 28 0
BBX 16 21 1 -7
BITMAP
0E78
1DFC
318E
6186
E183
C183
C183
C183
C183
E187
618E
719E
3DFC
1FF8
07E0
0180
0180
0180
0180
0180
0180
ENDCHAR
STARTCHAR omega1
ENCODING 982
SWIDTH 870 0
DWIDTH 28 0
BBX 18 14 0 0
BITMAP
3FFFC0
7FFFC0
F80180
F001C0
3000C0
3060C0
3060C0
3060C0
3060C0
3060C0
18F180
18F180
0FFF00
070E00
ENDCHAR
STARTCHAR uni03D7
ENCODING 983
SWIDTH 870 0
DWIDTH 28 0
BBX 13 22 3 -7
BITMAP
C0E0
C1E0
C380
C700
CE00
FC00
F800
F800
CC00
C600
C300
C180
C0C0
C070
C038
0018
0018
0018
0038
0070
07E0
07C0
ENDCHAR
STARTCHAR uni03D8
ENCODING 984
SWIDTH 870 0
DWIDTH 28 0
BBX 16 20 1 0
BITMAP
07E0
1FF8
381C
700E
E006
C003
C003
C003
C003
6007
700E
381C
1FF8
07E0
0180
0180
0180
0180
0180
0180
ENDCHAR
STARTCHAR uni03D9
ENCODING 985
SWIDTH 870 0
DWIDTH 28 0
BBX 16 23 1 -8
BITMAP
07E0
1FF8
3C3C
700E
6006
E007
C003
C003
C003
C003
E007
6006
700E
3FFC
1FF8
07E0
0180
0180
0180
0180
0180
0180
0180
ENDCHAR
STARTCHAR uni03DA
ENCODING 986
SWIDTH 870 0
DWIDTH 28 0
BBX 15 20 2 0
BITMAP
07E6
1FFE
3C1E
700E
6006
C006
C000
C000
C000
E000
7000
3C00
1FC0
07C0
00C0
00C0
00C0
00C0
00C0
00C0
ENDCHAR
STARTCHAR uni03DB
ENCODING 987
SWIDTH 870 0
DWIDTH 28 0
BBX 15 19 2 -4
BITMAP
07FC
1FFC
3800
7000
6000
C000
C000
C000
C000
C000
6000
7000
3800
1FF0
07F8
000C
000E
0006
0004
ENDCHAR
STARTCHAR uni03DC
ENCODING 988
SWIDTH 870 0
DWIDTH 28 0
BBX 13 19 3 0
BITMAP
FFF8
FFF8
C000
C000
C000
C000
C000
C000
FF80
FF80
C000
C000
C000
C000
C000
C000
C000
C000
C000
ENDCHAR
STARTCHAR uni03DD
ENCODING 989
SWIDTH 870 0
DWIDTH 28 0
BBX 13 20 3 -5
BITMAP
0FF8
1FF8
3800
7000
E000
C000
C000
C000
C000
FF80
FF80
C000
C000
C000
C000
C000
C000
C000
C000
C000
ENDCHAR
STARTCHAR uni03DE
ENCODING 990
SWIDTH 870 0
DWIDTH 28 0
BBX 13 22 3 -3
BITMAP
3000
3000
1800
1800
1800
1800
1810
1878
30F0
31F0
76E0
6CE0
F8C0
E0C0
C1C0
0180
0180
0180
0180
0180
0180
0080
ENDCHAR
STARTCHAR uni03DF
ENCODING 991
SWIDTH 870 0
DWIDTH 28 0
BBX 10 22 4 -7
BITMAP
C000
E000
6000
6000
6000
6000
6000
C000
C000
FFC0
FFC0
00C0
0180
0180
0180
0300
0300
0300
0300
0300
0300
0180
ENDCHAR
STARTCHAR uni03E0
ENCODING 992
SWIDTH 870 0
DWIDTH 28 0
BBX 15 20 2 0
BITMAP
CFC0
FFE0
F070
E038
C07C
C0EC
01DC
03BE
0776
0CE6
19C6
3386
6706
0E0E
1C0C
381C
1038
00F0
07E0
0780
ENDCHAR
STARTCHAR uni03E1
ENCODING 993
SWIDTH 870 0
DWIDTH 28 0
BBX 14 15 2 0
BITMAP
1F80
7FE0
F3F0
C738
CE78
9CEC
39CC
738C
670C
0E0C
1C18
1838
3070
07E0
0780
ENDCHAR
STARTCHAR uni03E2
ENCODING 994
SWIDTH 870 0
DWIDTH 28 0
BBX 17 25 1 -6
BITMAP
1D1800
339E00
618600
618300
418300
C18300
C18180
C18180
C18180
C18180
C18180
C18180
C18180
618180
618380
738380
37CF00
3FFF00
0C7F00
000E00
000C00
003C00
007800
01F000
01C000
ENDCHAR
STARTCHAR uni03E3
ENCODING 995
SWIDTH 870 0
DWIDTH 28 0
BBX 18 22 0 -7
BITMAP
1DDC00
3DDF00
70C300
60C180
C0C180
C0C0C0
C0C0C0
C0C0C0
C0C0C0
C0C0C0
E0C0C0
60C1C0
71C3C0
3FFF80
1E7F80
000300
000700
000E00
001C00
007800
00F000
006000
ENDCHAR
STARTCHAR uni03E4
ENCODING 996
SWIDTH 870 0
DWIDTH 28 0
BBX 15 24 2 -5
BITMAP
1878
3878
7018
6018
E018
C018
C018
C018
C018
C018
C018
6038
6078
30F8
3FD8
0F98
0018
0018
0018
0018
0018
0018
001E
001E
ENDCHAR
STARTCHAR uni03E5
ENCODING 997
SWIDTH 870 0
DWIDTH 28 0
BBX 14 19 2 -4
BITMAP
3000
70F0
60F0
E030
C030
C030
C030
C030
C030
6070
70F0
3FF0
0F30
0030
0030
0030
0030
003C
003C
ENDCHAR
STARTCHAR uni03E6
ENCODING 998
SWIDTH 870 0
DWIDTH 28 0
BBX 14 24 2 -5
BITMAP
E000
E000
6000
6000
6000
6000
6780
6FE0
7870
7038
6018
6018
600C
600C
600C
600C
600C
781C
7818
0038
C070
F0E0
FFC0
CF80
ENDCHAR
STARTCHAR uni03E7
ENCODING 999
SWIDTH 870 0
DWIDTH 28 0
BBX 14 19 2 -5
BITMAP
F000
F000
3000
3000
37C0
3FF0
3C38
3818
301C
300C
300C
300C
3C0C
3C18
0038
7070
7FE0
6F80
6000
ENDCHAR
STARTCHAR uni03E8
ENCODING 1000
SWIDTH 870 0
DWIDTH 28 0
BBX 12 25 3 -6
BITMAP
3E00
7F80
E1C0
C0C0
C060
C060
6060
7860
18E0
03C0
0F00
1E00
3800
7000
6000
C000
C000
C000
C000
C000
E010
6030
70F0
3FE0
0F00
ENDCHAR
STARTCHAR uni03E9
ENCODING 1001
SWIDTH 870 0
DWIDTH 28 0
BBX 11 20 3 -5
BITMAP
3E00
7F00
E380
C1C0
C0C0
70C0
39C0
0380
0F00
3C00
7000
6000
C000
C000
C000
C000
E060
70E0
3FC0
1F00
ENDCHAR
STARTCHAR uni03EA
ENCODING 1002
SWIDTH 870 0
DWIDTH 28 0
BBX 18 20 0 -2
BITMAP
061800
0E3C00
032000
036000
01E000
01C000
01C000
01C000
01E000
036000
037000
063000
063800
0E1800
4C1800
DC0C00
FFFF80
7FFFC0
0000C0
0000C0
ENDCHAR
STARTCHAR uni03EB
ENCODING 1003
SWIDTH 870 0
DWIDTH 28 0
BBX 18 16 0 -2
BITMAP
061800
0E3C00
032000
01E000
00C000
01E000
01E000
037000
073000
061800
4C1C00
DC0C00
FFFF80
7FFFC0
0000C0
000080
ENDCHAR
STARTCHAR uni03EC
ENCODING 1004
SWIDTH 870 0
DWIDTH 28 0
BBX 17 19 1 0
BITMAP
00FC00
03FF00
0F0780
1C0180
3E0180
7F8180
C3E000
C07000
C03800
C01C00
C00C00
C00C00
C00C00
600C00
601C00
701800
387000
1FE000
07C000
ENDCHAR
STARTCHAR uni03ED
ENCODING 1005
SWIDTH 870 0
DWIDTH 28 0
BBX 16 15 1 0
BITMAP
01F8
07FE
1E07
3C03
7F83
63E0
C070
C038
C018
C018
E018
6038
7870
3FE0
0FC0
ENDCHAR
STARTCHAR uni03EE
ENCODING 1006
SWIDTH 870 0
DWIDTH 28 0
BBX 18 30 0 -5
BITMAP
03C000
03C000
00C000
00C000
00C000
00C000
00C000
00C000
00C000
00C000
FFFF80
FFFFC0
C0C0C0
C0C080
00C000
00C000
00C000
00C000
00C000
00C000
00C000
00C000
00C000
00C000
00C000
00C000
00C000
00C000
00F000
00F000
ENDCHAR
STARTCHAR uni03EF
ENCODING 1007
SWIDTH 870 0
DWIDTH 28 0
BBX 16 23 1 -4
BITMAP
0780
0780
0180
0180
0180
0180
0180
FFFE
FFFF
C183
C183
0180
0180
0180
0180
0180
0180
0180
0180
0180
0180
01E0
01E0
ENDCHAR
STARTCHAR uni03F0
ENCODING 1008
SWIDTH 870 0
DWIDTH 28 0
BBX 14 15 2 0
BITMAP
C070
C1F8
C3C0
C700
CE00
CC00
DC00
FC00
EC00
EE00
E600
C700
C380
C1FC
C07C
ENDCHAR
STARTCHAR uni03F1
ENCODING 1009
SWIDTH 870 0
DWIDTH 28 0
BBX 15 21 2 -6
BITMAP
07C0
1FF0
3838
701C
600C
C006
C006
C006
C006
C006
E00C
F01C
F838
DFF0
C7C0
C000
C000
E000
7000
3FFC
1FFC
ENDCHAR
STARTCHAR uni03F2
ENCODING 1010
SWIDTH 870 0
DWIDTH 28 0
BBX 15 15 2 0
BITMAP
07E0
1FF8
383C
700C
600C
C004
C000
C000
C000
C000
6002
700E
383C
1FF8
07E0
ENDCHAR
STARTCHAR uni03F3
ENCODING 1011
SWIDTH 870 0
DWIDTH 28 0
BBX 8 27 5 -7
BITMAP
07
07
07
00
00
00
3F
3F
03
03
03
03
03
03
03
03
03
03
03
03
03
03
03
07
0E
FC
F8
ENDCHAR
STARTCHAR uni03F4
ENCODING 1012
SWIDTH 870 0
DWIDTH 28 0
BBX 16 20 1 0
BITMAP
03E0
0FF0
1C3C
380C
7006
6006
E003
C003
C003
FFFF
FFFF
C003
C003
E003
6007
7006
380C
1C3C
0FF8
03E0
ENDCHAR
STARTCHAR uni03F5
ENCODING 1013
SWIDTH 870 0
DWIDTH 28 0
BBX 13 15 3 0
BITMAP
07C0
1FF0
3838
7000
E000
C000
C000
FFC0
FFC0
C000
C000
6000
3800
1FF0
07E0
ENDCHAR
STARTCHAR uni03F6
ENCODING 1014
SWIDTH 870 0
DWIDTH 28 0
BBX 13 15 3 0
BITMAP
3F00
FFC0
C1E0
0060
0070
0030
0030
1FF8
1FF0
0030
0030
0060
00E0
FFC0
7F00
ENDCHAR
STARTCHAR uni03F7
ENCODING 1015
SWIDTH 870 0
DWIDTH 28 0
BBX 14 19 3 0
BITMAP
FFF0
FFF0
0600
0600
07E0
07F0
0638
061C
060C
060C
060C
060C
061C
0638
07F0
07C0
0600
FFF0
FFF0
ENDCHAR
STARTCHAR uni03F8
ENCODING 1016
SWIDTH 870 0
DWIDTH 28 0
BBX 15 28 2 -7
BITMAP
C000
C000
C000
C000
C000
C000
C7C0
DFF0
F838
F01C
E00C
C006
C006
C006
C006
C006
E00C
F01C
F838
DFF0
C7C0
C000
C000
C000
C000
C000
C000
C000
ENDCHAR
STARTCHAR uni03F9
ENCODING 1017
SWIDTH 870 0
DWIDTH 28 0
BBX 16 20 1 0
BITMAP
03E0
0FF8
1C1E
3006
7003
6003
E003
C000
C000
C000
C000
C000
C000
6000
6000
3003
3807
1E0E
0FFC
03F0
ENDCHAR
STARTCHAR uni03FA
ENCODING 1018
SWIDTH 870 0
DWIDTH 28 0
BBX 16 20 1 0
BITMAP
E007
F00F
F01F
F81F
DC3B
CE73
C7E3
C3C3
C183
C003
C003
C003
C003
C003
C003
C003
C003
C003
C003
C003
ENDCHAR
STARTCHAR uni03FB
ENCODING 1019
SWIDTH 870 0
DWIDTH 28 0
BBX 12 22 3 -7
BITMAP
C030
E070
F0F0
F0F0
D9B0
DFB0
CF30
C630
C030
C030
C030
C030
C030
C030
C030
C000
C000
C000
C000
C000
C000
C000
ENDCHAR
STARTCHAR uni03FC
ENCODING 1020
SWIDTH 870 0
DWIDTH 28 0
BBX 18 22 0 -7
BITMAP
00F800
03FE00
070700
0E0380
0C0180
1800C0
1800C0
1800C0
1800C0
1800C0
1C0180
1E0380
1F0700
1BFE00
18F800
180000
FFC000
FFC000
180000
180000
180000
180000
ENDCHAR
STARTCHAR uni03FD
ENCODING 1021
SWIDTH 870 0
DWIDTH 28 0
BBX 16 20 1 0
BITMAP
07E0
1FF0
3C3C
300C
6006
6006
6003
0003
0003
0003
0003
0003
0003
0006
0006
C00E
E01C
7838
1FF0
0FC0
ENDCHAR
STARTCHAR uni03FE
ENCODING 1022
SWIDTH 870 0
DWIDTH 28 0
BBX 16 20 1 0
BITMAP
03E0
0FF8
1C1E
3006
7003
6003
E003
C000
C000
C1C0
C1C0
C1C0
C000
6000
6000
3003
3806
1C1E
0FF8
03E0
ENDCHAR
STARTCHAR uni03FF
ENCODING 1023
SWIDTH 870 0
DWIDTH 28 0
BBX 16 20 1 0
BITMAP
07E0
1FF0
3C3C
300C
6006
6006
6003
0003
0003
0383
0383
0383
0003
0006
0006
C00E
E01C
7838
1FF0
0FC0
ENDCHAR
STARTCHAR uni0400
ENCODING 1024
SWIDTH 870 0
DWIDTH 28 0
BBX 13 26 2 0
BITMAP
2000
3800
1C00
0E00
0700
0300
0000
FFF8
FFF8
C000
C000
C000
C000
C000
C000
FF80
FF80
C000
C000
C000
C000
C000
C000
C000
FFF8
FFF8
ENDCHAR
STARTCHAR uni0401
ENCODING 1025
SWIDTH 870 0
DWIDTH 28 0
BBX 13 24 2 0
BITMAP
3070
3070
3070
0000
0000
FFF8
FFF8
C000
C000
C000
C000
C000
C000
FF80
FF80
C000
C000
C000
C000
C000
C000
C000
FFF8
FFF8
ENDCHAR
STARTCHAR uni0402
ENCODING 1026
SWIDTH 870 0
DWIDTH 28 0
BBX 16 19 1 0
BITMAP
FFF8
FFF8
0C00
0C00
0CF8
0DFE
0F0E
0E03
0C03
0C03
0C03
0C03
0C03
0C03
0C03
0C07
0C06
0CFC
0CF8
ENDCHAR
STARTCHAR uni0403
ENCODING 1027
SWIDTH 870 0
DWIDTH 28 0
BBX 13 25 3 0
BITMAP
0020
00E0
01C0
0380
0700
0600
FFF8
FFF8
C000
C000
C000
C000
C000
C000
C000
C000
C000
C000
C000
C000
C000
C000
C000
C000
C000
ENDCHAR
STARTCHAR uni0404
ENCODING 1028
SWIDTH 870 0
DWIDTH 28 0
BBX 16 20 1 0
BITMAP
03F3
0FFB
1C1F
3007
7003
6003
6000
C000
C000
FFC0
FFC0
C000
C000
E000
6000
7003
3807
1E0E
0FFC
03F0
ENDCHAR
STARTCHAR uni0405
ENCODING 1029
SWIDTH 870 0
DWIDTH 28 0
BBX 14 20 2 0
BITMAP
07C0
1FF0
3838
7018
600C
600C
6000
7000
3C00
0FE0
03F0
0038
000C
800C
C00C
C00C
E01C
7078
3FF0
0FC0
ENDCHAR
STARTCHAR uni0406
ENCODING 1030
SWIDTH 870 0
DWIDTH 28 0
BBX 12 19 3 0
BITMAP
FFF0
FFF0
0600
0600
0600
0600
0600
0600
0600
0600
0600
0600
0600
0600
0600
0600
0600
FFF0
FFF0
ENDCHAR
STARTCHAR uni0407
ENCODING 1031
SWIDTH 870 0
DWIDTH 28 0
BBX 12 24 3 0
BITMAP
70E0
70E0
70E0
0000
0000
FFF0
FFF0
0600
0600
0600
0600
0600
0600
0600
0600
0600
0600
0600
0600
0600
0600
0600
FFF0
FFF0
ENDCHAR
STARTCHAR uni0408
ENCODING 1032
SWIDTH 870 0
DWIDTH 28 0
BBX 13 19 3 0
BITMAP
07F8
07F8
0018
0018
0018
0018
0018
0018
0018
0018
C018
C018
C018
C018
C018
E030
7070
3FE0
1F80
ENDCHAR
STARTCHAR uni0409
ENCODING 1033
SWIDTH 870 0
DWIDTH 28 0
BBX 18 19 0 0
BITMAP
0FC000
0FC000
0CC000
0CC000
0CC000
0CC000
0CC000
0CC000
0CFE00
0CFF80
0CC180
0CC0C0
0CC0C0
0CC0C0
0CC0C0
0CC0C0
18C180
F8FF80
F0FF00
ENDCHAR
STARTCHAR uni040A
ENCODING 1034
SWIDTH 870 0
DWIDTH 28 0
BBX 17 20 1 0
BITMAP
C18000
C18000
C18000
C18000
C18000
C18000
C18000
C18000
C18000
FFFC00
FFFE00
C18700
C18180
C18180
C18180
C18180
C18180
C18300
C1FF00
C1FE00
ENDCHAR
STARTCHAR uni040B
ENCODING 1035
SWIDTH 870 0
DWIDTH 28 0
BBX 16 19 1 0
BITMAP
FFF8
FFF8
0C00
0C00
0CF8
0DFE
0F0E
0E03
0C03
0C03
0C03
0C03
0C03
0C03
0C03
0C03
0C03
0C03
0C03
ENDCHAR
STARTCHAR uni040C
ENCODING 1036
SWIDTH 870 0
DWIDTH 28 0
BBX 15 25 2 0
BITMAP
0030
0070
00E0
0380
0300
C01C
C01C
C070
C0E0
C1C0
C380
C700
CE00
DC00
FE00
F780
E180
C0C0
C0E0
C060
C060
C030
C030
C01E
C01E
ENDCHAR
STARTCHAR uni040D
ENCODING 1037
SWIDTH 870 0
DWIDTH 28 0
BBX 14 26 2 0
BITMAP
2000
3000
3C00
1E00
0700
0300
C00C
C01C
C03C
C03C
C07C
C06C
C0CC
C1CC
C18C
C38C
C30C
C60C
CE0C
CC0C
D80C
D80C
F00C
F00C
E00C
C00C
ENDCHAR
STARTCHAR uni040E
ENCODING 1038
SWIDTH 870 0
DWIDTH 28 0
BBX 16 27 1 -2
BITMAP
1818
1818
0C30
0FF0
03C0
C003
6003
6006
3006
300C
180C
1818
0C18
0C10
0630
0630
0760
0360
03C0
01C0
0180
0180
0300
0300
0600
1E00
1C00
ENDCHAR
STARTCHAR uni040F
ENCODING 1039
SWIDTH 870 0
DWIDTH 28 0
BBX 14 24 2 -4
BITMAP
C00C
C00C
C00C
C00C
C00C
C00C
C00C
C00C
C00C
C00C
C00C
C00C
C00C
C00C
C00C
C00C
C00C
C00C
FFFC
FFFC
0180
0180
0180
0180
ENDCHAR
STARTCHAR uni0410
ENCODING 1040
SWIDTH 870 0
DWIDTH 28 0
BBX 17 20 1 0
BITMAP
018000
03C000
03C000
036000
066000
066000
063000
0C3000
0C3800
1C1800
181800
180C00
3FFC00
3FFC00
700600
600600
600700
E00300
C00300
C00180
ENDCHAR
STARTCHAR uni0411
ENCODING 1041
SWIDTH 870 0
DWIDTH 28 0
BBX 14 19 2 0
BITMAP
FFFC
FFFC
C000
C000
C000
C000
C000
C000
FFC0
FFF0
C078
C01C
C00C
C00C
C00C
C01C
C038
FFF0
FFE0
ENDCHAR
STARTCHAR uni0412
ENCODING 1042
SWIDTH 870 0
DWIDTH 28 0
BBX 14 19 2 0
BITMAP
FFC0
FFE0
C070
C038
C018
C018
C018
C070
DFE0
DFF0
C038
C01C
C00C
C00C
C00C
C01C
C038
FFF0
FFE0
ENDCHAR
STARTCHAR uni0413
ENCODING 1043
SWIDTH 870 0
DWIDTH 28 0
BBX 13 19 3 0
BITMAP
FFF8
FFF8
C000
C000
C000
C000
C000
C000
C000
C000
C000
C000
C000
C000
C000
C000
C000
C000
C000
ENDCHAR
STARTCHAR uni0414
ENCODING 1044
SWIDTH 870 0
DWIDTH 28 0
BBX 17 24 1 -5
BITMAP
0FFE00
0FFE00
0C0600
0C0600
0C0600
0C0600
0C0600
0C0600
0C0600
0C0600
0C0600
0C0600
0C0600
0C0600
0C0600
1C0600
380600
FFFF80
FFFF80
C00180
C00180
C00180
C00180
C00180
ENDCHAR
STARTCHAR uni0415
ENCODING 1045
SWIDTH 870 0
DWIDTH 28 0
BBX 13 19 2 0
BITMAP
FFF8
FFF8
C000
C000
C000
C000
C000
C000
FF80
FF80
C000
C000
C000
C000
C000
C000
C000
FFF8
FFF8
ENDCHAR
STARTCHAR uni0416
ENCODING 1046
SWIDTH 870 0
DWIDTH 28 0
BBX 18 20 0 0
BITMAP
C0C0C0
E0C1C0
70C380
30C300
18C600
1CCE00
0CCC00
06D800
07F800
07F800
0DEC00
19C600
18C600
10C200
30C300
30C300
20C100
60C100
E0C1C0
E0C1C0
ENDCHAR
STARTCHAR uni0417
ENCODING 1047
SWIDTH 870 0
DWIDTH 28 0
BBX 15 20 1 0
BITMAP
03E0
1FF8
3C1C
300E
0006
0006
0006
000E
001C
01F8
03F8
001C
000E
0006
0006
0006
C00E
F83C
3FF8
0FE0
ENDCHAR
STARTCHAR uni0418
ENCODING 1048
SWIDTH 870 0
DWIDTH 28 0
BBX 14 20 2 0
BITMAP
C00C
C01C
C03C
C03C
C07C
C0EC
C0CC
C1CC
C18C
C38C
C70C
C60C
CE0C
DC0C
D80C
F80C
F00C
F00C
E00C
C00C
ENDCHAR
STARTCHAR uni0419
ENCODING 1049
SWIDTH 870 0
DWIDTH 28 0
BBX 14 25 2 0
BITMAP
3030
3030
1860
1FE0
0780
C00C
C01C
C03C
C03C
C07C
C0EC
C0EC
C1CC
C18C
C38C
C70C
C60C
CE0C
DC0C
DC0C
F80C
F00C
F00C
E00C
C00C
ENDCHAR
STARTCHAR uni041A
ENCODING 1050
SWIDTH 870 0
DWIDTH 28 0
BBX 15 20 2 0
BITMAP
C01C
C03C
C070
C0E0
C1C0
C380
C700
CE00
DC00
FF00
F780
E180
C0C0
C0E0
C060
C060
C030
C030
C01E
C01E
ENDCHAR
STARTCHAR uni041B
ENCODING 1051
SWIDTH 870 0
DWIDTH 28 0
BBX 17 19 1 0
BITMAP
07FF80
07FF80
060180
060180
060180
060180
060180
060180
060180
060180
060180
060180
060180
060180
060180
0E0180
0C0180
FC0180
F00180
ENDCHAR
STARTCHAR uni041C
ENCODING 1052
SWIDTH 870 0
DWIDTH 28 0
BBX 16 20 1 0
BITMAP
E007
E007
F00F
F00F
D81B
D81B
DC3B
CC33
CE73
C663
C663
C3C3
C3C3
C183
C183
C003
C003
C003
C003
C003
ENDCHAR
STARTCHAR uni041D
ENCODING 1053
SWIDTH 870 0
DWIDTH 28 0
BBX 12 20 3 0
BITMAP
C030
C030
C030
C030
C030
C030
C030
C030
C030
FFF0
FFF0
C030
C030
C030
C030
C030
C030
C030
C030
C030
ENDCHAR
STARTCHAR uni041E
ENCODING 1054
SWIDTH 870 0
DWIDTH 28 0
BBX 16 20 1 0
BITMAP
07E0
0FF0
1C38
380C
700E
6006
E006
C003
C003
C003
C003
C003
C003
E007
6006
700E
301C
1C38
0FF0
07E0
ENDCHAR
STARTCHAR uni041F
ENCODING 1055
SWIDTH 870 0
DWIDTH 28 0
BBX 14 19 2 0
BITMAP
FFFC
FFFC
C00C
C00C
C00C
C00C
C00C
C00C
C00C
C00C
C00C
C00C
C00C
C00C
C00C
C00C
C00C
C00C
C00C
ENDCHAR
STARTCHAR uni0420
ENCODING 1056
SWIDTH 870 0
DWIDTH 28 0
BBX 13 19 3 0
BITMAP
FF80
FFE0
C070
C030
C018
C018
C018
C018
C030
C0F0
FFE0
FF80
C000
C000
C000
C000
C000
C000
C000
ENDCHAR
STARTCHAR uni0421
ENCODING 1057
SWIDTH 870 0
DWIDTH 28 0
BBX 16 20 1 0
BITMAP
03F3
0FFB
1C1F
3807
7003
6003
6000
C000
C000
C000
C000
C000
C000
E000
6000
7003
3807
1E0E
0FFC
03F0
ENDCHAR
STARTCHAR uni0422
ENCODING 1058
SWIDTH 870 0
DWIDTH 28 0
BBX 16 19 1 0
BITMAP
FFFF
FFFF
0180
0180
0180
0180
0180
0180
0180
0180
0180
0180
0180
0180
0180
0180
0180
0180
0180
ENDCHAR
STARTCHAR uni0423
ENCODING 1059
SWIDTH 870 0
DWIDTH 28 0
BBX 16 22 1 -2
BITMAP
4003
E003
6006
3006
300C
180C
1818
0C18
0C30
0630
0630
0360
0360
01C0
01C0
0180
0180
0300
0300
0700
1E00
1C00
ENDCHAR
STARTCHAR uni0424
ENCODING 1060
SWIDTH 870 0
DWIDTH 28 0
BBX 16 19 1 0
BITMAP
3FFC
3FFC
0180
0180
0FF0
3FFC
799E
E186
C183
C183
C183
C183
6187
718E
3FFC
0FF0
0180
3FFC
3FFC
ENDCHAR
STARTCHAR uni0425
ENCODING 1061
SWIDTH 870 0
DWIDTH 28 0
BBX 18 21 0 -1
BITMAP
400180
F00300
380700
180600
0C0C00
061800
073800
033000
01E000
00E000
00E000
01E000
03B000
073800
061C00
0E0C00
1C0600
180700
3003C0
7001C0
600000
ENDCHAR
STARTCHAR uni0426
ENCODING 1062
SWIDTH 870 0
DWIDTH 28 0
BBX 15 25 2 -5
BITMAP
C018
C018
C018
C018
C018
C018
C018
C018
C018
C018
C018
C018
C018
C018
C018
C018
C018
C018
FE1E
FFFE
0006
0006
0006
0006
0006
ENDCHAR
STARTCHAR uni0427
ENCODING 1063
SWIDTH 870 0
DWIDTH 28 0
BBX 12 20 3 0
BITMAP
C030
C030
C030
C030
C030
C030
C030
C030
C030
7FF0
7FF0
0030
0030
0030
0030
0030
0030
0030
0030
0030
ENDCHAR
STARTCHAR uni0428
ENCODING 1064
SWIDTH 870 0
DWIDTH 28 0
BBX 14 20 2 0
BITMAP
C30C
C30C
C30C
C30C
C30C
C30C
C30C
C30C
C30C
C30C
C30C
C30C
C30C
C30C
C30C
C30C
C30C
C30C
FFFC
FFFC
ENDCHAR
STARTCHAR uni0429
ENCODING 1065
SWIDTH 870 0
DWIDTH 28 0
BBX 17 25 1 -5
BITMAP
C30600
C30600
C30600
C30600
C30600
C30600
C30600
C30600
C30600
C30600
C30600
C30600
C30600
C30600
C30600
C30600
C30600
C30600
FFFF80
FFFF80
000180
000180
000180
000180
000180
ENDCHAR
STARTCHAR uni042A
ENCODING 1066
SWIDTH 870 0
DWIDTH 28 0
BBX 18 19 0 0
BITMAP
FF0000
FF0000
030000
030000
030000
030000
030000
030000
03FC00
03FF00
030380
0301C0
0300C0
0300C0
0300C0
0301C0
030380
03FF00
03FE00
ENDCHAR
STARTCHAR uni042B
ENCODING 1067
SWIDTH 870 0
DWIDTH 28 0
BBX 17 20 1 0
BITMAP
000180
C00180
C00180
C00180
C00180
C00180
C00180
C00180
C00180
FFE180
FFF180
C03980
C01D80
C00D80
C00D80
C00D80
C01D80
C03980
FFF180
FFE180
ENDCHAR
STARTCHAR uni042C
ENCODING 1068
SWIDTH 870 0
DWIDTH 28 0
BBX 14 19 2 0
BITMAP
C000
C000
C000
C000
C000
C000
C000
C000
FFE0
FFF0
C038
C01C
C00C
C00C
C00C
C01C
C038
FFF0
FFE0
ENDCHAR
STARTCHAR uni042D
ENCODING 1069
SWIDTH 870 0
DWIDTH 28 0
BBX 16 20 1 0
BITMAP
67E0
7FF0
7C38
700C
6006
6006
0006
0003
0003
03FF
03FF
0003
0003
0007
0006
C00E
E01C
7878
1FF0
0FC0
ENDCHAR
STARTCHAR uni042E
ENCODING 1070
SWIDTH 870 0
DWIDTH 28 0
BBX 17 20 1 0
BITMAP
C0F000
C3FC00
C70E00
C60600
CC0300
CC0300
DC0380
D80180
D80180
F80180
F80180
D80180
D80180
D80380
CC0300
CC0300
CE0600
C70E00
C3FC00
C1F000
ENDCHAR
STARTCHAR uni042F
ENCODING 1071
SWIDTH 870 0
DWIDTH 28 0
BBX 16 19 1 0
BITMAP
01FF
07FF
0E03
1C03
1803
1803
1803
1C03
0F03
07FB
01FF
0383
0703
0E03
1C03
1803
3803
F003
E003
ENDCHAR
STARTCHAR uni0430
ENCODING 1072
SWIDTH 870 0
DWIDTH 28 0
BBX 14 15 2 0
BITMAP
07E0
3FF8
3C3C
000C
000C
000C
0FFC
3FFC
780C
E00C
C00C
C01C
E07C
7FFC
1F8C
ENDCHAR
STARTCHAR uni0431
ENCODING 1073
SWIDTH 870 0
DWIDTH 28 0
BBX 15 22 2 0
BITMAP
0004
000C
0FFC
3FF0
7000
6000
C000
C7C0
DFF0
F838
F01C
E00C
C006
C006
C006
C006
C006
600C
701C
3838
1FF0
07C0
ENDCHAR
STARTCHAR uni0432
ENCODING 1074
SWIDTH 870 0
DWIDTH 28 0
BBX 12 14 3 0
BITMAP
FF00
FFC0
C0E0
C060
C060
C0E0
FFC0
FFE0
C070
C030
C030
C070
FFE0
FF80
ENDCHAR
STARTCHAR uni0433
ENCODING 1075
SWIDTH 870 0
DWIDTH 28 0
BBX 13 14 3 0
BITMAP
FFF8
FFF8
C000
C000
C000
C000
C000
C000
C000
C000
C000
C000
C000
C000
ENDCHAR
STARTCHAR uni0434
ENCODING 1076
SWIDTH 870 0
DWIDTH 28 0
BBX 14 18 2 -4
BITMAP
1FF8
1FF8
1818
1818
1818
1818
1818
1818
1818
1818
1818
3818
FFFC
FFFC
C00C
C00C
C00C
C00C
ENDCHAR
STARTCHAR uni0435
ENCODING 1077
SWIDTH 870 0
DWIDTH 28 0
BBX 16 15 1 0
BITMAP
07E0
1FF0
3C38
700C
600C
6006
E006
FFFE
FFFE
4000
6003
3007
3C0E
0FFC
07F0
ENDCHAR
STARTCHAR uni0436
ENCODING 1078
SWIDTH 870 0
DWIDTH 28 0
BBX 18 15 0 0
BITMAP
00C000
70C300
78C780
1CCE00
0EDC00
07F800
03F000
03F000
06D800
0CCC00
18CC00
18C600
30C300
E0C3C0
C0C1C0
ENDCHAR
STARTCHAR uni0437
ENCODING 1079
SWIDTH 870 0
DWIDTH 28 0
BBX 12 15 2 0
BITMAP
0F80
3FE0
3870
2030
0030
0070
07E0
07E0
00E0
0030
0030
0030
F060
7FE0
1F80
ENDCHAR
STARTCHAR uni0438
ENCODING 1080
SWIDTH 870 0
DWIDTH 28 0
BBX 11 15 4 0
BITMAP
C060
C0E0
C0E0
C1E0
C3E0
C360
C660
C660
CC60
D860
D860
F060
E060
E060
C060
ENDCHAR
STARTCHAR uni0439
ENCODING 1081
SWIDTH 870 0
DWIDTH 28 0
BBX 10 22 4 0
BITMAP
4040
60C0
60C0
3180
3F80
0E00
0000
C0C0
C1C0
C1C0
C3C0
C3C0
C6C0
C6C0
CCC0
CCC0
D8C0
F0C0
F0C0
E0C0
E0C0
C0C0
ENDCHAR
STARTCHAR uni043A
ENCODING 1082
SWIDTH 870 0
DWIDTH 28 0
BBX 13 15 3 0
BITMAP
00E0
C1E0
C380
C700
CE00
DC00
F800
FC00
CE00
C700
C380
C180
C0C0
C078
C038
ENDCHAR
STARTCHAR uni043B
ENCODING 1083
SWIDTH 870 0
DWIDTH 28 0
BBX 15 14 2 0
BITMAP
0FFE
0FFE
0C06
0C06
0C06
0C06
0C06
0C06
0C06
0C06
0C06
1C06
F806
F006
ENDCHAR
STARTCHAR uni043C
ENCODING 1084
SWIDTH 870 0
DWIDTH 28 0
BBX 16 14 1 0
BITMAP
E007
E00F
F00F
F01F
D81B
D83B
CC33
CC73
C663
C6E3
C3E3
C3C3
C1C3
C183
ENDCHAR
STARTCHAR uni043D
ENCODING 1085
SWIDTH 870 0
DWIDTH 28 0
BBX 12 15 3 0
BITMAP
C030
C030
C030
C030
C030
C030
FFF0
FFF0
C030
C030
C030
C030
C030
C030
C030
ENDCHAR
STARTCHAR uni043E
ENCODING 1086
SWIDTH 870 0
DWIDTH 28 0
BBX 16 15 1 0
BITMAP
07E0
1FF8
3C3C
700E
6006
C003
C003
C003
C003
C003
6006
700E
381C
1FF8
07E0
ENDCHAR
STARTCHAR uni043F
ENCODING 1087
SWIDTH 870 0
DWIDTH 28 0
BBX 14 14 2 0
BITMAP
FFFC
FFFC
C00C
C00C
C00C
C00C
C00C
C00C
C00C
C00C
C00C
C00C
C00C
C00C
ENDCHAR
STARTCHAR uni0440
ENCODING 1088
SWIDTH 870 0
DWIDTH 28 0
BBX 15 22 2 -7
BITMAP
C7C0
DFF0
F838
F01C
E00C
C006
C006
C006
C006
C006
E00C
F01C
F838
DFF0
C7C0
C000
C000
C000
C000
C000
C000
C000
ENDCHAR
STARTCHAR uni0441
ENCODING 1089
SWIDTH 870 0
DWIDTH 28 0
BBX 15 15 2 0
BITMAP
07E0
1FF8
383C
700C
600C
C004
C000
C000
C000
C000
6002
700E
383C
1FF8
07E0
ENDCHAR
STARTCHAR uni0442
ENCODING 1090
SWIDTH 870 0
DWIDTH 28 0
BBX 16 14 1 0
BITMAP
FFFF
FFFF
0180
0180
0180
0180
0180
0180
0180
0180
0180
0180
0180
0180
ENDCHAR
STARTCHAR uni0443
ENCODING 1091
SWIDTH 870 0
DWIDTH 28 0
BBX 16 22 1 -7
BITMAP
4003
E003
6006
3006
300C
180C
1818
0C18
0C30
0630
0630
0360
0360
01C0
01C0
0180
0180
0300
0300
0700
1E00
1C00
ENDCHAR
STARTCHAR uni0444
ENCODING 1092
SWIDTH 870 0
DWIDTH 28 0
BBX 15 28 2 -7
BITMAP
0300
0300
0300
0300
0300
0300
3B70
7FF8
67CC
678C
C386
C306
C306
C306
C306
C306
C306
678C
67DC
7FF8
3F70
0300
0300
0300
0300
0300
0300
0300
ENDCHAR
STARTCHAR uni0445
ENCODING 1093
SWIDTH 870 0
DWIDTH 28 0
BBX 17 15 1 0
BITMAP
000200
E00600
F00C00
381800
1C3000
0E6000
07C000
03C000
03E000
067000
0C3800
181C00
700E00
600780
C00300
ENDCHAR
STARTCHAR uni0446
ENCODING 1094
SWIDTH 870 0
DWIDTH 28 0
BBX 15 20 2 -5
BITMAP
0018
C018
C018
C018
C018
C018
C018
C018
C018
C018
C018
C018
C018
FE1E
FFFE
0006
0006
0006
0006
0006
ENDCHAR
STARTCHAR uni0447
ENCODING 1095
SWIDTH 870 0
DWIDTH 28 0
BBX 12 14 3 0
BITMAP
C030
C030
C030
C030
C030
6030
7FF0
3FF0
0030
0030
0030
0030
0030
0030
ENDCHAR
STARTCHAR uni0448
ENCODING 1096
SWIDTH 870 0
DWIDTH 28 0
BBX 14 14 2 0
BITMAP
C30C
C30C
C30C
C30C
C30C
C30C
C30C
C30C
C30C
C30C
C30C
C30C
FFFC
FFFC
ENDCHAR
STARTCHAR uni0449
ENCODING 1097
SWIDTH 870 0
DWIDTH 28 0
BBX 17 19 1 -5
BITMAP
C30600
C30600
C30600
C30600
C30600
C30600
C30600
C30600
C30600
C30600
C30600
C30600
FFFF80
FFFF80
000180
000180
000180
000180
000180
ENDCHAR
STARTCHAR uni044A
ENCODING 1098
SWIDTH 870 0
DWIDTH 28 0
BBX 16 14 1 0
BITMAP
FE00
FE00
0600
0600
0600
0600
07F8
07FE
0607
0603
0603
0607
07FE
07FC
ENDCHAR
STARTCHAR uni044B
ENCODING 1099
SWIDTH 870 0
DWIDTH 28 0
BBX 15 14 2 0
BITMAP
C006
C006
C006
C006
C006
C006
FF06
FFC6
C0E6
C066
C066
C0E6
FFC6
FF86
ENDCHAR
STARTCHAR uni044C
ENCODING 1100
SWIDTH 870 0
DWIDTH 28 0
BBX 11 14 4 0
BITMAP
C000
C000
C000
C000
C000
C000
FF00
FFC0
C0E0
C060
C060
C0E0
FFC0
FF80
ENDCHAR
STARTCHAR uni044D
ENCODING 1101
SWIDTH 870 0
DWIDTH 28 0
BBX 15 15 2 0
BITMAP
0FC0
3FF0
7878
601C
C00C
400C
0006
07FE
07FE
0004
800C
E01C
F038
3FF0
0FC0
ENDCHAR
STARTCHAR uni044E
ENCODING 1102
SWIDTH 870 0
DWIDTH 28 0
BBX 17 15 1 0
BITMAP
80F800
C1FC00
C38E00
C60700
CE0300
CC0180
FC0180
FC0180
CC0180
CC0180
CE0300
C60300
C78E00
C3FC00
C0F800
ENDCHAR
STARTCHAR uni044F
ENCODING 1103
SWIDTH 870 0
DWIDTH 28 0
BBX 13 15 3 0
BITMAP
07F8
1FF8
1818
3018
3018
3018
1C18
0FF8
07F8
0E18
1C18
1818
3018
F018
E018
ENDCHAR
STARTCHAR uni0450
ENCODING 1104
SWIDTH 870 0
DWIDTH 28 0
BBX 16 22 1 0
BITMAP
0C00
0E00
0700
03C0
00C0
0000
0000
07E0
1FF0
3C38
700C
600C
6006
C006
FFFE
FFFE
4000
6003
3007
3C0E
0FFC
03F0
ENDCHAR
STARTCHAR uni0451
ENCODING 1105
SWIDTH 870 0
DWIDTH 28 0
BBX 16 20 1 0
BITMAP
1C38
1C38
1C38
0000
0000
07C0
1FF0
3C38
700C
E00C
E004
C004
FFFE
FFFE
C000
6002
6007
380E
1FFC
07E0
ENDCHAR
STARTCHAR uni0452
ENCODING 1106
SWIDTH 870 0
DWIDTH 28 0
BBX 15 28 2 -7
BITMAP
1800
1800
1800
FFE0
FFE0
1800
19F0
1BFC
1E1C
1C06
1806
1806
1806
1806
1806
1806
1806
1806
1806
1806
1806
0006
0006
0006
000E
001C
01F8
01F0
ENDCHAR
STARTCHAR uni0453
ENCODING 1107
SWIDTH 870 0
DWIDTH 28 0
BBX 13 22 3 0
BITMAP
0030
0070
01E0
0380
0300
0000
0000
0000
FFF8
FFF8
C000
C000
C000
C000
C000
C000
C000
C000
C000
C000
C000
C000
ENDCHAR
STARTCHAR uni0454
ENCODING 1108
SWIDTH 870 0
DWIDTH 28 0
BBX 15 15 2 0
BITMAP
0FC0
1FF0
3838
601C
E00C
C00C
C000
FF80
FF80
C000
C006
600E
783C
1FF8
0FC0
ENDCHAR
STARTCHAR uni0455
ENCODING 1109
SWIDTH 870 0
DWIDTH 28 0
BBX 13 15 3 0
BITMAP
1F80
7FE0
F070
C030
C030
E000
7FC0
0FE0
0070
8018
C018
C018
F070
7FF0
1FC0
ENDCHAR
STARTCHAR uni0456
ENCODING 1110
SWIDTH 870 0
DWIDTH 28 0
BBX 14 20 2 0
BITMAP
0700
0700
0700
0000
0000
0000
7F00
7F00
0300
0300
0300
0300
0300
0300
0300
0300
0300
0300
FFFC
FFFC
ENDCHAR
STARTCHAR uni0457
ENCODING 1111
SWIDTH 870 0
DWIDTH 28 0
BBX 14 20 2 0
BITMAP
3870
3870
3870
0000
0000
0000
7F00
7F00
0300
0300
0300
0300
0300
0300
0300
0300
0300
0300
FFFC
FFFC
ENDCHAR
STARTCHAR uni0458
ENCODING 1112
SWIDTH 870 0
DWIDTH 28 0
BBX 8 27 5 -7
BITMAP
07
07
07
00
00
00
3F
3F
03
03
03
03
03
03
03
03
03
03
03
03
03
03
03
07
0E
FC
F8
ENDCHAR
STARTCHAR uni0459
ENCODING 1113
SWIDTH 870 0
DWIDTH 28 0
BBX 17 14 1 0
BITMAP
1FC000
1FC000
18C000
18C000
18C000
18C000
18FE00
18FF00
18C380
18C180
18C180
38C380
F0FF00
E0FE00
ENDCHAR
STARTCHAR uni045A
ENCODING 1114
SWIDTH 870 0
DWIDTH 28 0
BBX 17 14 1 0
BITMAP
C0C000
C0C000
C0C000
C0C000
C0C000
C0C000
FFFE00
C0FF00
C0C380
C0C180
C0C180
C0C380
C0FF00
C0FE00
ENDCHAR
STARTCHAR uni045B
ENCODING 1115
SWIDTH 870 0
DWIDTH 28 0
BBX 15 21 2 0
BITMAP
1800
1800
1800
FFE0
FFE0
1800
19F0
1BFC
1E1C
1C06
1806
1806
1806
1806
1806
1806
1806
1806
1806
1806
1806
ENDCHAR
STARTCHAR uni045C
ENCODING 1116
SWIDTH 870 0
DWIDTH 28 0
BBX 13 22 3 0
BITMAP
0060
01E0
0380
0700
0E00
0000
0000
C0E0
C1E0
C380
C700
CE00
DC00
F800
FC00
CE00
C700
C300
C180
C0C0
C078
C038
ENDCHAR
STARTCHAR uni045D
ENCODING 1117
SWIDTH 870 0
DWIDTH 28 0
BBX 11 22 4 0
BITMAP
C000
E000
7000
3C00
0C00
0000
0000
C060
C0E0
C0E0
C1E0
C3E0
C360
C660
CE60
CC60
D860
D860
F060
E060
E060
C060
ENDCHAR
STARTCHAR uni045E
ENCODING 1118
SWIDTH 870 0
DWIDTH 28 0
BBX 16 29 1 -7
BITMAP
1008
1818
1818
0C30
07E0
03C0
0000
C003
E003
6006
7006
300C
380C
1818
1C18
0C38
0E30
0630
0760
0360
03C0
01C0
0180
0180
0300
0300
0600
1E00
1C00
ENDCHAR
STARTCHAR uni045F
ENCODING 1119
SWIDTH 870 0
DWIDTH 28 0
BBX 12 19 3 -4
BITMAP
0030
C030
C030
C030
C030
C030
C030
C030
C030
C030
C030
C030
C030
FFF0
FFF0
0300
0300
0300
0300
ENDCHAR
STARTCHAR uni0460
ENCODING 1120
SWIDTH 870 0
DWIDTH 28 0
BBX 18 21 0 -1
BITMAP
C30040
C300C0
C300C0
C300C0
C300C0
C300C0
6180C0
6181C0
618180
618180
70C180
30C380
30C300
38E300
19E700
19E600
1FF600
0FBE00
0F3C00
071C00
061800
ENDCHAR
STARTCHAR uni0461
ENCODING 1121
SWIDTH 870 0
DWIDTH 28 0
BBX 18 16 0 -1
BITMAP
C300C0
C300C0
C380C0
C180C0
C181C0
E18180
61C180
60C380
71C300
31E700
3BE700
1BFE00
1F3E00
0F3C00
0E1C00
041800
ENDCHAR
STARTCHAR uni0462
ENCODING 1122
SWIDTH 870 0
DWIDTH 28 0
BBX 18 19 0 0
BITMAP
180000
180000
180000
180000
FFE000
FFE000
180000
180000
1BFC00
1BFF00
180780
1801C0
1800C0
1800C0
1800C0
1801C0
180380
1FFF00
1FFE00
ENDCHAR
STARTCHAR uni0463
ENCODING 1123
SWIDTH 870 0
DWIDTH 28 0
BBX 16 21 1 0
BITMAP
0400
0C00
0C00
0C00
0C00
0C00
FFE0
FCE0
0C00
0C00
0C00
0C00
0C00
0FF8
0FFE
0C07
0C03
0C03
0C07
0FFE
0FF8
ENDCHAR
STARTCHAR uni0464
ENCODING 1124
SWIDTH 870 0
DWIDTH 28 0
BBX 17 20 1 0
BITMAP
00F800
C1FF00
C38F00
C70700
C60300
C60300
CC0100
CC0000
CC0000
FFF000
FFF000
CC0000
CC0000
CC0000
C60000
C60180
C30300
C38700
C1FE00
C07800
ENDCHAR
STARTCHAR uni0465
ENCODING 1125
SWIDTH 870 0
DWIDTH 28 0
BBX 16 15 1 0
BITMAP
00F0
C3FC
C70E
C606
CC06
CC02
CC00
FFF0
FFF0
CC00
CC01
CE03
C70E
C3FC
C1F0
ENDCHAR
STARTCHAR uni0466
ENCODING 1126
SWIDTH 870 0
DWIDTH 28 0
BBX 17 20 1 0
BITMAP
018000
03C000
03C000
03E000
066000
066000
0E3000
0C3000
0C3000
1C1800
181800
381C00
3FFC00
3FFC00
718E00
618600
618600
C18300
C18300
C18180
ENDCHAR
STARTCHAR uni0467
ENCODING 1127
SWIDTH 870 0
DWIDTH 28 0
BBX 14 15 2 0
BITMAP
0300
0780
0780
0480
0CC0
0CC0
1860
1860
1E60
3FF0
3FF0
7338
6318
6318
C30C
ENDCHAR
STARTCHAR uni0468
ENCODING 1128
SWIDTH 870 0
DWIDTH 28 0
BBX 17 20 1 0
BITMAP
006000
C07000
C0F000
C0F000
C0F800
C19800
C19800
C19800
C18C00
C30C00
C30C00
C30E00
FFFE00
FFFE00
CE6700
CC6300
CC6300
DC6380
D86180
D86180
ENDCHAR
STARTCHAR uni0469
ENCODING 1129
SWIDTH 870 0
DWIDTH 28 0
BBX 15 15 2 0
BITMAP
C0C0
C0E0
C1E0
C1E0
C320
C330
C330
C210
FFF8
FFF8
C6C8
CCCC
CCCC
CCCC
C8C6
ENDCHAR
STARTCHAR uni046A
ENCODING 1130
SWIDTH 870 0
DWIDTH 28 0
BBX 14 20 2 0
BITMAP
FFFC
FFFC
E018
6038
3030
3860
18E0
0CC0
0FC0
0780
0780
0FC0
0FC0
1B60
3B60
3330
6338
E318
C30C
830C
ENDCHAR
STARTCHAR uni046B
ENCODING 1131
SWIDTH 870 0
DWIDTH 28 0
BBX 12 15 3 0
BITMAP
FFF0
FFF0
6060
30C0
1980
1F80
0F00
0600
0F00
1F80
1F80
36C0
6660
E670
C630
ENDCHAR
STARTCHAR uni046C
ENCODING 1132
SWIDTH 870 0
DWIDTH 28 0
BBX 17 20 1 0
BITMAP
DFFF80
DFFF80
CC0300
CE0700
C70E00
C30C00
C39C00
C1B800
C0F000
FFF000
FFF000
C0F000
C1F800
C1FC00
C36C00
C76E00
C66700
CC6300
DC6380
D86180
ENDCHAR
STARTCHAR uni046D
ENCODING 1133
SWIDTH 870 0
DWIDTH 28 0
BBX 16 15 1 0
BITMAP
CFFF
CFFF
C606
C30C
C398
C1D8
C0F0
FFE0
FFF0
C0F8
C1F8
C36C
C766
CE67
CC63
ENDCHAR
STARTCHAR uni046E
ENCODING 1134
SWIDTH 870 0
DWIDTH 28 0
BBX 15 30 1 -4
BITMAP
1818
1C38
0F70
03C0
0180
0000
03E0
1FF8
3C1C
300E
0006
0006
0006
000E
001C
01F8
03F0
001C
000C
0006
0006
0006
000E
001C
1FF8
7FE0
6000
C000
C000
C000
ENDCHAR
STARTCHAR uni046F
ENCODING 1135
SWIDTH 870 0
DWIDTH 28 0
BBX 14 25 2 -4
BITMAP
1818
1E38
0F70
03E0
0180
0000
03E0
0FF8
0E1C
080C
000C
001C
01F8
01F8
0038
000C
000C
000C
0018
1FF8
7FE0
E000
C000
C000
C000
ENDCHAR
STARTCHAR uni0470
ENCODING 1136
SWIDTH 870 0
DWIDTH 28 0
BBX 14 20 2 0
BITMAP
C30C
C30C
C30C
C30C
C30C
C30C
C30C
C30C
C30C
E31C
6338
3B70
1FE0
0FC0
0300
0300
0300
0300
0300
0300
ENDCHAR
STARTCHAR uni0471
ENCODING 1137
SWIDTH 870 0
DWIDTH 28 0
BBX 14 21 2 -6
BITMAP
C30C
C30C
C30C
C30C
C30C
C30C
C30C
C30C
C30C
C30C
E31C
6338
3B70
1FE0
0FC0
0300
0300
0300
0300
0300
0300
ENDCHAR
STARTCHAR uni0472
ENCODING 1138
SWIDTH 870 0
DWIDTH 28 0
BBX 16 20 1 0
BITMAP
07E0
0FF0
1C38
380C
700E
6006
E006
C003
C003
FFFF
FFFF
C003
C003
C007
6006
700E
300C
1C38
0FF0
07E0
ENDCHAR
STARTCHAR uni0473
ENCODING 1139
SWIDTH 870 0
DWIDTH 28 0
BBX 16 15 1 0
BITMAP
07E0
0FF8
3C3C
300E
7006
6003
E003
FFFF
FFFF
6003
6006
300E
3C1C
0FF8
07E0
ENDCHAR
STARTCHAR uni0474
ENCODING 1140
SWIDTH 870 0
DWIDTH 28 0
BBX 17 20 1 0
BITMAP
C00180
C00300
600600
600C00
301C00
301800
303000
183000
187000
186000
0C6000
0C6000
0EE000
06C000
06C000
03C000
03C000
03C000
01C000
01C000
ENDCHAR
STARTCHAR uni0475
ENCODING 1141
SWIDTH 870 0
DWIDTH 28 0
BBX 15 16 2 -1
BITMAP
C00E
C01C
6018
6030
6070
3060
30E0
18C0
18C0
19C0
0D80
0D80
0780
0780
0780
0380
ENDCHAR
STARTCHAR uni0476
ENCODING 1142
SWIDTH 870 0
DWIDTH 28 0
BBX 17 25 1 0
BITMAP
620000
770000
3B8000
1DC000
0E6000
C63180
C00300
600600
600C00
301C00
301800
303000
183000
187000
186000
0C6000
0C6000
0EE000
06C000
06C000
03C000
03C000
03C000
01C000
01C000
ENDCHAR
STARTCHAR uni0477
ENCODING 1143
SWIDTH 870 0
DWIDTH 28 0
BBX 15 23 2 -1
BITMAP
C600
E700
7B80
1DC0
0EE0
0660
0000
C004
C00E
6018
6030
6070
3060
30E0
18C0
18C0
1980
0D80
0D80
0780
0780
0780
0380
ENDCHAR
STARTCHAR uni0478
ENCODING 1144
SWIDTH 870 0
DWIDTH 28 0
BBX 18 27 0 -7
BITMAP
1E0000
3F0000
330000
618000
618000
E1E040
C0E0C0
C0E0C0
C0F0C0
C0F0C0
C0F180
C0D980
C0D980
C0D980
619B00
618F00
618F00
330F00
3F0600
1E0600
000600
000600
000C00
000C00
001C00
003800
001800
ENDCHAR
STARTCHAR uni0479
ENCODING 1145
SWIDTH 870 0
DWIDTH 28 0
BBX 18 22 0 -7
BITMAP
1E40C0
3F40C0
73E0C0
61E0C0
E1A180
C0F180
C0F180
C0F180
C0DB00
C0DB00
C0DB00
E1DE00
618E00
738E00
3F0E00
1E0C00
000C00
000C00
001800
003800
003800
003000
ENDCHAR
STARTCHAR uni047A
ENCODING 1146
SWIDTH 870 0
DWIDTH 28 0
BBX 16 23 1 -2
BITMAP
0180
03C0
0FF0
1FB8
300C
700C
6006
6006
C003
C003
C003
C003
C003
C003
C003
6006
6006
600E
300C
1998
0FF0
07E0
0380
ENDCHAR
STARTCHAR uni047B
ENCODING 1147
SWIDTH 870 0
DWIDTH 28 0
BBX 16 18 1 -2
BITMAP
03C0
03C0
0FF8
3BDC
700E
6006
E007
C003
C003
C003
C003
C003
6006
700E
3B9C
1FF8
07E0
03C0
ENDCHAR
STARTCHAR uni047C
ENCODING 1148
SWIDTH 870 0
DWIDTH 28 0
BBX 18 26 1 0
BITMAP
01C000
07E000
063800
0F9FC0
0FCFC0
23C400
30C600
708700
630300
600300
C00180
C00180
C00180
C18180
C18180
C18180
C18180
C18180
C18180
C18180
C18300
63C300
63C300
77E700
3E7E00
1C3C00
ENDCHAR
STARTCHAR uni047D
ENCODING 1149
SWIDTH 870 0
DWIDTH 28 0
BBX 17 22 1 0
BITMAP
038000
07C000
0CE000
187000
1BBF80
1BDF80
03C000
00C000
308C00
730E00
600600
C00300
C00300
C18300
C18300
C18300
C18300
C18300
63C600
63C600
3FFC00
1C3800
ENDCHAR
STARTCHAR uni047E
ENCODING 1150
SWIDTH 870 0
DWIDTH 28 0
BBX 18 23 0 -1
BITMAP
7FFF80
7FFF80
C3C0C0
C3C0C0
C3C0C0
C300C0
C300C0
C300C0
C301C0
618180
618180
618180
618380
70C300
30C300
31C300
39E600
19E600
1FFE00
0F3C00
0F3C00
063800
061800
ENDCHAR
STARTCHAR uni047F
ENCODING 1151
SWIDTH 870 0
DWIDTH 28 0
BBX 19 20 -1 -1
BITMAP
3FFFC0
3FFFC0
006000
006000
E1E060
E18060
618060
61C0E0
60C0C0
60C0C0
30C0C0
3061C0
30E180
18F380
19F300
1DBF00
0F9F00
0F1E00
070C00
020C00
ENDCHAR
STARTCHAR uni0480
ENCODING 1152
SWIDTH 870 0
DWIDTH 28 0
BBX 16 25 1 -5
BITMAP
03F3
0FFB
1C1F
3807
7003
6003
6000
C000
C000
C000
C000
C000
C000
E000
6000
7003
3807
1E1F
0FFF
03F3
0003
0003
0003
0003
0003
ENDCHAR
STARTCHAR uni0481
ENCODING 1153
SWIDTH 870 0
DWIDTH 28 0
BBX 15 20 2 -5
BITMAP
07C0
1FF0
3838
701C
600C
C00C
C000
C000
C000
C000
6002
700E
383E
1FFE
07E6
0006
0006
0006
0006
0006
ENDCHAR
STARTCHAR uni0482
ENCODING 1154
SWIDTH 870 0
DWIDTH 28 0
BBX 15 20 2 -1
BITMAP
0008
0018
0038
0C30
0F70
03E0
00F0
01F8
019E
0386
C300
E700
7E00
1E00
1F80
19C0
38E0
3000
6000
6000
ENDCHAR
STARTCHAR uni0483
ENCODING 1155
SWIDTH 870 0
DWIDTH 28 0
BBX 13 8 -16 16
BITMAP
0018
0018
0018
FFF8
FFF8
C000
C000
C000
ENDCHAR
STARTCHAR uni0484
ENCODING 1156
SWIDTH 870 0
DWIDTH 28 0
BBX 9 5 -9 16
BITMAP
3E00
7F00
6300
C180
C180
ENDCHAR
STARTCHAR uni0485
ENCODING 1157
SWIDTH 870 0
DWIDTH 28 0
BBX 4 7 -10 16
BITMAP
70
F0
F0
C0
C0
60
30
ENDCHAR
STARTCHAR uni0486
ENCODING 1158
SWIDTH 870 0
DWIDTH 28 0
BBX 4 6 -10 16
BITMAP
E0
F0
F0
30
60
C0
ENDCHAR
STARTCHAR uni0487
ENCODING 1159
SWIDTH 870 0
DWIDTH 28 0
BBX 14 6 -14 16
BITMAP
1C00
3E00
6700
C380
C1FC
C0FC
ENDCHAR
STARTCHAR uni0488
ENCODING 1160
SWIDTH 870 0
DWIDTH 28 0
BBX 19 19 -18 0
BITMAP
01C000
03E000
380700
7C0F80
000000
000000
000000
000000
000000
6001C0
F003E0
000000
000000
000000
000000
380700
7C0F80
01C000
03E000
ENDCHAR
STARTCHAR uni0489
ENCODING 1161
SWIDTH 870 0
DWIDTH 28 0
BBX 18 18 -18 0
BITMAP
004000
008000
30C600
30CF00
380C00
180C00
000000
000000
B00380
700340
000000
000000
180E00
38CE00
70C200
004000
004000
008000
ENDCHAR
STARTCHAR uni048A
ENCODING 1162
SWIDTH 870 0
DWIDTH 28 0
BBX 16 30 1 -5
BITMAP
3030
3030
1860
1FE0
0780
C00C
C01C
C03C
C03C
C07C
C07C
C0EC
C1CC
C1CC
C38C
C70C
C70C
CE0C
CC0C
DC0C
F80C
F00C
F00C
E02F
E03F
0006
0006
000C
001C
0018
ENDCHAR
STARTCHAR uni048B
ENCODING 1163
SWIDTH 870 0
DWIDTH 28 0
BBX 13 27 3 -5
BITMAP
4020
6060
6060
30C0
1F80
0F00
0000
C060
C0E0
C1E0
C1E0
C3E0
C360
C760
CE60
CC60
DC60
D860
F060
F060
E178
C1F8
0030
0030
0060
00E0
00C0
ENDCHAR
STARTCHAR uni048C
ENCODING 1164
SWIDTH 870 0
DWIDTH 28 0
BBX 18 23 0 0
BITMAP
080000
180000
180000
180000
FFE000
FFE000
180000
180000
180000
180000
180000
180000
1BFE00
1BFF00
180380
1801C0
1800C0
1800C0
1800C0
1801C0
180380
1FFF00
1FFC00
ENDCHAR
STARTCHAR uni048D
ENCODING 1165
SWIDTH 870 0
DWIDTH 28 0
BBX 16 17 1 0
BITMAP
0400
0C00
0C00
FFE0
FCE0
0C00
0C00
0C00
0C00
0FF8
0FFE
0C07
0C03
0C03
0C07
0FFE
0FF8
ENDCHAR
STARTCHAR uni048E
ENCODING 1166
SWIDTH 870 0
DWIDTH 28 0
BBX 13 19 3 0
BITMAP
FF80
FFE0
C070
C030
C018
C018
C618
C718
C338
C1F0
FFE0
FFC0
C060
C060
C030
C020
C000
C000
C000
ENDCHAR
STARTCHAR uni048F
ENCODING 1167
SWIDTH 870 0
DWIDTH 28 0
BBX 15 22 2 -7
BITMAP
C7C0
DFF0
F838
F01C
E00C
C006
C006
C006
C006
C186
E0CC
F0CC
F878
DFF0
C7F8
C018
C00C
C00C
C000
C000
C000
C000
ENDCHAR
STARTCHAR uni0490
ENCODING 1168
SWIDTH 870 0
DWIDTH 28 0
BBX 13 22 3 0
BITMAP
0018
0018
0018
FFF8
FFF8
C000
C000
C000
C000
C000
C000
C000
C000
C000
C000
C000
C000
C000
C000
C000
C000
C000
ENDCHAR
STARTCHAR uni0491
ENCODING 1169
SWIDTH 870 0
DWIDTH 28 0
BBX 13 17 3 0
BITMAP
0018
0018
0018
FFF8
FFF8
C000
C000
C000
C000
C000
C000
C000
C000
C000
C000
C000
C000
ENDCHAR
ENDFONT
